<?xml version="1.0" encoding="UTF-8" standalone="no"?>
<svg
   xmlns:dc="http://purl.org/dc/elements/1.1/"
   xmlns:cc="http://creativecommons.org/ns#"
   xmlns:rdf="http://www.w3.org/1999/02/22-rdf-syntax-ns#"
   xmlns:svg="http://www.w3.org/2000/svg"
   xmlns="http://www.w3.org/2000/svg"
   xmlns:sodipodi="http://sodipodi.sourceforge.net/DTD/sodipodi-0.dtd"
   xmlns:inkscape="http://www.inkscape.org/namespaces/inkscape"
   width="46"
   height="46"
   viewBox="0 0 46 46"
   fill="none"
   version="1.1"
   id="svg6"
   sodipodi:docname="i1.svg"
   inkscape:version="1.0.2-2 (e86c870879, 2021-01-15)">
  <metadata
     id="metadata12">
    <rdf:RDF>
      <cc:Work
         rdf:about="">
        <dc:format>image/svg+xml</dc:format>
        <dc:type
           rdf:resource="http://purl.org/dc/dcmitype/StillImage" />
      </cc:Work>
    </rdf:RDF>
  </metadata>
  <defs
     id="defs10" />
  <sodipodi:namedview
     pagecolor="#ffffff"
     bordercolor="#666666"
     borderopacity="1"
     objecttolerance="10"
     gridtolerance="10"
     guidetolerance="10"
     inkscape:pageopacity="0"
     inkscape:pageshadow="2"
     inkscape:window-width="1920"
     inkscape:window-height="1017"
     id="namedview8"
     showgrid="false"
     inkscape:zoom="18.478261"
     inkscape:cx="11.743529"
     inkscape:cy="23"
     inkscape:window-x="1912"
     inkscape:window-y="-8"
     inkscape:window-maximized="1"
     inkscape:current-layer="svg6" />
  <g
     opacity="0.6"
     id="g4"
     style="mix-blend-mode:normal;fill:#0b446e;fill-opacity:1;opacity:1">
    <path
       d="M 45.3576,8.64763 C 44.9686,8.48642 44.5209,8.57561 44.2234,8.87316 L 25.18,27.9165 c -0.1001,0.1001 -0.1756,0.2157 -0.2264,0.3389 -0.0498,0.1205 -0.0776,0.2525 -0.0784,0.3908 0,5e-4 0,0.001 0,0.0014 0,2e-4 0,3e-4 0,5e-4 0,4e-4 0,7e-4 0,0.0011 0,3e-4 0,5e-4 0,8e-4 0,3e-4 0,4e-4 0,8e-4 0,5e-4 0,0.001 0,0.0016 0,7.0463 -5.7325,12.7789 -12.7789,12.7789 -5.52225,0 -10.01485,-4.4927 -10.01485,-10.0149 0,-4.3031 3.50079,-7.8038 7.80376,-7.8038 3.32769,0 6.03489,2.7072 6.03489,6.0349 0,2.5473 -2.0724,4.6197 -4.6198,4.6197 -1.92317,0 -3.48769,-1.5646 -3.48769,-3.4876 0,-1.4238 1.15833,-2.5821 2.58199,-2.5821 0.5747,0 1.0408,-0.4659 1.0408,-1.0407 0,-0.5748 -0.4661,-1.0407 -1.0408,-1.0407 -2.57137,0 -4.66344,2.092 -4.66344,4.6635 0,3.0708 2.49826,5.5691 5.56914,5.5691 1.8159,0 3.4654,-0.726 4.6735,-1.9031 0.0222,-0.0188 0.0439,-0.0387 0.0649,-0.0596 L 35.0822,15.3426 c 1.2656,-1.2657 1.9627,-2.9485 1.9627,-4.7384 0,-4.47533 -3.641,-8.11641 -8.1163,-8.11641 -2.6404,0 -5.1229,1.02824 -6.9899,2.8953 L 2.89529,24.4265 C 2.87042,24.4513 2.847,24.4772 2.82515,24.5039 1.0785,26.2876 0,28.7286 0,31.4164 c 0,6.67 5.42644,12.0963 12.0963,12.0963 4.0785,0 7.7782,-1.6512 10.466,-4.3207 0.0316,-0.0249 0.0621,-0.052 0.0912,-0.0812 L 41.6475,20.1169 C 44.4542,17.3102 46,13.5784 46,9.60915 46,9.18818 45.7464,8.80873 45.3576,8.64763 Z M 23.4105,6.85488 c 1.4738,-1.47387 3.4335,-2.28564 5.518,-2.28564 3.3277,0 6.0348,2.70724 6.0348,6.03496 0,1.234 -0.4805,2.3941 -1.3531,3.2667 L 17.9999,29.4812 c -0.0887,-4.3991 -3.6947,-7.9501 -8.11469,-7.9501 -0.41514,0 -0.82487,0.0258 -1.2267,0.0757 z M 40.1757,18.6451 26.498,32.3228 c 0.2648,-1.0384 0.4199,-2.1208 0.4524,-3.2329 l 16.657,-16.6571 c -0.524,2.335 -1.6983,4.4789 -3.4317,6.2123 z"
       fill="#00A54C"
       id="path2"
       style="fill:#0b446e;fill-opacity:1" />
  </g>
</svg>
