<svg width="21" height="18" viewBox="0 0 21 18" fill="none" xmlns="http://www.w3.org/2000/svg">
<path fill-rule="evenodd" clip-rule="evenodd" d="M20.1828 7.32606C20.1755 7.34194 20.1683 7.35784 20.1615 7.374C20.1546 7.39075 20.1492 7.40823 20.1438 7.42565C20.1351 7.454 20.1264 7.48223 20.1115 7.507C20.0819 7.55602 20.0433 7.59718 20.0045 7.63847C19.9934 7.65024 19.9824 7.66202 19.9715 7.674C19.9594 7.68652 19.9487 7.70025 19.938 7.71397C19.9231 7.73313 19.9081 7.75226 19.8895 7.768C19.8335 7.81374 19.7688 7.84554 19.7043 7.87722C19.6997 7.87948 19.6951 7.88174 19.6905 7.884C19.6769 7.89061 19.6639 7.89893 19.6509 7.90726C19.6325 7.91909 19.614 7.93096 19.5935 7.938C19.4855 7.978 19.3705 8 19.2515 8C19.1975 8 19.1415 7.996 19.0865 7.986L14.8365 7.281C14.2915 7.191 13.9235 6.676 14.0135 6.131C14.1035 5.587 14.6175 5.214 15.1635 5.309L16.8075 5.581C15.5625 3.395 13.1855 2 10.5695 2C7.61049 2 5.00349 3.718 3.92649 6.375C3.76949 6.765 3.39449 7 2.99949 7C2.87449 7 2.74749 6.977 2.62449 6.927C2.11249 6.72 1.86549 6.137 2.07349 5.625C3.45749 2.208 6.79249 0 10.5695 0C13.9815 0 17.0825 1.87 18.6475 4.788L19.0165 2.815C19.1185 2.273 19.6425 1.914 20.1835 2.018C20.7265 2.119 21.0845 2.642 20.9825 3.185L20.2335 7.185C20.2239 7.23601 20.2033 7.28101 20.1828 7.32606ZM17.0734 11.6252C17.2804 11.1122 17.8644 10.8662 18.3754 11.0732C18.8874 11.2802 19.1344 11.8632 18.9264 12.3752C17.5424 15.7922 14.2074 18.0002 10.4304 18.0002C7.01839 18.0002 3.91739 16.1302 2.35239 13.2122L1.98239 15.1842C1.89339 15.6652 1.47339 16.0002 1.00039 16.0002C0.939394 16.0002 0.877394 15.9942 0.815394 15.9822C0.272394 15.8812 -0.0846056 15.3582 0.0173944 14.8152L0.766394 10.8152C0.773996 10.7759 0.790828 10.7411 0.807738 10.706C0.817522 10.6858 0.827331 10.6655 0.835394 10.6442C0.843301 10.6243 0.850207 10.6037 0.857125 10.583C0.872082 10.5383 0.887096 10.4935 0.912394 10.4552C0.927153 10.4324 0.946449 10.4142 0.965865 10.3959C0.978023 10.3844 0.990228 10.3729 1.00139 10.3602C1.0102 10.35 1.01891 10.3397 1.02761 10.3295C1.0752 10.2734 1.12236 10.2178 1.18239 10.1772C1.18829 10.1729 1.19533 10.1703 1.2023 10.1678C1.20832 10.1656 1.21429 10.1634 1.21939 10.1602C1.31639 10.0972 1.42039 10.0482 1.53539 10.0232C1.5424 10.0216 1.54969 10.022 1.55696 10.0224C1.56319 10.0228 1.5694 10.0231 1.57539 10.0222C1.68539 10.0042 1.79639 9.9932 1.91339 10.0132L6.16339 10.7192C6.70839 10.8082 7.07639 11.3242 6.98639 11.8692C6.90539 12.3582 6.48139 12.7052 6.00039 12.7052C5.94639 12.7052 5.89139 12.7012 5.83639 12.6912L4.19239 12.4192C5.43739 14.6052 7.81439 16.0002 10.4304 16.0002C13.3894 16.0002 15.9964 14.2822 17.0734 11.6252Z" fill="white"/>
</svg>
