<svg width="260" height="33" viewBox="0 0 260 33" fill="none" xmlns="http://www.w3.org/2000/svg">
<path d="M260 21.2287C259.935 21.6873 259.871 22.146 259.806 22.6046C259.289 27.5842 256.253 31.1879 251.409 32.4328C248.437 33.1535 245.401 33.2845 242.43 32.2362C237.908 30.6637 235.26 27.4532 234.614 22.6046C234.291 20.3114 234.484 18.0837 235.26 15.9215C236.293 12.9731 238.296 10.7453 241.138 9.56597C245.078 7.92794 249.083 7.86242 252.959 9.50045C256.706 11.073 258.966 14.0214 259.677 18.0837C259.806 18.6734 259.871 19.2631 259.935 19.8528V21.2287H260ZM251.409 20.7045C251.344 20.1804 251.344 19.7217 251.279 19.1975C251.086 17.9526 250.698 16.7733 249.923 15.7905C248.502 14.0869 246.112 13.9559 244.561 15.5939C244.174 16.0525 243.786 16.5767 243.528 17.1009C242.688 18.8699 242.624 20.77 243.011 22.6702C243.269 23.9806 243.786 25.16 244.82 26.0772C245.595 26.7325 246.564 27.1256 247.597 26.929C249.083 26.6669 250.052 25.6841 250.633 24.3737C251.215 23.2598 251.409 22.0149 251.409 20.7045Z" fill="white"/>
<path d="M140.885 25.0943H148.83C148.83 25.2254 148.894 25.2909 148.894 25.4219C148.959 26.2737 149.411 26.9289 150.186 27.322C151.737 28.1738 153.352 28.2393 154.967 27.5841C155.677 27.322 156.129 26.7979 156.194 26.0116C156.258 25.2254 155.871 24.6357 155.225 24.2426C154.385 23.7184 153.481 23.5218 152.512 23.3908C150.445 23.1287 148.378 22.9321 146.375 22.2114C145.342 21.8183 144.437 21.3596 143.598 20.7044C140.432 18.2802 140.239 12.5798 144.308 10.2866C145.794 9.43483 147.409 8.91067 149.088 8.7141C150.316 8.58306 151.608 8.51754 152.835 8.51754C157.809 8.51754 162.783 8.51754 167.692 8.51754H168.273V7.53473C168.273 6.68296 168.273 5.83118 168.273 4.97941C168.273 4.84837 168.403 4.65181 168.532 4.58629C171.245 3.14482 173.893 1.63784 176.606 0.196382C176.671 0.196382 176.671 0.130859 176.8 0.130859V0.589506C176.8 3.0793 176.8 5.5691 176.8 8.05889C176.8 8.58306 176.8 8.58306 177.317 8.58306C178.544 8.58306 179.771 8.58306 180.999 8.58306H181.451V15.4628H176.735C176.735 15.6593 176.735 15.7904 176.735 15.9214C176.735 18.8043 176.735 21.7528 176.735 24.6357C176.735 24.8323 176.735 24.9633 176.735 25.1599C176.929 26.4048 177.704 27.06 178.996 26.8634C179.707 26.7324 180.353 26.5358 181.128 26.3392C181.322 28.3049 181.516 30.2705 181.709 32.3672C181.063 32.4982 180.482 32.6292 179.901 32.6948C178.092 32.8258 176.283 32.8913 174.475 32.9568C170.857 33.0879 169.242 30.8602 168.661 28.2393C168.467 27.4531 168.403 26.6668 168.403 25.8806C168.403 22.6045 168.403 19.263 168.403 15.9869C168.403 15.5938 168.273 15.4628 167.886 15.4628C163.881 15.4628 159.811 15.4628 155.806 15.4628C155.483 15.4628 155.289 15.3972 155.16 15.0041C154.966 14.4144 154.514 13.9558 153.998 13.6937C152.77 13.0385 151.543 12.9074 150.251 13.3661C149.54 13.5627 149.024 14.0213 148.959 14.8076C148.894 15.5283 149.411 16.0524 150.057 16.3801C151.091 16.9697 152.189 17.1008 153.352 17.1663C154.837 17.2318 156.323 17.1663 157.744 17.5594C160.393 18.2146 162.46 19.6561 163.622 22.2114C164.979 25.2254 164.139 29.4842 160.457 31.4499C158.842 32.3016 157.163 32.6948 155.419 32.8913C153.998 33.0224 152.576 33.0224 151.155 32.9568C148.894 32.8258 146.763 32.3016 144.825 31.0567C142.758 29.6808 141.401 27.7807 141.014 25.2909C140.885 25.2254 140.885 25.1599 140.885 25.0943Z" fill="white"/>
<path d="M70.5394 8.38671C69.6997 9.23849 68.9245 10.0247 68.1494 10.811C66.0823 12.9077 64.0798 14.9388 62.0127 17.0355C61.7544 17.2976 61.8835 17.4286 61.9481 17.6252C64.7258 22.4082 67.4388 27.1912 70.2165 31.9743C70.2811 32.1053 70.4103 32.3019 70.5394 32.4984C70.3457 32.4984 70.2165 32.5639 70.0873 32.5639C67.1158 32.5639 64.1444 32.5639 61.2376 32.5639C60.9792 32.5639 60.85 32.4329 60.7208 32.2363C59.2997 29.3534 57.814 26.536 56.3929 23.6531C56.3283 23.5221 56.1991 23.3255 56.1345 23.1289C56.0053 23.1944 55.9407 23.26 55.8761 23.391C54.9717 24.3083 54.0028 25.2256 53.0985 26.2084C52.9693 26.3395 52.8401 26.6015 52.8401 26.7981C52.8401 28.5672 52.8401 30.3362 52.8401 32.1053V32.4984C52.6463 32.4984 52.5171 32.5639 52.3233 32.5639C49.6749 32.5639 47.091 32.5639 44.4425 32.5639C43.9258 32.5639 43.9258 32.5639 43.9258 32.0398C43.9258 23.1289 43.9258 14.2836 43.9258 5.37275C43.9258 5.11066 43.9904 4.9141 44.2488 4.78306C46.9618 3.3416 49.7394 1.90014 52.4525 0.458677C52.5171 0.393156 52.6463 0.393158 52.7755 0.327637V16.7734C52.7755 16.7734 52.8401 16.7734 52.8401 16.8389C52.9047 16.7734 53.0339 16.6424 53.0985 16.5768C55.2947 14.0215 57.491 11.4007 59.6873 8.84536C59.8811 8.6488 60.0748 8.51776 60.3332 8.51776C63.563 8.51776 66.7929 8.51776 70.0873 8.51776H70.5394V8.38671Z" fill="white"/>
<path d="M218.852 0.0655199V8.25564V16.5113C219.046 16.3147 219.175 16.2492 219.24 16.1181C221.307 13.6939 223.439 11.2696 225.506 8.84533C225.764 8.51772 226.022 8.38668 226.475 8.38668C229.575 8.38668 232.611 8.38668 235.712 8.38668H236.229C236.099 8.51772 236.099 8.58324 236.035 8.64876C233.386 11.4006 230.802 14.087 228.154 16.8389C227.896 17.101 227.896 17.232 228.089 17.4941C230.738 22.2116 233.386 26.9291 235.97 31.7121C236.099 31.9087 236.164 32.1053 236.293 32.3673C236.099 32.3673 235.97 32.3673 235.841 32.3673C232.999 32.3673 230.157 32.3673 227.314 32.3673C226.991 32.3673 226.798 32.3018 226.668 31.9742C225.312 29.0913 223.891 26.1429 222.47 23.2599C222.405 23.1289 222.34 22.9978 222.276 22.8013C222.147 22.9323 222.082 22.9978 221.953 23.0634C220.984 24.0462 220.08 24.9635 219.111 25.9463C218.981 26.0773 218.852 26.3394 218.852 26.536C218.852 28.3706 218.852 30.1396 218.852 31.9742C218.852 32.3018 218.788 32.3673 218.465 32.3673C215.816 32.3673 213.232 32.3673 210.584 32.3673C210.261 32.3673 210.196 32.3018 210.196 31.9742C210.196 22.9978 210.196 14.0215 210.196 5.04511C210.196 4.91407 210.325 4.65199 210.39 4.58646C213.168 3.01396 215.945 1.50698 218.723 0C218.723 0.131042 218.788 0.131041 218.852 0.0655199Z" fill="white"/>
<path d="M18.9913 20.0494C19.2497 20.1149 19.5727 20.1804 19.8311 20.2459C21.7689 20.639 23.3193 21.6219 23.9652 23.522C24.8696 26.0118 24.2882 29.4188 21.0584 31.0569C19.6373 31.7776 18.1516 32.1707 16.6012 32.3018C14.9217 32.4328 13.2422 32.4983 11.5627 32.4983C7.88075 32.4983 4.19876 32.4983 0.516772 32.4983H0V8.45215C0.129193 8.45215 0.258387 8.45215 0.387579 8.45215C4.78013 8.45215 9.10808 8.45215 13.5006 8.45215C15.6323 8.45215 17.6994 8.64871 19.7019 9.36944C21.1876 9.89361 22.4795 10.7454 23.0609 12.2524C24.2236 15.0698 23.4485 18.87 19.3143 19.7873C19.1851 19.7873 19.0559 19.8528 18.9267 19.9183C18.9913 19.9183 18.9913 19.9838 18.9913 20.0494ZM11.1106 22.6702C10.2708 22.6702 9.43106 22.6702 8.59131 22.6702C8.39752 22.6702 8.26833 22.7357 8.26833 22.9978C8.26833 24.2427 8.26833 25.5531 8.26833 26.798C8.26833 27.0601 8.39752 27.1256 8.6559 27.1256C9.94783 27.1256 11.1752 27.1256 12.4671 27.1256C12.9193 27.1256 13.436 27.1256 13.8882 27.0601C14.9863 26.929 15.6969 26.3394 15.8907 25.4876C16.2137 24.0461 15.5677 23.0633 14.1466 22.8668C13.1776 22.6702 12.1441 22.6702 11.1106 22.6702ZM8.26833 13.8249C8.26833 15.0042 8.26833 16.1181 8.26833 17.232C8.26833 17.494 8.46211 17.494 8.6559 17.494C10.0124 17.494 11.4335 17.494 12.7901 17.494C13.2422 17.494 13.6944 17.4285 14.1466 17.2975C14.9863 17.0354 15.4385 16.3802 15.3739 15.6595C15.3093 14.7422 14.8571 14.1525 13.9528 13.9559C13.6944 13.8904 13.436 13.8904 13.113 13.8904C11.8211 13.8904 10.5938 13.8904 9.30186 13.8904H8.26833V13.8249Z" fill="white"/>
<path d="M73.9626 8.45224H82.231V17.101C82.4248 17.101 82.554 17.101 82.6831 17.101C84.621 17.101 86.5589 17.101 88.4322 17.101C88.7552 17.101 88.8844 16.97 88.8844 16.6424C88.8844 14.087 88.8844 11.4662 88.8844 8.91089C88.8844 8.51776 88.949 8.38672 89.4012 8.38672C91.8558 8.38672 94.3105 8.38672 96.7651 8.38672C97.1527 8.38672 97.2173 8.51776 97.2173 8.84537C97.2173 16.5768 97.2173 24.2428 97.2173 31.9743C97.2173 32.3674 97.1527 32.4984 96.7651 32.4984C94.3105 32.4984 91.8558 32.4984 89.4012 32.4984C89.0136 32.4984 88.949 32.3674 88.949 31.9743C88.949 29.2224 88.949 26.536 88.949 23.7841C88.949 23.5876 88.949 23.391 88.949 23.1945H82.3602V23.6531C82.3602 26.405 82.3602 29.2224 82.3602 31.9743C82.3602 32.3019 82.231 32.4329 81.908 32.4329C79.4533 32.4329 76.9341 32.4329 74.4794 32.4329C74.1564 32.4329 74.0272 32.3674 74.0272 32.0398C74.0272 24.3083 74.0272 16.5113 74.0272 8.77984C73.9626 8.71432 73.9626 8.58328 73.9626 8.45224Z" fill="white"/>
<path d="M114.788 17.4286C115.046 15.5941 114.206 14.3492 112.591 14.1526C111.881 14.0871 111.106 14.1526 110.395 14.2181C108.78 14.4802 107.294 15.0044 105.809 15.6596C105.679 15.7251 105.55 15.7906 105.357 15.7906C104.581 14.0216 103.806 12.2525 103.031 10.4179C103.419 10.2213 103.806 10.0248 104.194 9.89374C106.196 9.10749 108.263 8.58332 110.395 8.45228C111.945 8.38676 113.431 8.32124 114.981 8.38676C116.402 8.45228 117.759 8.84541 119.051 9.50062C121.247 10.68 122.475 12.5801 122.862 15.0699C122.991 15.7906 122.991 16.4458 122.991 17.1666C122.991 22.0806 122.991 26.9947 122.991 31.8433V32.4985C122.862 32.4985 122.733 32.4985 122.604 32.4985C120.989 32.4985 119.374 32.4985 117.694 32.4985C117.436 32.4985 117.307 32.3674 117.178 32.1709C116.79 31.3191 116.338 30.4673 115.95 29.6811C115.757 29.2879 115.692 29.2879 115.434 29.6155C115.111 29.9431 114.852 30.2708 114.529 30.5984C113.173 32.0398 111.429 32.695 109.491 32.8916C108.199 33.0226 106.907 33.0226 105.615 32.695C103.031 32.0398 101.222 29.9432 100.835 27.1913C100.641 25.8153 100.576 24.4394 100.964 23.129C101.481 21.1633 102.773 19.8529 104.517 19.0012C106.132 18.2149 107.876 17.8873 109.684 17.7563C111.106 17.6252 112.527 17.6252 113.948 17.5597C114.206 17.4942 114.465 17.4942 114.788 17.4286ZM114.981 21.8841C114.012 21.9496 113.173 21.9496 112.333 22.0151C111.752 22.0806 111.17 22.2117 110.589 22.4082C109.297 22.9324 108.716 24.1118 108.974 25.4877C109.168 26.3395 109.62 26.8637 110.46 27.0602C110.847 27.1257 111.235 27.1258 111.687 27.1258C113.108 27.0602 114.529 26.0119 114.788 24.636C114.917 23.8497 114.917 22.8669 114.981 21.8841Z" fill="white"/>
<path d="M195.856 27.8464C195.856 29.4844 195.856 31.1224 195.856 32.6949C195.856 32.957 195.662 32.957 195.533 32.957C194.629 32.957 193.789 32.8915 192.885 32.8259C191.14 32.6949 189.461 32.2363 187.975 31.319C185.714 29.943 184.293 27.9119 183.518 25.3566C182.808 23.0633 182.678 20.7701 182.937 18.3458C183.324 14.6766 185.391 12.1213 188.427 10.3523C190.624 9.10736 193.014 8.45215 195.533 8.45215C197.471 8.45215 199.409 8.58319 201.218 9.2384C205.029 10.5488 207.354 13.1697 208.194 17.1664C208.581 18.9355 208.711 20.7046 208.646 22.5392C208.646 22.9323 208.452 22.9978 208.129 22.9978C202.768 22.9978 197.406 22.9978 191.98 22.9978H191.463C191.593 24.3082 191.916 25.4221 192.691 26.4049C193.531 27.3877 194.629 27.7808 195.856 27.8464ZM195.791 18.7389C197.083 18.7389 198.375 18.7389 199.667 18.7389C199.926 18.7389 200.055 18.6734 200.055 18.4113C199.926 17.494 199.796 16.6423 199.344 15.856C198.569 14.349 197.277 13.6938 195.662 13.7593C194.047 13.7593 192.885 14.4801 192.109 15.9215C191.722 16.7078 191.528 17.494 191.463 18.3458C191.399 18.8045 191.463 18.8045 191.916 18.8045C193.208 18.7389 194.5 18.7389 195.791 18.7389Z" fill="white"/>
<path d="M29.262 20.4425C29.262 16.6423 29.262 12.7765 29.262 8.97632C29.262 8.45215 29.262 8.45215 29.7787 8.45215C32.1688 8.45215 34.6235 8.45215 37.0135 8.45215C37.4011 8.45215 37.5303 8.58319 37.5303 8.9108C37.5303 16.5767 37.5303 24.3082 37.5303 31.9742C37.5303 32.3673 37.4011 32.4328 37.0135 32.4328C34.6235 32.4328 32.1688 32.4328 29.7787 32.4328C29.262 32.4328 29.262 32.4328 29.262 31.9086C29.262 28.1084 29.262 24.3082 29.262 20.4425Z" fill="white"/>
<path d="M33.1378 7.01012C32.6856 6.9446 32.1042 6.87908 31.4583 6.74803C29.9726 6.35491 29.1974 5.3721 29.1328 3.79959C29.1328 3.34095 29.1328 2.94782 29.262 2.48917C29.4558 1.37532 30.1664 0.589066 31.2645 0.326982C32.5564 -0.000622347 33.9129 -0.0661433 35.2049 0.326982C36.626 0.720108 37.3365 1.6374 37.4657 3.07886C37.4657 3.53751 37.5303 3.99616 37.4011 4.4548C37.1428 5.89626 36.1092 6.74803 34.5589 6.9446C34.1067 6.87908 33.7192 6.9446 33.1378 7.01012Z" fill="white"/>
</svg>
