<svg width="168" height="22" viewBox="0 0 168 22" fill="none" xmlns="http://www.w3.org/2000/svg">
<path d="M167.198 14.4197C167.156 14.7116 167.115 15.0034 167.073 15.2952C166.741 18.4637 164.791 20.7566 161.679 21.5487C159.771 22.0073 157.821 22.0907 155.912 21.4237C153.008 20.4231 151.307 18.3803 150.892 15.2952C150.684 13.8361 150.809 12.4186 151.307 11.0428C151.97 9.16677 153.257 7.74931 155.082 6.99889C157.613 5.95664 160.186 5.91495 162.675 6.9572C165.081 7.95776 166.534 9.83382 166.99 12.4186C167.073 12.7938 167.115 13.169 167.156 13.5442V14.4197H167.198ZM161.679 14.0862C161.638 13.7527 161.638 13.4609 161.596 13.1273C161.472 12.3352 161.223 11.5848 160.725 10.9594C159.812 9.87551 158.277 9.79212 157.281 10.8344C157.032 11.1262 156.783 11.4597 156.617 11.7932C156.078 12.9189 156.037 14.1279 156.285 15.3369C156.451 16.1707 156.783 16.9211 157.447 17.5048C157.945 17.9217 158.567 18.1718 159.231 18.0468C160.186 17.88 160.808 17.2546 161.181 16.4208C161.555 15.7121 161.679 14.92 161.679 14.0862Z" fill="white"/>
<path d="M90.6887 16.8793H95.7921C95.7921 16.9627 95.8336 17.0043 95.8336 17.0877C95.8751 17.6297 96.1655 18.0466 96.6634 18.2967C97.6592 18.8387 98.6964 18.8804 99.7337 18.4635C100.19 18.2967 100.481 17.9632 100.522 17.4629C100.564 16.9627 100.315 16.5874 99.8997 16.3373C99.3603 16.0038 98.7794 15.8787 98.157 15.7953C96.8293 15.6286 95.5016 15.5035 94.2154 15.0449C93.5516 14.7948 92.9707 14.5029 92.4313 14.086C90.3983 12.5435 90.2738 8.91647 92.8877 7.45732C93.842 6.91535 94.8793 6.58183 95.958 6.45676C96.7464 6.37338 97.5762 6.33169 98.3645 6.33169C101.559 6.33169 104.754 6.33169 107.907 6.33169H108.281V5.70634C108.281 5.16437 108.281 4.6224 108.281 4.08043C108.281 3.99705 108.364 3.87198 108.447 3.83029C110.189 2.91311 111.89 1.95423 113.633 1.03705C113.675 1.03705 113.675 0.995361 113.758 0.995361V1.28719C113.758 2.87141 113.758 4.45564 113.758 6.03986C113.758 6.37338 113.758 6.37338 114.089 6.37338C114.878 6.37338 115.666 6.37338 116.454 6.37338H116.745V10.7508H113.716C113.716 10.8759 113.716 10.9593 113.716 11.0427C113.716 12.877 113.716 14.7531 113.716 16.5874C113.716 16.7125 113.716 16.7959 113.716 16.921C113.841 17.7131 114.338 18.13 115.168 18.0049C115.625 17.9215 116.04 17.7965 116.537 17.6714C116.662 18.9221 116.786 20.1728 116.911 21.5069C116.496 21.5903 116.123 21.6736 115.749 21.7153C114.587 21.7987 113.426 21.8404 112.264 21.8821C109.94 21.9655 108.903 20.548 108.53 18.8804C108.405 18.3801 108.364 17.8798 108.364 17.3796C108.364 15.2951 108.364 13.1689 108.364 11.0844C108.364 10.8342 108.281 10.7508 108.032 10.7508C105.459 10.7508 102.845 10.7508 100.273 10.7508C100.066 10.7508 99.9411 10.7091 99.8582 10.459C99.7337 10.0838 99.4433 9.79197 99.1113 9.62521C98.323 9.20831 97.5347 9.12493 96.7049 9.41676C96.2485 9.54183 95.9166 9.83366 95.8751 10.3339C95.8336 10.7925 96.1655 11.126 96.5804 11.3345C97.2442 11.7097 97.9496 11.7931 98.6964 11.8348C99.6507 11.8765 100.605 11.8348 101.518 12.0849C103.219 12.5018 104.547 13.419 105.293 15.0449C106.165 16.9627 105.625 19.6725 103.26 20.9232C102.223 21.4652 101.144 21.7153 100.024 21.8404C99.1113 21.9238 98.1985 21.9238 97.2857 21.8821C95.8336 21.7987 94.4644 21.4652 93.2196 20.6731C91.8919 19.7976 91.0206 18.5886 90.7717 17.0043C90.6887 16.9627 90.6887 16.921 90.6887 16.8793Z" fill="white"/>
<path d="M45.5055 6.24848C44.9661 6.79046 44.4682 7.29074 43.9703 7.79102C42.6426 9.1251 41.3564 10.4175 40.0287 11.7516C39.8627 11.9183 39.9457 12.0017 39.9872 12.1268C41.7713 15.1702 43.5139 18.2135 45.298 21.2569C45.3395 21.3403 45.4225 21.4654 45.5055 21.5904C45.381 21.5904 45.298 21.6321 45.215 21.6321C43.3065 21.6321 41.3979 21.6321 39.5308 21.6321C39.3648 21.6321 39.2819 21.5487 39.1989 21.4237C38.2861 19.5893 37.3318 17.7966 36.419 15.9623C36.3775 15.8789 36.2945 15.7538 36.253 15.6288C36.1701 15.6704 36.1286 15.7121 36.0871 15.7955C35.5062 16.3792 34.8838 16.9628 34.303 17.5882C34.22 17.6716 34.137 17.8383 34.137 17.9634C34.137 19.089 34.137 20.2147 34.137 21.3403V21.5904C34.0125 21.5904 33.9296 21.6321 33.8051 21.6321C32.104 21.6321 30.4443 21.6321 28.7432 21.6321C28.4113 21.6321 28.4113 21.6321 28.4113 21.2986C28.4113 15.6288 28.4113 10.0006 28.4113 4.33074C28.4113 4.16398 28.4528 4.03891 28.6188 3.95553C30.3614 3.03835 32.1455 2.12117 33.8881 1.20398C33.9296 1.16229 34.0125 1.1623 34.0955 1.12061V11.5848C34.0955 11.5848 34.137 11.5848 34.137 11.6265C34.1785 11.5848 34.2615 11.5014 34.303 11.4597C35.7137 9.83383 37.1243 8.16623 38.535 6.54032C38.6595 6.41525 38.784 6.33187 38.9499 6.33187C41.0245 6.33187 43.099 6.33187 45.215 6.33187H45.5055V6.24848Z" fill="white"/>
<path d="M140.768 0.953799V6.16506V11.418C140.893 11.2929 140.976 11.2512 141.017 11.1679C142.345 9.62533 143.714 8.0828 145.042 6.54027C145.208 6.33182 145.374 6.24844 145.664 6.24844C147.656 6.24844 149.606 6.24844 151.597 6.24844H151.929C151.846 6.33182 151.846 6.37351 151.805 6.4152C150.104 8.16618 148.444 9.87547 146.743 11.6265C146.577 11.7932 146.577 11.8766 146.701 12.0434C148.402 15.045 150.104 18.0467 151.763 21.0901C151.846 21.2152 151.888 21.3402 151.971 21.507C151.846 21.507 151.763 21.507 151.68 21.507C149.855 21.507 148.029 21.507 146.203 21.507C145.996 21.507 145.871 21.4653 145.789 21.2569C144.917 19.4225 144.004 17.5464 143.092 15.7121C143.05 15.6287 143.009 15.5453 142.967 15.4202C142.884 15.5036 142.843 15.5453 142.76 15.587C142.137 16.2124 141.556 16.796 140.934 17.4214C140.851 17.5048 140.768 17.6715 140.768 17.7966C140.768 18.9639 140.768 20.0895 140.768 21.2569C140.768 21.4653 140.727 21.507 140.519 21.507C138.818 21.507 137.158 21.507 135.457 21.507C135.25 21.507 135.208 21.4653 135.208 21.2569C135.208 15.5453 135.208 9.83378 135.208 4.12224C135.208 4.03886 135.291 3.8721 135.333 3.83041C137.117 2.82985 138.901 1.87098 140.685 0.912109C140.685 0.99549 140.727 0.995489 140.768 0.953799Z" fill="white"/>
<path d="M12.3958 13.6692C12.5617 13.7109 12.7692 13.7526 12.9352 13.7943C14.1799 14.0444 15.1757 14.6697 15.5906 15.8788C16.1714 17.463 15.798 19.6309 13.7235 20.6731C12.8107 21.1317 11.8564 21.3818 10.8606 21.4652C9.78186 21.5486 8.7031 21.5903 7.62435 21.5903C5.25938 21.5903 2.89441 21.5903 0.529437 21.5903H0.19751V6.29004C0.280491 6.29004 0.363474 6.29004 0.446455 6.29004C3.26782 6.29004 6.0477 6.29004 8.86907 6.29004C10.2383 6.29004 11.566 6.41511 12.8522 6.8737C13.8065 7.20722 14.6363 7.74919 15.0097 8.70806C15.7565 10.5007 15.2586 12.9188 12.6032 13.5024C12.5202 13.5024 12.4373 13.5441 12.3543 13.5858C12.3958 13.5858 12.3958 13.6275 12.3958 13.6692ZM7.33391 15.3368C6.79453 15.3368 6.25515 15.3368 5.71577 15.3368C5.5913 15.3368 5.50832 15.3785 5.50832 15.5452C5.50832 16.3373 5.50832 17.1711 5.50832 17.9633C5.50832 18.13 5.5913 18.1717 5.75726 18.1717C6.58708 18.1717 7.3754 18.1717 8.20522 18.1717C8.49565 18.1717 8.82757 18.1717 9.11801 18.13C9.82335 18.0466 10.2797 17.6714 10.4042 17.1295C10.6117 16.2123 10.1968 15.5869 9.28397 15.4619C8.66161 15.3368 7.99776 15.3368 7.33391 15.3368ZM5.50832 9.70862C5.50832 10.459 5.50832 11.1678 5.50832 11.8765C5.50832 12.0433 5.63279 12.0433 5.75726 12.0433C6.62857 12.0433 7.54136 12.0433 8.41267 12.0433C8.7031 12.0433 8.99354 12.0016 9.28397 11.9182C9.82335 11.7514 10.1138 11.3345 10.0723 10.8759C10.0308 10.2923 9.74037 9.91707 9.1595 9.792C8.99354 9.75031 8.82758 9.75031 8.62012 9.75031C7.79031 9.75031 7.00199 9.75031 6.17217 9.75031H5.50832V9.70862Z" fill="white"/>
<path d="M47.7043 6.29022H53.0152V11.7933C53.1396 11.7933 53.2226 11.7933 53.3056 11.7933C54.5503 11.7933 55.795 11.7933 56.9983 11.7933C57.2057 11.7933 57.2887 11.7099 57.2887 11.5015C57.2887 9.87557 57.2887 8.20797 57.2887 6.58206C57.2887 6.33191 57.3302 6.24854 57.6206 6.24854C59.1973 6.24854 60.7739 6.24854 62.3506 6.24854C62.5995 6.24854 62.641 6.33192 62.641 6.54037C62.641 11.4598 62.641 16.3375 62.641 21.257C62.641 21.5071 62.5995 21.5905 62.3506 21.5905C60.7739 21.5905 59.1973 21.5905 57.6206 21.5905C57.3717 21.5905 57.3302 21.5071 57.3302 21.257C57.3302 19.506 57.3302 17.7967 57.3302 16.0457C57.3302 15.9206 57.3302 15.7956 57.3302 15.6705H53.0981V15.9623C53.0981 17.7133 53.0981 19.506 53.0981 21.257C53.0981 21.4654 53.0152 21.5488 52.8077 21.5488C51.2311 21.5488 49.6129 21.5488 48.0363 21.5488C47.8288 21.5488 47.7458 21.5071 47.7458 21.2987C47.7458 16.3792 47.7458 11.4181 47.7458 6.49867C47.7043 6.45698 47.7043 6.3736 47.7043 6.29022Z" fill="white"/>
<path d="M73.9265 12.0017C74.0925 10.8344 73.5531 10.0423 72.5158 9.9172C72.0594 9.87551 71.5615 9.9172 71.1051 9.95889C70.0679 10.1256 69.1136 10.4592 68.1593 10.8761C68.0763 10.9178 67.9933 10.9594 67.8689 10.9594C67.371 9.83382 66.8731 8.70819 66.3752 7.54086C66.6241 7.41579 66.8731 7.29072 67.122 7.20734C68.4082 6.70706 69.7359 6.37354 71.1051 6.29016C72.1009 6.24847 73.0552 6.20678 74.051 6.24847C74.9638 6.29016 75.8351 6.5403 76.6649 6.9572C78.0756 7.70762 78.8639 8.91664 79.1129 10.5009C79.1958 10.9594 79.1958 11.3763 79.1958 11.8349C79.1958 14.9617 79.1958 18.0885 79.1958 21.1735V21.5904C79.1129 21.5904 79.0299 21.5904 78.9469 21.5904C77.9096 21.5904 76.8724 21.5904 75.7936 21.5904C75.6276 21.5904 75.5446 21.507 75.4617 21.382C75.2127 20.84 74.9223 20.298 74.6733 19.7977C74.5489 19.5476 74.5074 19.5476 74.3414 19.7561C74.134 19.9645 73.968 20.173 73.7605 20.3814C72.8892 21.2986 71.769 21.7155 70.5243 21.8406C69.6945 21.9239 68.8646 21.9239 68.0348 21.7155C66.3752 21.2986 65.2135 19.9645 64.9645 18.2135C64.84 17.338 64.7986 16.4625 65.0475 15.6287C65.3794 14.378 66.2092 13.5442 67.3295 13.0023C68.3668 12.502 69.487 12.2935 70.6487 12.2102C71.5615 12.1268 72.4743 12.1268 73.3871 12.0851C73.5531 12.0434 73.7191 12.0434 73.9265 12.0017ZM74.051 14.8366C73.4286 14.8783 72.8892 14.8783 72.3499 14.92C71.9764 14.9617 71.603 15.0451 71.2296 15.1701C70.3998 15.5037 70.0264 16.2541 70.1923 17.1296C70.3168 17.6716 70.6073 18.0051 71.1466 18.1301C71.3956 18.1718 71.6445 18.1718 71.935 18.1718C72.8478 18.1301 73.7605 17.4631 73.9265 16.5876C74.0095 16.0873 74.0095 15.462 74.051 14.8366Z" fill="white"/>
<path d="M125.997 18.6303C125.997 19.6726 125.997 20.7148 125.997 21.7154C125.997 21.8821 125.873 21.8821 125.79 21.8821C125.209 21.8821 124.67 21.8404 124.089 21.7987C122.969 21.7154 121.89 21.4235 120.935 20.8399C119.483 19.9644 118.571 18.672 118.073 17.0461C117.616 15.5869 117.533 14.1278 117.699 12.5852C117.948 10.2506 119.276 8.62468 121.226 7.49905C122.637 6.70694 124.172 6.29004 125.79 6.29004C127.035 6.29004 128.279 6.37342 129.441 6.79032C131.889 7.62412 133.383 9.29172 133.922 11.8348C134.171 12.9605 134.254 14.0861 134.213 15.2534C134.213 15.5035 134.088 15.5452 133.881 15.5452C130.437 15.5452 126.993 15.5452 123.508 15.5452H123.176C123.259 16.379 123.466 17.0878 123.964 17.7131C124.504 18.3385 125.209 18.5886 125.997 18.6303ZM125.956 12.8354C126.786 12.8354 127.615 12.8354 128.445 12.8354C128.611 12.8354 128.694 12.7937 128.694 12.6269C128.611 12.0433 128.528 11.5013 128.238 11.001C127.74 10.0421 126.91 9.62525 125.873 9.66694C124.836 9.66694 124.089 10.1255 123.591 11.0427C123.342 11.543 123.217 12.0433 123.176 12.5852C123.134 12.8771 123.176 12.8771 123.466 12.8771C124.296 12.8354 125.126 12.8354 125.956 12.8354Z" fill="white"/>
<path d="M18.9927 13.9193C18.9927 11.5013 18.9927 9.04158 18.9927 6.62356C18.9927 6.29004 18.9927 6.29004 19.3246 6.29004C20.8598 6.29004 22.4364 6.29004 23.9716 6.29004C24.2205 6.29004 24.3035 6.37342 24.3035 6.58187C24.3035 11.4596 24.3035 16.379 24.3035 21.2568C24.3035 21.5069 24.2205 21.5486 23.9716 21.5486C22.4364 21.5486 20.8598 21.5486 19.3246 21.5486C18.9927 21.5486 18.9927 21.5486 18.9927 21.2151C18.9927 18.7971 18.9927 16.379 18.9927 13.9193Z" fill="white"/>
<path d="M21.4822 5.37295C21.1917 5.33126 20.8183 5.28957 20.4034 5.20619C19.4491 4.95605 18.9512 4.3307 18.9097 3.33014C18.9097 3.03831 18.9097 2.78817 18.9927 2.49634C19.1172 1.78761 19.5736 1.28733 20.2789 1.12057C21.1088 0.912117 21.9801 0.870427 22.8099 1.12057C23.7227 1.37071 24.1791 1.95437 24.262 2.87155C24.262 3.16338 24.3035 3.45521 24.2206 3.74704C24.0546 4.66422 23.3907 5.20619 22.395 5.33126C22.1045 5.28957 21.8556 5.33126 21.4822 5.37295Z" fill="white"/>
</svg>
