<svg width="20" height="21" viewBox="0 0 20 21" fill="none" xmlns="http://www.w3.org/2000/svg">
<path fill-rule="evenodd" clip-rule="evenodd" d="M11.6666 6.69076C11.6666 5.77159 10.9191 5.02409 9.99996 5.02409C9.08079 5.02409 8.33329 5.77159 8.33329 6.69076C8.33329 7.60992 9.08079 8.35742 9.99996 8.35742C10.9191 8.35742 11.6666 7.60992 11.6666 6.69076ZM13.3333 6.69076C13.3333 8.52909 11.8383 10.0241 9.99996 10.0241C8.16163 10.0241 6.66663 8.52909 6.66663 6.69076C6.66663 4.85242 8.16163 3.35742 9.99996 3.35742C11.8383 3.35742 13.3333 4.85242 13.3333 6.69076ZM4.16663 17.5241C4.16663 14.3074 6.78413 11.6908 9.99996 11.6908C13.2158 11.6908 15.8333 14.3074 15.8333 17.5241C15.8333 17.9841 15.4608 18.3574 15 18.3574C14.5391 18.3574 14.1666 17.9841 14.1666 17.5241C14.1666 15.2266 12.2975 13.3574 9.99996 13.3574C7.70246 13.3574 5.83329 15.2266 5.83329 17.5241C5.83329 17.9841 5.46079 18.3574 4.99996 18.3574C4.53913 18.3574 4.16663 17.9841 4.16663 17.5241Z" fill="rgba(69, 72, 75, 0.4)"/>
<mask id="mask0" mask-type="alpha" maskUnits="userSpaceOnUse" x="4" y="3" width="12" height="16">
<path fill-rule="evenodd" clip-rule="evenodd" d="M11.6666 6.69076C11.6666 5.77159 10.9191 5.02409 9.99996 5.02409C9.08079 5.02409 8.33329 5.77159 8.33329 6.69076C8.33329 7.60992 9.08079 8.35742 9.99996 8.35742C10.9191 8.35742 11.6666 7.60992 11.6666 6.69076ZM13.3333 6.69076C13.3333 8.52909 11.8383 10.0241 9.99996 10.0241C8.16163 10.0241 6.66663 8.52909 6.66663 6.69076C6.66663 4.85242 8.16163 3.35742 9.99996 3.35742C11.8383 3.35742 13.3333 4.85242 13.3333 6.69076ZM4.16663 17.5241C4.16663 14.3074 6.78413 11.6908 9.99996 11.6908C13.2158 11.6908 15.8333 14.3074 15.8333 17.5241C15.8333 17.9841 15.4608 18.3574 15 18.3574C14.5391 18.3574 14.1666 17.9841 14.1666 17.5241C14.1666 15.2266 12.2975 13.3574 9.99996 13.3574C7.70246 13.3574 5.83329 15.2266 5.83329 17.5241C5.83329 17.9841 5.46079 18.3574 4.99996 18.3574C4.53913 18.3574 4.16663 17.9841 4.16663 17.5241Z" fill="rgba(69, 72, 75, 0.4)"/>
</mask>
<g mask="url(#mask0)">
<path d="M0 0.857422H20V20.8574H0V0.857422Z" fill="rgba(69, 72, 75, 0.8)"/>
</g>
</svg>
