<svg width="476" height="476" viewBox="0 0 476 476" fill="none" xmlns="http://www.w3.org/2000/svg">
<path opacity="0.1" d="M237.982 0L237.982 177.362" stroke="white"/>
<path opacity="0.1" d="M237.982 298.638L237.982 476" stroke="white"/>
<path opacity="0.1" d="M476 238L298.638 238" stroke="white"/>
<path opacity="0.1" d="M177.362 238L-2.75028e-05 238" stroke="white"/>
<g clip-path="url(#clip0)">
<path d="M123.708 313.733H120.524L121.484 302.892C121.485 302.872 121.486 302.853 121.486 302.834C121.486 302.832 121.486 302.83 121.486 302.829C121.486 302.828 121.486 302.828 121.486 302.828C121.486 302.533 121.305 302.273 121.039 302.16C121.037 302.159 121.035 302.158 121.033 302.157C121.016 302.15 120.999 302.144 120.982 302.138C120.975 302.136 120.969 302.134 120.963 302.132C120.949 302.128 120.934 302.124 120.92 302.121C120.91 302.119 120.9 302.116 120.89 302.114C120.878 302.111 120.865 302.11 120.852 302.108C120.84 302.106 120.828 302.104 120.816 302.103C120.814 302.103 120.812 302.103 120.81 302.102C120.797 302.101 120.784 302.101 120.771 302.101C120.762 302.101 120.754 302.1 120.745 302.1H120.736C120.735 302.1 120.734 302.1 120.733 302.1H105.585C105.176 302.1 104.844 302.426 104.844 302.829C104.844 303.23 105.176 303.558 105.585 303.558H119.938L118.463 320.22C118.463 320.221 118.463 320.222 118.463 320.224L118.091 324.428H92.3511L92.7817 320.053H97.6826C98.0918 320.053 98.4234 319.726 98.4234 319.324C98.4234 318.921 98.0918 318.594 97.6826 318.594H92.9253L93.8343 309.359H101.635C102.044 309.359 102.375 309.032 102.375 308.629C102.375 308.227 102.044 307.9 101.635 307.9H93.9779L94.4054 303.558H105.715C106.123 303.558 106.455 303.23 106.455 302.829C106.455 302.426 106.123 302.1 105.715 302.1H93.7331C93.7327 302.1 93.7324 302.1 93.732 302.1C93.384 302.1 93.0822 302.341 93.0092 302.675C93.0087 302.677 93.0078 302.68 93.0073 302.682C93.0036 302.7 93.0011 302.719 92.9987 302.738C92.998 302.744 92.9967 302.749 92.9961 302.755C92.996 302.756 92.9957 302.757 92.9956 302.758L92.4895 307.9H83.5096C83.1004 307.9 82.7689 308.227 82.7689 308.629C82.7689 309.032 83.1004 309.359 83.5096 309.359H92.3459L91.4368 318.594H88.7939C88.3847 318.594 88.0531 318.921 88.0531 319.324C88.0531 319.726 88.3847 320.053 88.7939 320.053H91.2933L90.7983 325.081C90.7982 325.082 90.7982 325.083 90.7981 325.084L90.0328 332.86C90.0327 332.86 90.0326 332.861 90.0325 332.862L90.0322 332.865C90.0312 332.875 90.0313 332.885 90.0307 332.895C90.03 332.909 90.0286 332.922 90.0286 332.935C90.0286 332.936 90.0287 332.936 90.0287 332.937C90.0287 332.956 90.0301 332.974 90.0315 332.993C90.0321 332.999 90.0319 333.005 90.0326 333.011C90.0345 333.029 90.0378 333.048 90.0412 333.067C90.0422 333.072 90.0427 333.078 90.0438 333.083C90.0467 333.097 90.0507 333.11 90.0545 333.124C90.057 333.134 90.0591 333.144 90.0621 333.153C90.063 333.156 90.0642 333.158 90.0649 333.161C90.1008 333.269 90.1616 333.367 90.2411 333.446C90.2425 333.448 90.2437 333.449 90.2452 333.451C90.2531 333.459 90.2617 333.466 90.27 333.473C90.3211 333.519 90.3787 333.558 90.4418 333.589C90.455 333.595 90.4679 333.602 90.4814 333.607C90.4854 333.609 90.4898 333.61 90.4939 333.612C90.5125 333.619 90.5311 333.626 90.5504 333.632C90.5522 333.633 90.5539 333.633 90.5556 333.633C90.5776 333.64 90.5997 333.646 90.6223 333.65C90.6253 333.651 90.6283 333.651 90.6312 333.651C90.6527 333.655 90.6743 333.659 90.6964 333.661C90.6969 333.661 90.6973 333.661 90.6978 333.661C90.7221 333.664 90.7462 333.665 90.7701 333.665C90.7704 333.665 90.7707 333.665 90.7711 333.665H94.0688C94.433 336.382 96.7999 338.487 99.6588 338.487C102.517 338.487 104.884 336.382 105.249 333.665H117.13C117.494 336.382 119.861 338.487 122.72 338.487C125.579 338.487 127.946 336.382 128.31 333.665H131.609C131.609 333.665 131.61 333.665 131.61 333.665C131.635 333.665 131.659 333.663 131.683 333.661C131.688 333.66 131.692 333.66 131.696 333.659C131.715 333.657 131.735 333.654 131.753 333.651C131.761 333.649 131.769 333.647 131.777 333.645C131.792 333.642 131.806 333.638 131.821 333.634C131.83 333.631 131.84 333.628 131.849 333.625C131.861 333.621 131.873 333.616 131.885 333.612C131.896 333.608 131.905 333.603 131.915 333.599C131.926 333.594 131.937 333.589 131.948 333.583C131.958 333.578 131.967 333.573 131.977 333.568C131.987 333.562 131.997 333.556 132.007 333.55C132.017 333.544 132.026 333.538 132.035 333.532C132.045 333.525 132.054 333.517 132.064 333.51C132.072 333.504 132.081 333.498 132.088 333.491C132.099 333.482 132.108 333.474 132.118 333.465C132.125 333.458 132.132 333.452 132.138 333.445C132.148 333.435 132.158 333.424 132.168 333.413C132.173 333.407 132.179 333.402 132.184 333.396C132.195 333.382 132.204 333.369 132.214 333.355C132.218 333.35 132.221 333.346 132.225 333.341C132.237 333.323 132.248 333.305 132.259 333.286C132.259 333.285 132.26 333.284 132.261 333.282C132.272 333.262 132.282 333.242 132.291 333.22C132.294 333.214 132.296 333.208 132.298 333.202C132.304 333.187 132.31 333.171 132.315 333.156C132.318 333.146 132.321 333.135 132.324 333.125C132.327 333.113 132.33 333.101 132.333 333.089C132.336 333.078 132.337 333.066 132.339 333.055C132.341 333.045 132.343 333.036 132.344 333.026C132.376 332.778 132.956 328.197 133.215 325.235C133.215 325.232 133.215 325.229 133.215 325.226C133.29 324.372 133.338 323.653 133.338 323.213C133.338 317.986 129.018 313.733 123.708 313.733ZM120.395 315.192H123.426L123.039 319.567H120.008L120.395 315.192ZM99.659 337.029C97.3659 337.029 95.5003 335.192 95.5003 332.935C95.5003 330.678 97.366 328.842 99.659 328.842C101.952 328.842 103.818 330.678 103.818 332.935C103.818 335.192 101.952 337.029 99.659 337.029ZM122.72 337.029C120.427 337.029 118.562 335.192 118.562 332.935C118.562 330.678 120.427 328.842 122.72 328.842C125.013 328.842 126.879 330.678 126.879 332.935C126.879 335.192 125.013 337.029 122.72 337.029ZM130.954 332.206H128.31C127.946 329.488 125.579 327.383 122.72 327.383C119.862 327.383 117.494 329.488 117.13 332.206H105.249C104.885 329.488 102.518 327.383 99.659 327.383C96.8001 327.383 94.433 329.488 94.0689 332.206H91.5855L92.2076 325.886H118.77V325.886C118.77 325.886 118.77 325.886 118.771 325.886C118.796 325.886 118.82 325.885 118.845 325.882C118.849 325.882 118.854 325.881 118.858 325.88C118.877 325.878 118.897 325.875 118.916 325.872C118.924 325.87 118.932 325.868 118.94 325.866C118.955 325.862 118.97 325.859 118.984 325.855C118.994 325.852 119.003 325.848 119.013 325.845C119.025 325.841 119.038 325.837 119.05 325.832C119.06 325.827 119.07 325.823 119.08 325.818C119.091 325.813 119.102 325.808 119.113 325.803C119.123 325.798 119.133 325.792 119.143 325.786C119.153 325.78 119.163 325.774 119.173 325.768C119.182 325.762 119.191 325.756 119.201 325.749C119.21 325.743 119.22 325.736 119.229 325.728C119.238 325.722 119.246 325.715 119.255 325.708C119.264 325.7 119.273 325.691 119.282 325.683C119.29 325.676 119.297 325.669 119.304 325.661C119.313 325.652 119.322 325.642 119.33 325.633C119.337 325.625 119.343 325.618 119.35 325.61C119.358 325.6 119.366 325.589 119.373 325.579C119.379 325.571 119.385 325.563 119.39 325.554C119.398 325.543 119.405 325.532 119.411 325.521C119.416 325.512 119.421 325.504 119.426 325.495C119.432 325.483 119.437 325.472 119.443 325.46C119.447 325.451 119.452 325.441 119.456 325.432C119.461 325.42 119.465 325.408 119.469 325.397C119.473 325.386 119.476 325.376 119.48 325.365C119.483 325.354 119.486 325.342 119.489 325.331C119.491 325.319 119.495 325.308 119.497 325.296C119.499 325.284 119.501 325.273 119.502 325.261C119.504 325.249 119.506 325.237 119.507 325.225C119.508 325.223 119.508 325.222 119.508 325.22L119.879 321.025H123.708C125.977 321.025 127.001 322.182 128.085 323.408C128.979 324.419 129.977 325.547 131.674 325.823C131.458 328.065 131.11 330.945 130.954 332.206ZM131.8 324.361C130.7 324.14 130.022 323.379 129.202 322.451C128.176 321.29 126.923 319.874 124.522 319.61L124.905 315.279C128.832 315.851 131.856 319.19 131.856 323.213C131.856 323.486 131.836 323.883 131.8 324.361Z" fill="#00A54C"/>
<path d="M99.659 330.261C98.1614 330.261 96.9429 331.461 96.9429 332.935C96.9429 334.409 98.1614 335.609 99.659 335.609C101.157 335.609 102.375 334.409 102.375 332.935C102.375 331.461 101.157 330.261 99.659 330.261ZM99.659 334.15C98.9782 334.15 98.4244 333.605 98.4244 332.935C98.4244 332.265 98.9782 331.72 99.659 331.72C100.34 331.72 100.894 332.265 100.894 332.935C100.894 333.605 100.34 334.15 99.659 334.15Z" fill="#00A54C"/>
<path d="M122.72 330.261C121.222 330.261 120.004 331.461 120.004 332.935C120.004 334.409 121.222 335.609 122.72 335.609C124.218 335.609 125.436 334.409 125.436 332.935C125.436 331.461 124.218 330.261 122.72 330.261ZM122.72 334.15C122.039 334.15 121.486 333.605 121.486 332.935C121.486 332.265 122.039 331.72 122.72 331.72C123.401 331.72 123.955 332.265 123.955 332.935C123.955 333.605 123.401 334.15 122.72 334.15Z" fill="#00A54C"/>
<path d="M89.7814 313.734H86.16C85.7508 313.734 85.4192 314.06 85.4192 314.463C85.4192 314.865 85.7508 315.192 86.16 315.192H89.7814C90.1906 315.192 90.5222 314.865 90.5222 314.463C90.5222 314.06 90.1906 313.734 89.7814 313.734Z" fill="#00A54C"/>
</g>
<path d="M76.2043 379.866V382.8H74.8363V381H65.1163V382.8H63.7663V379.866H64.1263C64.4983 379.866 64.8043 379.722 65.0443 379.434C65.2843 379.146 65.4163 378.774 65.4403 378.318L66.1063 367.68H75.0883V379.866H76.2043ZM66.1063 379.866H73.7203V368.814H67.4023L66.8083 378.246C66.7723 378.894 66.5383 379.434 66.1063 379.866ZM83.0463 381.18C81.5823 381.18 80.4003 380.73 79.5003 379.83C78.6123 378.918 78.1683 377.724 78.1683 376.248C78.1683 374.76 78.6123 373.566 79.5003 372.666C80.4003 371.754 81.5823 371.298 83.0463 371.298C84.4983 371.298 85.6683 371.754 86.5563 372.666C87.4443 373.566 87.8883 374.76 87.8883 376.248C87.8883 377.724 87.4443 378.918 86.5563 379.83C85.6683 380.73 84.4983 381.18 83.0463 381.18ZM83.0463 380.064C84.0903 380.064 84.9303 379.716 85.5663 379.02C86.2023 378.312 86.5203 377.388 86.5203 376.248C86.5203 375.096 86.2023 374.172 85.5663 373.476C84.9303 372.78 84.0903 372.432 83.0463 372.432C81.9903 372.432 81.1383 372.78 80.4903 373.476C79.8543 374.172 79.5363 375.096 79.5363 376.248C79.5363 377.388 79.8543 378.312 80.4903 379.02C81.1383 379.716 81.9903 380.064 83.0463 380.064ZM94.4005 381.18C92.9605 381.18 91.7965 380.73 90.9085 379.83C90.0205 378.918 89.5765 377.718 89.5765 376.23C89.5765 374.754 90.0265 373.566 90.9265 372.666C91.8265 371.754 93.0085 371.298 94.4725 371.298C95.6485 371.298 96.6745 371.646 97.5505 372.342L96.8125 373.242C96.1525 372.702 95.3725 372.432 94.4725 372.432C93.4045 372.432 92.5465 372.78 91.8985 373.476C91.2625 374.172 90.9445 375.096 90.9445 376.248C90.9445 377.388 91.2685 378.312 91.9165 379.02C92.5645 379.716 93.4225 380.064 94.4905 380.064C95.5465 380.064 96.4105 379.722 97.0825 379.038L97.8385 379.92C96.9625 380.76 95.8165 381.18 94.4005 381.18ZM107.579 371.478V372.558H103.763V381H102.467V372.558H98.6329V371.478H107.579ZM111.993 371.298C113.157 371.298 114.087 371.64 114.783 372.324C115.479 372.996 115.827 373.89 115.827 375.006V381H114.567L114.531 379.002C114.207 379.686 113.727 380.22 113.091 380.604C112.467 380.988 111.771 381.18 111.003 381.18C110.067 381.18 109.311 380.928 108.735 380.424C108.159 379.92 107.871 379.248 107.871 378.408C107.871 377.544 108.225 376.848 108.933 376.32C109.653 375.78 110.595 375.51 111.759 375.51C112.707 375.51 113.631 375.618 114.531 375.834V375.168C114.531 374.304 114.273 373.62 113.757 373.116C113.253 372.6 112.563 372.342 111.687 372.342C110.631 372.342 109.761 372.696 109.077 373.404L108.483 372.612C109.383 371.736 110.553 371.298 111.993 371.298ZM111.363 380.208C112.179 380.208 112.911 379.896 113.559 379.272C114.207 378.636 114.531 377.796 114.531 376.752C113.655 376.548 112.785 376.446 111.921 376.446C111.117 376.446 110.463 376.626 109.959 376.986C109.467 377.334 109.221 377.796 109.221 378.372C109.221 378.936 109.413 379.386 109.797 379.722C110.181 380.046 110.703 380.208 111.363 380.208ZM124.876 376.176C125.512 376.332 126.01 376.608 126.37 377.004C126.742 377.4 126.928 377.88 126.928 378.444C126.928 379.212 126.646 379.83 126.082 380.298C125.53 380.766 124.804 381 123.904 381H118.648V371.478H123.67C124.534 371.478 125.23 371.706 125.758 372.162C126.286 372.618 126.55 373.218 126.55 373.962C126.55 374.49 126.4 374.946 126.1 375.33C125.8 375.714 125.392 375.996 124.876 376.176ZM123.472 372.504H119.944V375.726H123.382C123.934 375.726 124.378 375.576 124.714 375.276C125.062 374.976 125.236 374.58 125.236 374.088C125.236 373.608 125.074 373.224 124.75 372.936C124.426 372.648 124 372.504 123.472 372.504ZM123.706 379.992C124.27 379.992 124.726 379.842 125.074 379.542C125.422 379.23 125.596 378.828 125.596 378.336C125.596 377.82 125.416 377.412 125.056 377.112C124.696 376.8 124.216 376.644 123.616 376.644H119.944V379.992H123.706ZM136.357 381L132.505 376.536H130.579V381H129.283V371.478H130.579V375.456H132.505L136.159 371.478H137.797L133.585 375.978L138.013 381H136.357ZM142.632 371.298C143.796 371.298 144.726 371.64 145.422 372.324C146.118 372.996 146.466 373.89 146.466 375.006V381H145.206L145.17 379.002C144.846 379.686 144.366 380.22 143.73 380.604C143.106 380.988 142.41 381.18 141.642 381.18C140.706 381.18 139.95 380.928 139.374 380.424C138.798 379.92 138.51 379.248 138.51 378.408C138.51 377.544 138.864 376.848 139.572 376.32C140.292 375.78 141.234 375.51 142.398 375.51C143.346 375.51 144.27 375.618 145.17 375.834V375.168C145.17 374.304 144.912 373.62 144.396 373.116C143.892 372.6 143.202 372.342 142.326 372.342C141.27 372.342 140.4 372.696 139.716 373.404L139.122 372.612C140.022 371.736 141.192 371.298 142.632 371.298ZM142.002 380.208C142.818 380.208 143.55 379.896 144.198 379.272C144.846 378.636 145.17 377.796 145.17 376.752C144.294 376.548 143.424 376.446 142.56 376.446C141.756 376.446 141.102 376.626 140.598 376.986C140.106 377.334 139.86 377.796 139.86 378.372C139.86 378.936 140.052 379.386 140.436 379.722C140.82 380.046 141.342 380.208 142.002 380.208ZM31.4867 397.478H40.1087V407H38.8127V398.558H32.7827V407H31.4867V397.478ZM47.3011 407.18C45.8371 407.18 44.6551 406.73 43.7551 405.83C42.8671 404.918 42.4231 403.724 42.4231 402.248C42.4231 400.76 42.8671 399.566 43.7551 398.666C44.6551 397.754 45.8371 397.298 47.3011 397.298C48.7531 397.298 49.9231 397.754 50.8111 398.666C51.6991 399.566 52.1431 400.76 52.1431 402.248C52.1431 403.724 51.6991 404.918 50.8111 405.83C49.9231 406.73 48.7531 407.18 47.3011 407.18ZM47.3011 406.064C48.3451 406.064 49.1851 405.716 49.8211 405.02C50.4571 404.312 50.7751 403.388 50.7751 402.248C50.7751 401.096 50.4571 400.172 49.8211 399.476C49.1851 398.78 48.3451 398.432 47.3011 398.432C46.2451 398.432 45.3931 398.78 44.7451 399.476C44.1091 400.172 43.7911 401.096 43.7911 402.248C43.7911 403.388 44.1091 404.312 44.7451 405.02C45.3931 405.716 46.2451 406.064 47.3011 406.064ZM65.453 402.176C66.089 402.332 66.587 402.608 66.947 403.004C67.319 403.4 67.505 403.88 67.505 404.444C67.505 405.212 67.223 405.83 66.659 406.298C66.107 406.766 65.381 407 64.481 407H59.225V397.478H64.247C65.111 397.478 65.807 397.706 66.335 398.162C66.863 398.618 67.127 399.218 67.127 399.962C67.127 400.49 66.977 400.946 66.677 401.33C66.377 401.714 65.969 401.996 65.453 402.176ZM64.049 398.504H60.521V401.726H63.959C64.511 401.726 64.955 401.576 65.291 401.276C65.639 400.976 65.813 400.58 65.813 400.088C65.813 399.608 65.651 399.224 65.327 398.936C65.003 398.648 64.577 398.504 64.049 398.504ZM64.283 405.992C64.847 405.992 65.303 405.842 65.651 405.542C65.999 405.23 66.173 404.828 66.173 404.336C66.173 403.82 65.993 403.412 65.633 403.112C65.273 402.8 64.793 402.644 64.193 402.644H60.521V405.992H64.283ZM74.0538 407.18C72.6138 407.18 71.4498 406.73 70.5618 405.83C69.6738 404.918 69.2298 403.718 69.2298 402.23C69.2298 400.754 69.6798 399.566 70.5798 398.666C71.4798 397.754 72.6618 397.298 74.1258 397.298C75.3018 397.298 76.3278 397.646 77.2038 398.342L76.4658 399.242C75.8058 398.702 75.0258 398.432 74.1258 398.432C73.0578 398.432 72.1998 398.78 71.5518 399.476C70.9158 400.172 70.5978 401.096 70.5978 402.248C70.5978 403.388 70.9218 404.312 71.5698 405.02C72.2178 405.716 73.0758 406.064 74.1438 406.064C75.1998 406.064 76.0638 405.722 76.7358 405.038L77.4918 405.92C76.6158 406.76 75.4698 407.18 74.0538 407.18ZM87.6169 402.122C87.6169 402.422 87.6109 402.62 87.5989 402.716H80.0029C80.0869 403.772 80.4049 404.606 80.9569 405.218C81.5089 405.83 82.2469 406.136 83.1709 406.136C84.4189 406.136 85.4449 405.596 86.2489 404.516L87.2389 405.074C86.2909 406.478 84.9409 407.18 83.1889 407.18C81.8209 407.18 80.7169 406.73 79.8769 405.83C79.0369 404.918 78.6169 403.718 78.6169 402.23C78.6169 400.754 79.0309 399.566 79.8589 398.666C80.6869 397.754 81.7789 397.298 83.1349 397.298C84.4789 397.298 85.5589 397.742 86.3749 398.63C87.2029 399.506 87.6169 400.67 87.6169 402.122ZM85.3309 399.278C84.7789 398.654 84.0469 398.342 83.1349 398.342C82.2229 398.342 81.4849 398.654 80.9209 399.278C80.3689 399.89 80.0629 400.73 80.0029 401.798H86.2669C86.2069 400.73 85.8949 399.89 85.3309 399.278ZM94.2189 396.02C93.3429 396.02 92.6409 395.762 92.1129 395.246C91.5849 394.718 91.3209 394.022 91.3209 393.158H92.3829C92.3829 393.77 92.5509 394.268 92.8869 394.652C93.2229 395.024 93.6669 395.21 94.2189 395.21C94.7709 395.21 95.2149 395.024 95.5509 394.652C95.8869 394.268 96.0549 393.77 96.0549 393.158H97.0989C97.0989 394.022 96.8349 394.718 96.3069 395.246C95.7789 395.762 95.0829 396.02 94.2189 396.02ZM97.5309 397.478H98.5209V407H97.2609V399.602L90.8889 407H89.8989V397.478H91.1589V404.984L97.5309 397.478ZM114.131 393.68H115.607L109.541 407H108.065L109.721 403.364L105.059 393.68H106.517L110.459 401.942L114.131 393.68ZM123.481 407L119.629 402.536H117.703V407H116.407V397.478H117.703V401.456H119.629L123.283 397.478H124.921L120.709 401.978L125.137 407H123.481ZM131.766 397.298C133.11 397.298 134.202 397.754 135.042 398.666C135.894 399.566 136.32 400.748 136.32 402.212C136.32 403.7 135.894 404.9 135.042 405.812C134.202 406.724 133.11 407.18 131.766 407.18C129.954 407.18 128.688 406.436 127.968 404.948V410.96H126.672V397.478H127.932L127.968 399.53C128.688 398.042 129.954 397.298 131.766 397.298ZM131.46 406.064C132.516 406.064 133.362 405.716 133.998 405.02C134.646 404.312 134.97 403.382 134.97 402.23C134.97 401.09 134.646 400.172 133.998 399.476C133.362 398.78 132.516 398.432 131.46 398.432C130.416 398.432 129.57 398.78 128.922 399.476C128.286 400.172 127.968 401.096 127.968 402.248C127.968 403.388 128.286 404.312 128.922 405.02C129.57 405.716 130.416 406.064 131.46 406.064ZM141.973 397.298C143.137 397.298 144.067 397.64 144.763 398.324C145.459 398.996 145.807 399.89 145.807 401.006V407H144.547L144.511 405.002C144.187 405.686 143.707 406.22 143.071 406.604C142.447 406.988 141.751 407.18 140.983 407.18C140.047 407.18 139.291 406.928 138.715 406.424C138.139 405.92 137.851 405.248 137.851 404.408C137.851 403.544 138.205 402.848 138.913 402.32C139.633 401.78 140.575 401.51 141.739 401.51C142.687 401.51 143.611 401.618 144.511 401.834V401.168C144.511 400.304 144.253 399.62 143.737 399.116C143.233 398.6 142.543 398.342 141.667 398.342C140.611 398.342 139.741 398.696 139.057 399.404L138.463 398.612C139.363 397.736 140.533 397.298 141.973 397.298ZM141.343 406.208C142.159 406.208 142.891 405.896 143.539 405.272C144.187 404.636 144.511 403.796 144.511 402.752C143.635 402.548 142.765 402.446 141.901 402.446C141.097 402.446 140.443 402.626 139.939 402.986C139.447 403.334 139.201 403.796 139.201 404.372C139.201 404.936 139.393 405.386 139.777 405.722C140.161 406.046 140.683 406.208 141.343 406.208ZM156.259 397.478H157.249V407H155.989V399.602L149.617 407H148.627V397.478H149.887V404.984L156.259 397.478ZM167.52 397.478H168.816V407H167.52V402.662H161.49V407H160.194V397.478H161.49V401.582H167.52V397.478ZM180.148 402.122C180.148 402.422 180.142 402.62 180.13 402.716H172.534C172.618 403.772 172.936 404.606 173.488 405.218C174.04 405.83 174.778 406.136 175.702 406.136C176.95 406.136 177.976 405.596 178.78 404.516L179.77 405.074C178.822 406.478 177.472 407.18 175.72 407.18C174.352 407.18 173.248 406.73 172.408 405.83C171.568 404.918 171.148 403.718 171.148 402.23C171.148 400.754 171.562 399.566 172.39 398.666C173.218 397.754 174.31 397.298 175.666 397.298C177.01 397.298 178.09 397.742 178.906 398.63C179.734 399.506 180.148 400.67 180.148 402.122ZM177.862 399.278C177.31 398.654 176.578 398.342 175.666 398.342C174.754 398.342 174.016 398.654 173.452 399.278C172.9 399.89 172.594 400.73 172.534 401.798H178.798C178.738 400.73 178.426 399.89 177.862 399.278Z" fill="white"/>
<g clip-path="url(#clip1)">
<path d="M375.348 334.705L373.867 330.33C373.768 330.028 373.481 329.834 373.165 329.834H370.331C369.926 329.834 369.59 330.165 369.59 330.563C369.59 330.962 369.926 331.292 370.331 331.292H372.632L373.62 334.209H354.923L355.911 331.292H358.212C358.617 331.292 358.953 330.962 358.953 330.563C358.953 330.165 358.617 329.834 358.212 329.834H355.377C355.061 329.834 354.775 330.038 354.676 330.33L353.195 334.705C353.116 334.929 353.155 335.172 353.293 335.366C353.432 335.56 353.659 335.667 353.896 335.667H374.637C374.874 335.667 375.101 335.551 375.239 335.366C375.388 335.172 375.417 334.929 375.348 334.705Z" fill="#00A54C"/>
<path d="M388.731 338.993L381.324 324.409C381.314 324.389 381.304 324.37 381.284 324.351C381.284 324.341 381.274 324.331 381.274 324.331C381.136 324.137 380.909 324.01 380.662 324.01H376.217H369.59L368.701 325.469H375.763L382.572 339.226C382.701 339.479 382.957 339.634 383.234 339.634C383.352 339.634 383.461 339.605 383.57 339.556C383.747 339.469 383.876 339.323 383.945 339.138C384.004 338.954 383.994 338.759 383.905 338.584L377.412 325.459H380.198L386.776 338.584H347.924L350.014 333.801C350.133 333.577 350.113 333.305 349.985 333.091C349.856 332.877 349.609 332.741 349.353 332.741H343.14L345.362 328.366H349.353C349.629 328.366 349.886 328.21 350.014 327.967L351.288 325.449H356.177H359.842L358.696 323.991H350.834H346.389C346.113 323.991 345.856 324.146 345.728 324.389L344.246 327.306L341.283 333.149L338.32 338.993C338.202 339.216 338.221 339.488 338.35 339.702C338.488 339.916 338.725 340.052 338.982 340.052H339.081H346.389H383.615H388.06C388.316 340.052 388.553 339.926 388.692 339.702C388.84 339.479 388.85 339.216 388.731 338.993ZM346.844 325.459H349.629L348.888 326.917H346.103L346.844 325.459ZM346.274 338.584H340.266L342.409 334.209H348.157L346.274 338.584Z" fill="#00A54C"/>
<path d="M364.266 297.167C357.53 297.167 352.049 302.563 352.049 309.193C352.049 311.186 352.553 313.16 353.511 314.91L363.605 332.848C363.743 333.091 363.99 333.237 364.276 333.237C364.553 333.237 364.81 333.091 364.948 332.848L375.032 314.9C375.99 313.16 376.494 311.186 376.494 309.193C376.484 302.563 371.002 297.167 364.266 297.167ZM373.679 314.181L364.266 330.933L354.864 314.181C354.024 312.654 353.58 310.934 353.58 309.184C353.58 303.379 358.37 298.664 364.266 298.664C370.163 298.664 374.963 303.389 374.963 309.193C374.963 310.934 374.518 312.654 373.679 314.181Z" fill="#00A54C"/>
<path d="M364.266 303.175C360.898 303.175 358.163 305.868 358.163 309.183C358.163 312.499 360.898 315.192 364.266 315.192C367.634 315.192 370.37 312.499 370.37 309.183C370.37 305.868 367.634 303.175 364.266 303.175ZM364.266 313.695C361.738 313.695 359.684 311.672 359.684 309.183C359.684 306.694 361.738 304.672 364.266 304.672C366.795 304.672 368.849 306.694 368.849 309.183C368.849 311.672 366.795 313.695 364.266 313.695Z" fill="#00A54C"/>
</g>
<path d="M290.342 375.584C291.59 375.584 292.592 375.926 293.348 376.61C294.116 377.294 294.5 378.188 294.5 379.292C294.5 380.396 294.104 381.29 293.312 381.974C292.532 382.658 291.5 383 290.216 383H284.942V369.68H293.024V370.814H286.31V375.584H290.342ZM290.072 381.866C290.972 381.866 291.698 381.632 292.25 381.164C292.802 380.684 293.078 380.06 293.078 379.292C293.078 378.524 292.802 377.906 292.25 377.438C291.698 376.97 290.972 376.736 290.072 376.736H286.31V381.866H290.072ZM300.836 383.18C299.372 383.18 298.19 382.73 297.29 381.83C296.402 380.918 295.958 379.724 295.958 378.248C295.958 376.76 296.402 375.566 297.29 374.666C298.19 373.754 299.372 373.298 300.836 373.298C302.288 373.298 303.458 373.754 304.346 374.666C305.234 375.566 305.678 376.76 305.678 378.248C305.678 379.724 305.234 380.918 304.346 381.83C303.458 382.73 302.288 383.18 300.836 383.18ZM300.836 382.064C301.88 382.064 302.72 381.716 303.356 381.02C303.992 380.312 304.31 379.388 304.31 378.248C304.31 377.096 303.992 376.172 303.356 375.476C302.72 374.78 301.88 374.432 300.836 374.432C299.78 374.432 298.928 374.78 298.28 375.476C297.644 376.172 297.326 377.096 297.326 378.248C297.326 379.388 297.644 380.312 298.28 381.02C298.928 381.716 299.78 382.064 300.836 382.064ZM308.559 373.478H315.651V383H314.355V374.558H309.801L309.405 380.858C309.357 381.554 309.111 382.118 308.667 382.55C308.235 382.97 307.683 383.18 307.011 383.18V382.046C307.323 382.046 307.581 381.926 307.785 381.686C308.001 381.446 308.121 381.122 308.145 380.714L308.559 373.478ZM326.984 378.122C326.984 378.422 326.978 378.62 326.966 378.716H319.37C319.454 379.772 319.772 380.606 320.324 381.218C320.876 381.83 321.614 382.136 322.538 382.136C323.786 382.136 324.812 381.596 325.616 380.516L326.606 381.074C325.658 382.478 324.308 383.18 322.556 383.18C321.188 383.18 320.084 382.73 319.244 381.83C318.404 380.918 317.984 379.718 317.984 378.23C317.984 376.754 318.398 375.566 319.226 374.666C320.054 373.754 321.146 373.298 322.502 373.298C323.846 373.298 324.926 373.742 325.742 374.63C326.57 375.506 326.984 376.67 326.984 378.122ZM324.698 375.278C324.146 374.654 323.414 374.342 322.502 374.342C321.59 374.342 320.852 374.654 320.288 375.278C319.736 375.89 319.43 376.73 319.37 377.798H325.634C325.574 376.73 325.262 375.89 324.698 375.278ZM337.654 378.122C337.654 378.422 337.648 378.62 337.636 378.716H330.04C330.124 379.772 330.442 380.606 330.994 381.218C331.546 381.83 332.284 382.136 333.208 382.136C334.456 382.136 335.482 381.596 336.286 380.516L337.276 381.074C336.328 382.478 334.978 383.18 333.226 383.18C331.858 383.18 330.754 382.73 329.914 381.83C329.074 380.918 328.654 379.718 328.654 378.23C328.654 376.754 329.068 375.566 329.896 374.666C330.724 373.754 331.816 373.298 333.172 373.298C334.516 373.298 335.596 373.742 336.412 374.63C337.24 375.506 337.654 376.67 337.654 378.122ZM335.368 375.278C334.816 374.654 334.084 374.342 333.172 374.342C332.26 374.342 331.522 374.654 330.958 375.278C330.406 375.89 330.1 376.73 330.04 377.798H336.304C336.244 376.73 335.932 375.89 335.368 375.278ZM348.246 375.332C349.518 375.332 350.544 375.686 351.324 376.394C352.104 377.09 352.494 378.008 352.494 379.148C352.494 380.36 352.068 381.338 351.216 382.082C350.364 382.814 349.23 383.18 347.814 383.18C346.062 383.18 344.778 382.682 343.962 381.686L344.502 380.678C345.21 381.59 346.266 382.046 347.67 382.046C348.702 382.046 349.524 381.782 350.136 381.254C350.76 380.726 351.072 380.03 351.072 379.166C351.072 378.326 350.766 377.654 350.154 377.15C349.554 376.646 348.756 376.394 347.76 376.394C346.992 376.394 346.308 376.544 345.708 376.844L345.348 376.142L350.19 370.814H344.466V369.68H352.026V370.544L347.49 375.368C347.826 375.344 348.078 375.332 348.246 375.332ZM362.546 381.308C361.682 382.556 360.542 383.18 359.126 383.18C357.71 383.18 356.57 382.556 355.706 381.308C354.854 380.048 354.428 378.392 354.428 376.34C354.428 374.288 354.854 372.638 355.706 371.39C356.57 370.13 357.71 369.5 359.126 369.5C360.542 369.5 361.682 370.13 362.546 371.39C363.41 372.638 363.842 374.288 363.842 376.34C363.842 378.392 363.41 380.048 362.546 381.308ZM356.732 380.48C357.344 381.524 358.142 382.046 359.126 382.046C360.11 382.046 360.902 381.524 361.502 380.48C362.114 379.436 362.42 378.056 362.42 376.34C362.42 374.624 362.114 373.244 361.502 372.2C360.902 371.156 360.11 370.634 359.126 370.634C358.142 370.634 357.344 371.156 356.732 372.2C356.132 373.244 355.832 374.624 355.832 376.34C355.832 378.056 356.132 379.436 356.732 380.48ZM374.024 381.308C373.16 382.556 372.02 383.18 370.604 383.18C369.188 383.18 368.048 382.556 367.184 381.308C366.332 380.048 365.906 378.392 365.906 376.34C365.906 374.288 366.332 372.638 367.184 371.39C368.048 370.13 369.188 369.5 370.604 369.5C372.02 369.5 373.16 370.13 374.024 371.39C374.888 372.638 375.32 374.288 375.32 376.34C375.32 378.392 374.888 380.048 374.024 381.308ZM368.21 380.48C368.822 381.524 369.62 382.046 370.604 382.046C371.588 382.046 372.38 381.524 372.98 380.48C373.592 379.436 373.898 378.056 373.898 376.34C373.898 374.624 373.592 373.244 372.98 372.2C372.38 371.156 371.588 370.634 370.604 370.634C369.62 370.634 368.822 371.156 368.21 372.2C367.61 373.244 367.31 374.624 367.31 376.34C367.31 378.056 367.61 379.436 368.21 380.48ZM385.503 381.308C384.639 382.556 383.499 383.18 382.083 383.18C380.667 383.18 379.527 382.556 378.663 381.308C377.811 380.048 377.385 378.392 377.385 376.34C377.385 374.288 377.811 372.638 378.663 371.39C379.527 370.13 380.667 369.5 382.083 369.5C383.499 369.5 384.639 370.13 385.503 371.39C386.367 372.638 386.799 374.288 386.799 376.34C386.799 378.392 386.367 380.048 385.503 381.308ZM379.689 380.48C380.301 381.524 381.099 382.046 382.083 382.046C383.067 382.046 383.859 381.524 384.459 380.48C385.071 379.436 385.377 378.056 385.377 376.34C385.377 374.624 385.071 373.244 384.459 372.2C383.859 371.156 383.067 370.634 382.083 370.634C381.099 370.634 380.301 371.156 379.689 372.2C379.089 373.244 378.789 374.624 378.789 376.34C378.789 378.056 379.089 379.436 379.689 380.48ZM401.306 373.478V374.558H397.49V383H396.194V374.558H392.36V373.478H401.306ZM406.551 383.18C405.087 383.18 403.905 382.73 403.005 381.83C402.117 380.918 401.673 379.724 401.673 378.248C401.673 376.76 402.117 375.566 403.005 374.666C403.905 373.754 405.087 373.298 406.551 373.298C408.003 373.298 409.173 373.754 410.061 374.666C410.949 375.566 411.393 376.76 411.393 378.248C411.393 379.724 410.949 380.918 410.061 381.83C409.173 382.73 408.003 383.18 406.551 383.18ZM406.551 382.064C407.595 382.064 408.435 381.716 409.071 381.02C409.707 380.312 410.025 379.388 410.025 378.248C410.025 377.096 409.707 376.172 409.071 375.476C408.435 374.78 407.595 374.432 406.551 374.432C405.495 374.432 404.643 374.78 403.995 375.476C403.359 376.172 403.041 377.096 403.041 378.248C403.041 379.388 403.359 380.312 403.995 381.02C404.643 381.716 405.495 382.064 406.551 382.064ZM420.137 373.478H421.433V383H420.137V378.104C419.489 379.256 418.385 379.832 416.825 379.832C415.697 379.832 414.785 379.496 414.089 378.824C413.393 378.14 413.045 377.246 413.045 376.142V373.478H414.341V375.89C414.341 376.742 414.605 377.426 415.133 377.942C415.661 378.458 416.363 378.716 417.239 378.716C418.115 378.716 418.817 378.458 419.345 377.942C419.873 377.426 420.137 376.742 420.137 375.89V373.478ZM432.769 378.122C432.769 378.422 432.763 378.62 432.751 378.716H425.155C425.239 379.772 425.557 380.606 426.109 381.218C426.661 381.83 427.399 382.136 428.323 382.136C429.571 382.136 430.597 381.596 431.401 380.516L432.391 381.074C431.443 382.478 430.093 383.18 428.341 383.18C426.973 383.18 425.869 382.73 425.029 381.83C424.189 380.918 423.769 379.718 423.769 378.23C423.769 376.754 424.183 375.566 425.011 374.666C425.839 373.754 426.931 373.298 428.287 373.298C429.631 373.298 430.711 373.742 431.527 374.63C432.355 375.506 432.769 376.67 432.769 378.122ZM430.483 375.278C429.931 374.654 429.199 374.342 428.287 374.342C427.375 374.342 426.637 374.654 426.073 375.278C425.521 375.89 425.215 376.73 425.155 377.798H431.419C431.359 376.73 431.047 375.89 430.483 375.278ZM442.125 383L438.273 378.536H436.347V383H435.051V373.478H436.347V377.456H438.273L441.927 373.478H443.565L439.353 377.978L443.781 383H442.125ZM275.679 399.478H284.301V409H283.005V400.558H276.975V409H275.679V399.478ZM292.34 399.298C293.684 399.298 294.776 399.754 295.616 400.666C296.468 401.566 296.894 402.748 296.894 404.212C296.894 405.7 296.468 406.9 295.616 407.812C294.776 408.724 293.684 409.18 292.34 409.18C290.528 409.18 289.262 408.436 288.542 406.948V412.96H287.246V399.478H288.506L288.542 401.53C289.262 400.042 290.528 399.298 292.34 399.298ZM292.034 408.064C293.09 408.064 293.936 407.716 294.572 407.02C295.22 406.312 295.544 405.382 295.544 404.23C295.544 403.09 295.22 402.172 294.572 401.476C293.936 400.78 293.09 400.432 292.034 400.432C290.99 400.432 290.144 400.78 289.496 401.476C288.86 402.172 288.542 403.096 288.542 404.248C288.542 405.388 288.86 406.312 289.496 407.02C290.144 407.716 290.99 408.064 292.034 408.064ZM303.482 409.18C302.018 409.18 300.836 408.73 299.936 407.83C299.048 406.918 298.604 405.724 298.604 404.248C298.604 402.76 299.048 401.566 299.936 400.666C300.836 399.754 302.018 399.298 303.482 399.298C304.934 399.298 306.104 399.754 306.992 400.666C307.88 401.566 308.324 402.76 308.324 404.248C308.324 405.724 307.88 406.918 306.992 407.83C306.104 408.73 304.934 409.18 303.482 409.18ZM303.482 408.064C304.526 408.064 305.366 407.716 306.002 407.02C306.638 406.312 306.956 405.388 306.956 404.248C306.956 403.096 306.638 402.172 306.002 401.476C305.366 400.78 304.526 400.432 303.482 400.432C302.426 400.432 301.574 400.78 300.926 401.476C300.29 402.172 299.972 403.096 299.972 404.248C299.972 405.388 300.29 406.312 300.926 407.02C301.574 407.716 302.426 408.064 303.482 408.064ZM318.566 407.92H319.592V410.8H318.296V409H310.844V410.8H309.548V407.92H309.944C310.256 407.92 310.514 407.812 310.718 407.596C310.934 407.368 311.048 407.074 311.06 406.714L311.492 399.478H318.566V407.92ZM311.87 407.92H317.27V400.558H312.734L312.32 406.768C312.308 407.212 312.158 407.596 311.87 407.92ZM325.239 399.298C326.403 399.298 327.333 399.64 328.029 400.324C328.725 400.996 329.073 401.89 329.073 403.006V409H327.813L327.777 407.002C327.453 407.686 326.973 408.22 326.337 408.604C325.713 408.988 325.017 409.18 324.249 409.18C323.313 409.18 322.557 408.928 321.981 408.424C321.405 407.92 321.117 407.248 321.117 406.408C321.117 405.544 321.471 404.848 322.179 404.32C322.899 403.78 323.841 403.51 325.005 403.51C325.953 403.51 326.877 403.618 327.777 403.834V403.168C327.777 402.304 327.519 401.62 327.003 401.116C326.499 400.6 325.809 400.342 324.933 400.342C323.877 400.342 323.007 400.696 322.323 401.404L321.729 400.612C322.629 399.736 323.799 399.298 325.239 399.298ZM324.609 408.208C325.425 408.208 326.157 407.896 326.805 407.272C327.453 406.636 327.777 405.796 327.777 404.752C326.901 404.548 326.031 404.446 325.167 404.446C324.363 404.446 323.709 404.626 323.205 404.986C322.713 405.334 322.467 405.796 322.467 406.372C322.467 406.936 322.659 407.386 323.043 407.722C323.427 408.046 323.949 408.208 324.609 408.208ZM342.514 409L338.788 404.536H338.032V409H336.736V404.536H335.962L332.236 409H330.58L334.882 403.996L330.814 399.478H332.452L335.962 403.456H336.736V399.478H338.032V403.456H338.788L342.298 399.478H343.954L339.886 403.978L344.17 409H342.514ZM350.298 399.478H358.92V409H357.624V400.558H351.594V409H350.298V399.478ZM366.113 409.18C364.649 409.18 363.467 408.73 362.567 407.83C361.679 406.918 361.235 405.724 361.235 404.248C361.235 402.76 361.679 401.566 362.567 400.666C363.467 399.754 364.649 399.298 366.113 399.298C367.565 399.298 368.735 399.754 369.623 400.666C370.511 401.566 370.955 402.76 370.955 404.248C370.955 405.724 370.511 406.918 369.623 407.83C368.735 408.73 367.565 409.18 366.113 409.18ZM366.113 408.064C367.157 408.064 367.997 407.716 368.633 407.02C369.269 406.312 369.587 405.388 369.587 404.248C369.587 403.096 369.269 402.172 368.633 401.476C367.997 400.78 367.157 400.432 366.113 400.432C365.057 400.432 364.205 400.78 363.557 401.476C362.921 402.172 362.603 403.096 362.603 404.248C362.603 405.388 362.921 406.312 363.557 407.02C364.205 407.716 365.057 408.064 366.113 408.064ZM385.939 395.68H387.415L381.349 409H379.873L381.529 405.364L376.867 395.68H378.325L382.267 403.942L385.939 395.68ZM395.288 409L391.436 404.536H389.51V409H388.214V399.478H389.51V403.456H391.436L395.09 399.478H396.728L392.516 403.978L396.944 409H395.288ZM403.574 399.298C404.918 399.298 406.01 399.754 406.85 400.666C407.702 401.566 408.128 402.748 408.128 404.212C408.128 405.7 407.702 406.9 406.85 407.812C406.01 408.724 404.918 409.18 403.574 409.18C401.762 409.18 400.496 408.436 399.776 406.948V412.96H398.48V399.478H399.74L399.776 401.53C400.496 400.042 401.762 399.298 403.574 399.298ZM403.268 408.064C404.324 408.064 405.17 407.716 405.806 407.02C406.454 406.312 406.778 405.382 406.778 404.23C406.778 403.09 406.454 402.172 405.806 401.476C405.17 400.78 404.324 400.432 403.268 400.432C402.224 400.432 401.378 400.78 400.73 401.476C400.094 402.172 399.776 403.096 399.776 404.248C399.776 405.388 400.094 406.312 400.73 407.02C401.378 407.716 402.224 408.064 403.268 408.064ZM413.78 399.298C414.944 399.298 415.874 399.64 416.57 400.324C417.266 400.996 417.614 401.89 417.614 403.006V409H416.354L416.318 407.002C415.994 407.686 415.514 408.22 414.878 408.604C414.254 408.988 413.558 409.18 412.79 409.18C411.854 409.18 411.098 408.928 410.522 408.424C409.946 407.92 409.658 407.248 409.658 406.408C409.658 405.544 410.012 404.848 410.72 404.32C411.44 403.78 412.382 403.51 413.546 403.51C414.494 403.51 415.418 403.618 416.318 403.834V403.168C416.318 402.304 416.06 401.62 415.544 401.116C415.04 400.6 414.35 400.342 413.474 400.342C412.418 400.342 411.548 400.696 410.864 401.404L410.27 400.612C411.17 399.736 412.34 399.298 413.78 399.298ZM413.15 408.208C413.966 408.208 414.698 407.896 415.346 407.272C415.994 406.636 416.318 405.796 416.318 404.752C415.442 404.548 414.572 404.446 413.708 404.446C412.904 404.446 412.25 404.626 411.746 404.986C411.254 405.334 411.008 405.796 411.008 406.372C411.008 406.936 411.2 407.386 411.584 407.722C411.968 408.046 412.49 408.208 413.15 408.208ZM428.067 399.478H429.057V409H427.797V401.602L421.425 409H420.435V399.478H421.695V406.984L428.067 399.478ZM439.327 399.478H440.623V409H439.327V404.662H433.297V409H432.001V399.478H433.297V403.582H439.327V399.478ZM451.956 404.122C451.956 404.422 451.95 404.62 451.938 404.716H444.342C444.426 405.772 444.744 406.606 445.296 407.218C445.848 407.83 446.586 408.136 447.51 408.136C448.758 408.136 449.784 407.596 450.588 406.516L451.578 407.074C450.63 408.478 449.28 409.18 447.528 409.18C446.16 409.18 445.056 408.73 444.216 407.83C443.376 406.918 442.956 405.718 442.956 404.23C442.956 402.754 443.37 401.566 444.198 400.666C445.026 399.754 446.118 399.298 447.474 399.298C448.818 399.298 449.898 399.742 450.714 400.63C451.542 401.506 451.956 402.67 451.956 404.122ZM449.67 401.278C449.118 400.654 448.386 400.342 447.474 400.342C446.562 400.342 445.824 400.654 445.26 401.278C444.708 401.89 444.402 402.73 444.342 403.798H450.606C450.546 402.73 450.234 401.89 449.67 401.278Z" fill="white"/>
<path d="M37.7767 155.18C35.8687 155.18 34.4227 154.664 33.4387 153.632L33.9967 152.66C34.9327 153.584 36.1627 154.046 37.6867 154.046C38.7427 154.046 39.5827 153.83 40.2067 153.398C40.8307 152.966 41.1427 152.39 41.1427 151.67C41.1427 150.974 40.8547 150.422 40.2787 150.014C39.7027 149.594 38.8387 149.216 37.6867 148.88L36.7867 148.61C35.7067 148.31 34.8607 147.902 34.2487 147.386C33.6367 146.858 33.3307 146.114 33.3307 145.154C33.3307 144.05 33.7447 143.168 34.5727 142.508C35.4127 141.836 36.5227 141.5 37.9027 141.5C39.5827 141.5 40.9627 142.01 42.0427 143.03L41.3947 143.984C40.4347 143.084 39.2587 142.634 37.8667 142.634C36.9307 142.634 36.1807 142.85 35.6167 143.282C35.0527 143.702 34.7707 144.26 34.7707 144.956C34.7707 145.628 35.0047 146.138 35.4727 146.486C35.9407 146.834 36.6067 147.134 37.4707 147.386L38.4067 147.656C38.9707 147.824 39.4627 148.004 39.8827 148.196C40.3027 148.376 40.7347 148.616 41.1787 148.916C41.6347 149.216 41.9827 149.588 42.2227 150.032C42.4627 150.464 42.5827 150.962 42.5827 151.526C42.5827 152.618 42.1387 153.5 41.2507 154.172C40.3747 154.844 39.2167 155.18 37.7767 155.18ZM48.3109 154.064C48.9829 154.064 49.6189 153.95 50.2189 153.722V154.784C49.6069 155.048 48.8389 155.18 47.9149 155.18C47.1469 155.18 46.5229 154.94 46.0429 154.46C45.5749 153.968 45.3409 153.332 45.3409 152.552V146.558H43.6849V145.478H45.3409V142.688H46.6369V145.478H50.0749V146.558H46.6369V152.3C46.6369 152.816 46.7929 153.242 47.1049 153.578C47.4169 153.902 47.8189 154.064 48.3109 154.064ZM60.2038 150.122C60.2038 150.422 60.1978 150.62 60.1858 150.716H52.5898C52.6738 151.772 52.9918 152.606 53.5438 153.218C54.0958 153.83 54.8338 154.136 55.7578 154.136C57.0058 154.136 58.0318 153.596 58.8358 152.516L59.8258 153.074C58.8778 154.478 57.5278 155.18 55.7758 155.18C54.4078 155.18 53.3038 154.73 52.4638 153.83C51.6238 152.918 51.2038 151.718 51.2038 150.23C51.2038 148.754 51.6178 147.566 52.4458 146.666C53.2738 145.754 54.3658 145.298 55.7218 145.298C57.0658 145.298 58.1458 145.742 58.9618 146.63C59.7898 147.506 60.2038 148.67 60.2038 150.122ZM57.9178 147.278C57.3658 146.654 56.6338 146.342 55.7218 146.342C54.8098 146.342 54.0718 146.654 53.5078 147.278C52.9558 147.89 52.6498 148.73 52.5898 149.798H58.8538C58.7938 148.73 58.4818 147.89 57.9178 147.278ZM69.5598 155L65.7078 150.536H63.7818V155H62.4858V140.96H63.7818V149.456H65.7078L69.3618 145.478H70.9998L66.7878 149.978L71.2158 155H69.5598ZM76.5599 155.18C75.0959 155.18 73.9139 154.73 73.0139 153.83C72.1259 152.918 71.6819 151.724 71.6819 150.248C71.6819 148.76 72.1259 147.566 73.0139 146.666C73.9139 145.754 75.0959 145.298 76.5599 145.298C78.0119 145.298 79.1819 145.754 80.0699 146.666C80.9579 147.566 81.4019 148.76 81.4019 150.248C81.4019 151.724 80.9579 152.918 80.0699 153.83C79.1819 154.73 78.0119 155.18 76.5599 155.18ZM76.5599 154.064C77.6039 154.064 78.4439 153.716 79.0799 153.02C79.7159 152.312 80.0339 151.388 80.0339 150.248C80.0339 149.096 79.7159 148.172 79.0799 147.476C78.4439 146.78 77.6039 146.432 76.5599 146.432C75.5039 146.432 74.6519 146.78 74.0039 147.476C73.3679 148.172 73.0499 149.096 73.0499 150.248C73.0499 151.388 73.3679 152.312 74.0039 153.02C74.6519 153.716 75.5039 154.064 76.5599 154.064ZM88.2858 150.32V149.348H93.5598V150.32H88.2858ZM100.439 155V154.118L104.471 149.78C104.483 149.768 104.591 149.654 104.795 149.438C105.011 149.21 105.137 149.072 105.173 149.024C105.221 148.976 105.341 148.844 105.533 148.628C105.725 148.412 105.851 148.262 105.911 148.178C105.983 148.082 106.097 147.932 106.253 147.728C106.421 147.512 106.535 147.344 106.595 147.224C106.655 147.092 106.739 146.924 106.847 146.72C106.955 146.516 107.033 146.336 107.081 146.18C107.129 146.012 107.171 145.832 107.207 145.64C107.243 145.448 107.261 145.262 107.261 145.082C107.261 144.326 107.021 143.732 106.541 143.3C106.073 142.856 105.443 142.634 104.651 142.634C103.847 142.634 103.199 142.88 102.707 143.372C102.215 143.852 101.969 144.488 101.969 145.28L100.565 145.172C100.565 144.068 100.937 143.18 101.681 142.508C102.425 141.836 103.409 141.5 104.633 141.5C105.845 141.5 106.817 141.818 107.549 142.454C108.293 143.078 108.665 143.918 108.665 144.974C108.665 145.49 108.581 145.994 108.413 146.486C108.245 146.966 107.969 147.47 107.585 147.998C107.201 148.526 106.871 148.946 106.595 149.258C106.331 149.57 105.923 150.014 105.371 150.59L102.275 153.884L108.845 153.866V155H100.439ZM114.289 155.18C112.597 155.18 111.313 154.766 110.437 153.938L110.851 152.93C111.643 153.674 112.747 154.046 114.163 154.046C115.231 154.046 116.089 153.77 116.737 153.218C117.397 152.654 117.727 151.91 117.727 150.986C117.727 150.134 117.451 149.444 116.899 148.916C116.347 148.376 115.621 148.106 114.721 148.106C113.857 148.106 113.029 148.286 112.237 148.646L111.301 148.502L112.219 141.68H118.537V142.814H113.425L112.759 147.278C113.467 147.074 114.205 146.972 114.973 146.972C116.209 146.972 117.211 147.338 117.979 148.07C118.759 148.79 119.149 149.738 119.149 150.914C119.149 152.186 118.699 153.218 117.799 154.01C116.899 154.79 115.729 155.18 114.289 155.18ZM123.674 147.458C122.774 147.458 122.048 147.188 121.496 146.648C120.944 146.096 120.668 145.37 120.668 144.47C120.668 143.582 120.944 142.868 121.496 142.328C122.048 141.776 122.774 141.5 123.674 141.5C124.562 141.5 125.276 141.776 125.816 142.328C126.368 142.868 126.644 143.582 126.644 144.47C126.644 145.37 126.368 146.096 125.816 146.648C125.276 147.188 124.562 147.458 123.674 147.458ZM123.458 155.18L122.702 154.712L130.442 141.5L131.198 141.968L123.458 155.18ZM123.674 146.558C124.226 146.558 124.67 146.366 125.006 145.982C125.354 145.598 125.528 145.094 125.528 144.47C125.528 143.846 125.354 143.342 125.006 142.958C124.67 142.574 124.226 142.382 123.674 142.382C123.11 142.382 122.654 142.574 122.306 142.958C121.97 143.33 121.802 143.834 121.802 144.47C121.802 145.106 121.97 145.616 122.306 146C122.654 146.372 123.11 146.558 123.674 146.558ZM130.226 155.18C129.338 155.18 128.618 154.91 128.066 154.37C127.514 153.818 127.238 153.098 127.238 152.21C127.238 151.31 127.514 150.59 128.066 150.05C128.618 149.498 129.338 149.222 130.226 149.222C131.126 149.222 131.846 149.498 132.386 150.05C132.938 150.59 133.214 151.31 133.214 152.21C133.214 153.098 132.938 153.818 132.386 154.37C131.846 154.91 131.126 155.18 130.226 155.18ZM128.876 153.722C129.224 154.106 129.674 154.298 130.226 154.298C130.778 154.298 131.222 154.106 131.558 153.722C131.906 153.338 132.08 152.834 132.08 152.21C132.08 151.586 131.912 151.082 131.576 150.698C131.24 150.314 130.79 150.122 130.226 150.122C129.662 150.122 129.206 150.314 128.858 150.698C128.522 151.082 128.354 151.586 128.354 152.21C128.354 152.834 128.528 153.338 128.876 153.722ZM146.339 150.176C146.975 150.332 147.473 150.608 147.833 151.004C148.205 151.4 148.391 151.88 148.391 152.444C148.391 153.212 148.109 153.83 147.545 154.298C146.993 154.766 146.267 155 145.367 155H140.111V145.478H145.133C145.997 145.478 146.693 145.706 147.221 146.162C147.749 146.618 148.013 147.218 148.013 147.962C148.013 148.49 147.863 148.946 147.563 149.33C147.263 149.714 146.855 149.996 146.339 150.176ZM144.935 146.504H141.407V149.726H144.845C145.397 149.726 145.841 149.576 146.177 149.276C146.525 148.976 146.699 148.58 146.699 148.088C146.699 147.608 146.537 147.224 146.213 146.936C145.889 146.648 145.463 146.504 144.935 146.504ZM145.169 153.992C145.733 153.992 146.189 153.842 146.537 153.542C146.885 153.23 147.059 152.828 147.059 152.336C147.059 151.82 146.879 151.412 146.519 151.112C146.159 150.8 145.679 150.644 145.079 150.644H141.407V153.992H145.169ZM154.94 155.18C153.5 155.18 152.336 154.73 151.448 153.83C150.56 152.918 150.116 151.718 150.116 150.23C150.116 148.754 150.566 147.566 151.466 146.666C152.366 145.754 153.548 145.298 155.012 145.298C156.188 145.298 157.214 145.646 158.09 146.342L157.352 147.242C156.692 146.702 155.912 146.432 155.012 146.432C153.944 146.432 153.086 146.78 152.438 147.476C151.802 148.172 151.484 149.096 151.484 150.248C151.484 151.388 151.808 152.312 152.456 153.02C153.104 153.716 153.962 154.064 155.03 154.064C156.086 154.064 156.95 153.722 157.622 153.038L158.378 153.92C157.502 154.76 156.356 155.18 154.94 155.18ZM168.503 150.122C168.503 150.422 168.497 150.62 168.485 150.716H160.889C160.973 151.772 161.291 152.606 161.843 153.218C162.395 153.83 163.133 154.136 164.057 154.136C165.305 154.136 166.331 153.596 167.135 152.516L168.125 153.074C167.177 154.478 165.827 155.18 164.075 155.18C162.707 155.18 161.603 154.73 160.763 153.83C159.923 152.918 159.503 151.718 159.503 150.23C159.503 148.754 159.917 147.566 160.745 146.666C161.573 145.754 162.665 145.298 164.021 145.298C165.365 145.298 166.445 145.742 167.261 146.63C168.089 147.506 168.503 148.67 168.503 150.122ZM166.217 147.278C165.665 146.654 164.933 146.342 164.021 146.342C163.109 146.342 162.371 146.654 161.807 147.278C161.255 147.89 160.949 148.73 160.889 149.798H167.153C167.093 148.73 166.781 147.89 166.217 147.278ZM178.445 155H176.861L173.765 151.004L170.687 155H169.103L172.973 150.122L169.319 145.478H170.885L173.765 149.24L176.645 145.478H178.211L174.557 150.122L178.445 155ZM47.0902 181.18C45.6262 181.18 44.4442 180.73 43.5442 179.83C42.6562 178.918 42.2122 177.724 42.2122 176.248C42.2122 174.76 42.6562 173.566 43.5442 172.666C44.4442 171.754 45.6262 171.298 47.0902 171.298C48.5422 171.298 49.7122 171.754 50.6002 172.666C51.4882 173.566 51.9322 174.76 51.9322 176.248C51.9322 177.724 51.4882 178.918 50.6002 179.83C49.7122 180.73 48.5422 181.18 47.0902 181.18ZM47.0902 180.064C48.1342 180.064 48.9742 179.716 49.6102 179.02C50.2462 178.312 50.5642 177.388 50.5642 176.248C50.5642 175.096 50.2462 174.172 49.6102 173.476C48.9742 172.78 48.1342 172.432 47.0902 172.432C46.0342 172.432 45.1822 172.78 44.5342 173.476C43.8982 174.172 43.5802 175.096 43.5802 176.248C43.5802 177.388 43.8982 178.312 44.5342 179.02C45.1822 179.716 46.0342 180.064 47.0902 180.064ZM61.3244 181L57.4724 176.536H55.5464V181H54.2504V171.478H55.5464V175.456H57.4724L61.1264 171.478H62.7644L58.5524 175.978L62.9804 181H61.3244ZM68.3246 181.18C66.8606 181.18 65.6786 180.73 64.7786 179.83C63.8906 178.918 63.4466 177.724 63.4466 176.248C63.4466 174.76 63.8906 173.566 64.7786 172.666C65.6786 171.754 66.8606 171.298 68.3246 171.298C69.7766 171.298 70.9466 171.754 71.8346 172.666C72.7226 173.566 73.1666 174.76 73.1666 176.248C73.1666 177.724 72.7226 178.918 71.8346 179.83C70.9466 180.73 69.7766 181.18 68.3246 181.18ZM68.3246 180.064C69.3686 180.064 70.2086 179.716 70.8446 179.02C71.4806 178.312 71.7986 177.388 71.7986 176.248C71.7986 175.096 71.4806 174.172 70.8446 173.476C70.2086 172.78 69.3686 172.432 68.3246 172.432C67.2686 172.432 66.4166 172.78 65.7686 173.476C65.1326 174.172 64.8146 175.096 64.8146 176.248C64.8146 177.388 65.1326 178.312 65.7686 179.02C66.4166 179.716 67.2686 180.064 68.3246 180.064ZM82.8108 171.478H84.1068V181H82.8108V176.662H76.7808V181H75.4848V171.478H76.7808V175.582H82.8108V171.478ZM99.7169 167.68H101.193L95.1269 181H93.6509L95.3069 177.364L90.6449 167.68H92.1029L96.0449 175.942L99.7169 167.68ZM109.067 181L105.215 176.536H103.289V181H101.993V171.478H103.289V175.456H105.215L108.869 171.478H110.507L106.295 175.978L110.723 181H109.067ZM117.352 171.298C118.696 171.298 119.788 171.754 120.628 172.666C121.48 173.566 121.906 174.748 121.906 176.212C121.906 177.7 121.48 178.9 120.628 179.812C119.788 180.724 118.696 181.18 117.352 181.18C115.54 181.18 114.274 180.436 113.554 178.948V184.96H112.258V171.478H113.518L113.554 173.53C114.274 172.042 115.54 171.298 117.352 171.298ZM117.046 180.064C118.102 180.064 118.948 179.716 119.584 179.02C120.232 178.312 120.556 177.382 120.556 176.23C120.556 175.09 120.232 174.172 119.584 173.476C118.948 172.78 118.102 172.432 117.046 172.432C116.002 172.432 115.156 172.78 114.508 173.476C113.872 174.172 113.554 175.096 113.554 176.248C113.554 177.388 113.872 178.312 114.508 179.02C115.156 179.716 116.002 180.064 117.046 180.064ZM127.559 171.298C128.723 171.298 129.653 171.64 130.349 172.324C131.045 172.996 131.393 173.89 131.393 175.006V181H130.133L130.097 179.002C129.773 179.686 129.293 180.22 128.657 180.604C128.033 180.988 127.337 181.18 126.569 181.18C125.633 181.18 124.877 180.928 124.301 180.424C123.725 179.92 123.437 179.248 123.437 178.408C123.437 177.544 123.791 176.848 124.499 176.32C125.219 175.78 126.161 175.51 127.325 175.51C128.273 175.51 129.197 175.618 130.097 175.834V175.168C130.097 174.304 129.839 173.62 129.323 173.116C128.819 172.6 128.129 172.342 127.253 172.342C126.197 172.342 125.327 172.696 124.643 173.404L124.049 172.612C124.949 171.736 126.119 171.298 127.559 171.298ZM126.929 180.208C127.745 180.208 128.477 179.896 129.125 179.272C129.773 178.636 130.097 177.796 130.097 176.752C129.221 176.548 128.351 176.446 127.487 176.446C126.683 176.446 126.029 176.626 125.525 176.986C125.033 177.334 124.787 177.796 124.787 178.372C124.787 178.936 124.979 179.386 125.363 179.722C125.747 180.046 126.269 180.208 126.929 180.208ZM141.845 171.478H142.835V181H141.575V173.602L135.203 181H134.213V171.478H135.473V178.984L141.845 171.478ZM153.106 171.478H154.402V181H153.106V176.662H147.076V181H145.78V171.478H147.076V175.582H153.106V171.478ZM161.864 175.564C162.788 175.564 163.532 175.816 164.096 176.32C164.672 176.812 164.96 177.466 164.96 178.282C164.96 179.086 164.678 179.74 164.114 180.244C163.562 180.748 162.836 181 161.936 181H157.346V171.478H158.642V175.564H161.864ZM166.85 171.478H168.146V181H166.85V171.478ZM161.702 180.01C162.29 180.01 162.758 179.854 163.106 179.542C163.454 179.23 163.628 178.81 163.628 178.282C163.628 177.766 163.442 177.352 163.07 177.04C162.71 176.716 162.23 176.554 161.63 176.554H158.642V180.01H161.702Z" fill="white"/>
<g clip-path="url(#clip2)">
<path d="M106.512 91.7215V91.8715H106.662H126.451C126.907 91.8715 127.271 92.2354 127.271 92.6913C127.271 104.59 117.6 114.28 105.692 114.28C93.7844 114.28 84.1041 104.59 84.1041 92.6913C84.1041 80.7833 93.7844 71.103 105.692 71.103C106.148 71.103 106.512 71.4669 106.512 71.9229V91.7215ZM104.873 72.9123V72.7548L104.715 72.7625C94.1633 73.2758 85.7438 82.021 85.7438 92.6913C85.7438 103.687 94.6963 112.64 105.692 112.64C116.363 112.64 125.098 104.21 125.611 93.6587L125.619 93.5014H125.462H105.692C105.236 93.5014 104.873 93.1375 104.873 92.6816V72.9123Z" fill="#00A54C" stroke="#00A54C" stroke-width="0.3"/>
<path d="M111.626 87.596L127.889 71.3328" stroke="#00A54C" stroke-width="1.7"/>
<path d="M131.989 76.063L120.13 87.909" stroke="#00A54C" stroke-width="1.7"/>
<path d="M134.476 82.3694L128.901 87.9446" stroke="#00A54C" stroke-width="1.7"/>
<path d="M123.169 67.4549L111.063 79.5604" stroke="#00A54C" stroke-width="1.7"/>
<path d="M111.046 70.9754L117.162 64.8687" stroke="#00A54C" stroke-width="1.7"/>
<path d="M110.982 87.9395V64C125.151 64.5506 134.829 75.1558 135.189 87.9395H110.982Z" stroke="#00A54C" stroke-width="1.7"/>
</g>
<g clip-path="url(#clip3)">
<path d="M360.984 80.594L360.51 74.8148C360.479 74.4369 360.168 74.1462 359.795 74.1462H359.077V73.4169C359.077 72.2107 358.112 71.2294 356.925 71.2294C355.737 71.2294 354.772 72.2107 354.772 73.4169V74.1462H354.054C353.686 74.1462 353.377 74.43 353.34 74.8028L352.766 80.6362C352.746 80.8413 352.812 81.0454 352.948 81.1981C353.084 81.3508 353.277 81.4379 353.48 81.4379H360.273C360.274 81.4379 360.274 81.4379 360.275 81.4379C360.671 81.4379 360.993 81.1115 360.993 80.7088C360.993 80.6698 360.99 80.6314 360.984 80.594ZM356.207 73.4169C356.207 73.0148 356.529 72.6878 356.925 72.6878C357.32 72.6878 357.642 73.0148 357.642 73.4169V74.1462H356.207V73.4169ZM354.273 79.9797L354.704 75.6046H359.135L359.493 79.9797H354.273Z" fill="#00A54C"/>
<path d="M380.026 72.8579C380.024 72.8401 380.021 72.8228 380.018 72.8055C380.017 72.7994 380.017 72.7931 380.016 72.7871C380.012 72.7665 380.006 72.7463 380.001 72.7262C380 72.7236 379.999 72.7208 379.999 72.7182C379.992 72.6978 379.985 72.6778 379.977 72.6582C379.977 72.6559 379.976 72.6535 379.975 72.6512C379.967 72.6324 379.959 72.6141 379.949 72.5963C379.948 72.5931 379.946 72.5898 379.945 72.5867C379.936 72.5701 379.926 72.554 379.916 72.5381C379.914 72.5339 379.911 72.5296 379.909 72.5254C379.899 72.5102 379.888 72.4957 379.877 72.4813C379.873 72.477 379.87 72.4723 379.867 72.468C379.852 72.4496 379.836 72.4319 379.82 72.415L374.079 66.5819C374.063 66.565 374.045 66.549 374.027 66.5338C374.022 66.5299 374.017 66.5266 374.013 66.5228C373.999 66.512 373.985 66.5012 373.971 66.4913C373.966 66.4882 373.961 66.4857 373.957 66.4828C373.942 66.473 373.926 66.4632 373.91 66.4546C373.907 66.4527 373.903 66.4512 373.9 66.4493C373.882 66.4403 373.865 66.4316 373.847 66.424C373.844 66.4229 373.842 66.4221 373.839 66.4212C373.82 66.4134 373.801 66.4061 373.781 66.4C373.778 66.3991 373.775 66.3985 373.772 66.3977C373.753 66.392 373.733 66.3866 373.713 66.3826C373.707 66.3813 373.701 66.3808 373.695 66.3797C373.678 66.3767 373.661 66.3737 373.643 66.372C373.62 66.3694 373.596 66.3682 373.572 66.3682H347.739C347.343 66.3682 347.021 66.6946 347.021 67.0973V111.186C347.021 111.589 347.343 111.915 347.739 111.915H364.005C364.401 111.915 364.722 111.589 364.722 111.186C364.722 110.783 364.401 110.457 364.005 110.457H348.457V67.8265H372.854V72.9306C372.854 73.3333 373.175 73.6598 373.572 73.6598H378.595V110.457H374.53C374.133 110.457 373.812 110.783 373.812 111.186C373.812 111.589 374.133 111.915 374.53 111.915H379.312C379.708 111.915 380.03 111.589 380.03 111.186V72.9306C380.03 72.9062 380.029 72.8819 380.026 72.8579ZM374.289 72.2014V68.8578L377.58 72.2014H374.289Z" fill="#00A54C"/>
<path d="M373.572 87.1249H353.48C353.083 87.1249 352.762 87.4514 352.762 87.8541C352.762 88.2568 353.083 88.5833 353.48 88.5833H373.572C373.968 88.5833 374.289 88.2568 374.289 87.8541C374.289 87.4514 373.968 87.1249 373.572 87.1249Z" fill="#00A54C"/>
<path d="M373.572 91.0148H353.48C353.083 91.0148 352.762 91.3412 352.762 91.7439C352.762 92.1466 353.083 92.4731 353.48 92.4731H373.572C373.968 92.4731 374.289 92.1466 374.289 91.7439C374.289 91.3412 373.968 91.0148 373.572 91.0148Z" fill="#00A54C"/>
<path d="M373.572 94.9036H353.48C353.083 94.9036 352.762 95.23 352.762 95.6327C352.762 96.0355 353.083 96.3619 353.48 96.3619H373.572C373.968 96.3619 374.289 96.0355 374.289 95.6327C374.289 95.23 373.968 94.9036 373.572 94.9036Z" fill="#00A54C"/>
<path d="M362.09 98.7925H353.48C353.083 98.7925 352.762 99.119 352.762 99.5217C352.762 99.9244 353.083 100.251 353.48 100.251H362.09C362.487 100.251 362.808 99.9244 362.808 99.5217C362.808 99.119 362.487 98.7925 362.09 98.7925Z" fill="#00A54C"/>
<path d="M374.29 105.841C374.29 103.027 372.037 100.737 369.267 100.737C366.497 100.737 364.244 103.027 364.244 105.841C364.244 107.463 364.993 108.91 366.158 109.846V115.418C366.158 115.426 366.159 115.433 366.159 115.441C366.159 115.456 366.16 115.471 366.161 115.485C366.162 115.496 366.164 115.506 366.165 115.516C366.167 115.53 366.168 115.543 366.171 115.556C366.173 115.567 366.176 115.578 366.178 115.589C366.181 115.601 366.184 115.613 366.188 115.625C366.191 115.637 366.195 115.648 366.199 115.659C366.203 115.67 366.206 115.681 366.211 115.692C366.215 115.704 366.221 115.715 366.226 115.727C366.231 115.737 366.235 115.747 366.24 115.757C366.247 115.769 366.253 115.78 366.26 115.792C366.265 115.801 366.27 115.81 366.276 115.819C366.284 115.831 366.293 115.843 366.301 115.854C366.306 115.861 366.31 115.867 366.315 115.873C366.316 115.875 366.317 115.876 366.318 115.877C366.334 115.897 366.351 115.917 366.369 115.935C366.374 115.94 366.38 115.944 366.385 115.949C366.398 115.962 366.412 115.974 366.426 115.986C366.434 115.993 366.443 115.999 366.452 116.005C366.463 116.014 366.475 116.023 366.487 116.031C366.496 116.037 366.506 116.042 366.515 116.048C366.528 116.055 366.541 116.062 366.554 116.069C366.563 116.074 366.572 116.078 366.581 116.083C366.596 116.089 366.611 116.095 366.626 116.101C366.634 116.104 366.642 116.107 366.651 116.11C366.668 116.116 366.685 116.121 366.703 116.125C366.71 116.127 366.717 116.129 366.724 116.13C366.743 116.135 366.763 116.138 366.782 116.14C366.788 116.141 366.793 116.142 366.799 116.143C366.822 116.145 366.846 116.147 366.87 116.147C366.872 116.147 366.874 116.147 366.876 116.147C366.877 116.147 366.877 116.147 366.878 116.147C366.913 116.147 366.947 116.143 366.981 116.138C366.988 116.137 366.995 116.136 367.002 116.135C367.037 116.129 367.07 116.12 367.102 116.109C367.108 116.107 367.114 116.105 367.12 116.103C367.154 116.09 367.187 116.076 367.219 116.058C367.22 116.057 367.221 116.057 367.223 116.056C367.256 116.037 367.287 116.015 367.317 115.992C367.319 115.99 367.322 115.989 367.324 115.987L369.268 114.407L371.211 115.987C371.213 115.989 371.215 115.99 371.217 115.992C371.247 116.015 371.279 116.037 371.313 116.056C371.314 116.057 371.315 116.057 371.316 116.058C371.347 116.076 371.381 116.09 371.415 116.103C371.421 116.105 371.427 116.107 371.433 116.109C371.465 116.12 371.498 116.129 371.532 116.135C371.54 116.136 371.547 116.137 371.554 116.138C371.588 116.143 371.622 116.147 371.657 116.147C371.658 116.147 371.658 116.147 371.659 116.147C371.661 116.147 371.663 116.147 371.664 116.147C371.688 116.147 371.712 116.145 371.736 116.143C371.741 116.142 371.747 116.141 371.752 116.14C371.772 116.138 371.792 116.135 371.811 116.13C371.818 116.129 371.825 116.127 371.832 116.125C371.849 116.121 371.867 116.116 371.884 116.11C371.892 116.107 371.9 116.104 371.908 116.101C371.924 116.095 371.939 116.089 371.953 116.083C371.963 116.078 371.971 116.074 371.98 116.069C371.994 116.062 372.007 116.055 372.02 116.048C372.029 116.042 372.038 116.037 372.048 116.031C372.06 116.023 372.072 116.014 372.083 116.005C372.092 115.999 372.101 115.993 372.109 115.986C372.123 115.974 372.137 115.962 372.15 115.949C372.155 115.944 372.16 115.94 372.166 115.935C372.184 115.916 372.201 115.897 372.217 115.877C372.218 115.876 372.219 115.875 372.22 115.873C372.225 115.867 372.229 115.861 372.233 115.854C372.242 115.843 372.251 115.831 372.259 115.819C372.264 115.81 372.269 115.801 372.275 115.792C372.282 115.78 372.288 115.769 372.295 115.757C372.3 115.747 372.304 115.737 372.309 115.727C372.314 115.715 372.319 115.704 372.324 115.692C372.329 115.681 372.332 115.67 372.336 115.659C372.34 115.648 372.344 115.637 372.347 115.625C372.351 115.613 372.354 115.601 372.356 115.589C372.359 115.578 372.362 115.567 372.364 115.556C372.366 115.543 372.368 115.529 372.37 115.516C372.371 115.506 372.373 115.496 372.374 115.485C372.375 115.47 372.376 115.456 372.376 115.441C372.376 115.433 372.377 115.426 372.377 115.418L372.377 109.846C373.541 108.91 374.29 107.463 374.29 105.841ZM369.726 112.913C369.726 112.912 369.726 112.912 369.726 112.912L369.716 112.904C369.71 112.9 369.705 112.896 369.7 112.892C369.687 112.882 369.674 112.873 369.661 112.864C369.653 112.859 369.645 112.854 369.637 112.849C369.625 112.842 369.613 112.835 369.601 112.828C369.591 112.823 369.581 112.818 369.571 112.813C369.56 112.808 369.549 112.803 369.538 112.798C369.526 112.794 369.514 112.79 369.503 112.785C369.493 112.782 369.483 112.778 369.473 112.775C369.461 112.771 369.448 112.768 369.435 112.765C369.425 112.763 369.416 112.76 369.406 112.758C369.393 112.756 369.381 112.754 369.368 112.752C369.358 112.751 369.347 112.749 369.336 112.748C369.325 112.747 369.314 112.746 369.302 112.746C369.29 112.745 369.278 112.745 369.266 112.745C369.256 112.745 369.246 112.745 369.236 112.746C369.223 112.746 369.21 112.747 369.196 112.748C369.187 112.749 369.179 112.751 369.17 112.752C369.156 112.754 369.142 112.756 369.128 112.759C369.119 112.76 369.111 112.762 369.103 112.764C369.088 112.768 369.075 112.771 369.061 112.776C369.052 112.778 369.043 112.781 369.034 112.784C369.022 112.789 369.009 112.794 368.996 112.799C368.986 112.803 368.976 112.808 368.966 112.813C368.955 112.818 368.944 112.823 368.934 112.828C368.922 112.835 368.91 112.842 368.898 112.849C368.89 112.854 368.882 112.859 368.873 112.864C368.86 112.873 368.848 112.883 368.835 112.893C368.829 112.897 368.824 112.9 368.819 112.904L368.809 112.912C368.809 112.913 368.809 112.913 368.808 112.913L367.593 113.901V110.653C368.117 110.842 368.68 110.946 369.267 110.946C369.854 110.946 370.417 110.842 370.941 110.653L370.942 113.901L369.726 112.913ZM369.267 109.487C367.289 109.487 365.679 107.852 365.679 105.841C365.679 103.831 367.289 102.196 369.267 102.196C371.246 102.196 372.855 103.831 372.855 105.841C372.855 107.852 371.246 109.487 369.267 109.487Z" fill="#00A54C"/>
<path d="M369.267 103.654C368.08 103.654 367.114 104.635 367.114 105.841C367.114 107.048 368.08 108.029 369.267 108.029C370.454 108.029 371.42 107.048 371.42 105.841C371.42 104.635 370.454 103.654 369.267 103.654ZM369.267 106.57C368.871 106.57 368.55 106.243 368.55 105.841C368.55 105.439 368.871 105.112 369.267 105.112C369.663 105.112 369.985 105.439 369.985 105.841C369.985 106.243 369.663 106.57 369.267 106.57Z" fill="#00A54C"/>
</g>
<path d="M319.319 142.68V143.814H313.379V156H312.011V142.68H319.319ZM322.153 146.298C323.317 146.298 324.247 146.64 324.943 147.324C325.639 147.996 325.987 148.89 325.987 150.006V156H324.727L324.691 154.002C324.367 154.686 323.887 155.22 323.251 155.604C322.627 155.988 321.931 156.18 321.163 156.18C320.227 156.18 319.471 155.928 318.895 155.424C318.319 154.92 318.031 154.248 318.031 153.408C318.031 152.544 318.385 151.848 319.093 151.32C319.813 150.78 320.755 150.51 321.919 150.51C322.867 150.51 323.791 150.618 324.691 150.834V150.168C324.691 149.304 324.433 148.62 323.917 148.116C323.413 147.6 322.723 147.342 321.847 147.342C320.791 147.342 319.921 147.696 319.237 148.404L318.643 147.612C319.543 146.736 320.713 146.298 322.153 146.298ZM321.523 155.208C322.339 155.208 323.071 154.896 323.719 154.272C324.367 153.636 324.691 152.796 324.691 151.752C323.815 151.548 322.945 151.446 322.081 151.446C321.277 151.446 320.623 151.626 320.119 151.986C319.627 152.334 319.381 152.796 319.381 153.372C319.381 153.936 319.573 154.386 319.957 154.722C320.341 155.046 320.863 155.208 321.523 155.208ZM333.902 146.298C335.246 146.298 336.338 146.754 337.178 147.666C338.03 148.566 338.456 149.748 338.456 151.212C338.456 152.7 338.03 153.9 337.178 154.812C336.338 155.724 335.246 156.18 333.902 156.18C332.09 156.18 330.824 155.436 330.104 153.948V159.96H328.808V146.478H330.068L330.104 148.53C330.824 147.042 332.09 146.298 333.902 146.298ZM333.596 155.064C334.652 155.064 335.498 154.716 336.134 154.02C336.782 153.312 337.106 152.382 337.106 151.23C337.106 150.09 336.782 149.172 336.134 148.476C335.498 147.78 334.652 147.432 333.596 147.432C332.552 147.432 331.706 147.78 331.058 148.476C330.422 149.172 330.104 150.096 330.104 151.248C330.104 152.388 330.422 153.312 331.058 154.02C331.706 154.716 332.552 155.064 333.596 155.064ZM344.108 146.298C345.272 146.298 346.202 146.64 346.898 147.324C347.594 147.996 347.942 148.89 347.942 150.006V156H346.682L346.646 154.002C346.322 154.686 345.842 155.22 345.206 155.604C344.582 155.988 343.886 156.18 343.118 156.18C342.182 156.18 341.426 155.928 340.85 155.424C340.274 154.92 339.986 154.248 339.986 153.408C339.986 152.544 340.34 151.848 341.048 151.32C341.768 150.78 342.71 150.51 343.874 150.51C344.822 150.51 345.746 150.618 346.646 150.834V150.168C346.646 149.304 346.388 148.62 345.872 148.116C345.368 147.6 344.678 147.342 343.802 147.342C342.746 147.342 341.876 147.696 341.192 148.404L340.598 147.612C341.498 146.736 342.668 146.298 344.108 146.298ZM343.478 155.208C344.294 155.208 345.026 154.896 345.674 154.272C346.322 153.636 346.646 152.796 346.646 151.752C345.77 151.548 344.9 151.446 344.036 151.446C343.232 151.446 342.578 151.626 342.074 151.986C341.582 152.334 341.336 152.796 341.336 153.372C341.336 153.936 341.528 154.386 341.912 154.722C342.296 155.046 342.818 155.208 343.478 155.208ZM358.089 146.478H359.385V156H358.089V151.662H352.059V156H350.763V146.478H352.059V150.582H358.089V146.478ZM370.052 146.478V147.558H366.236V156H364.94V147.558H361.106V146.478H370.052ZM378.979 146.478H379.969V156H378.709V148.602L372.337 156H371.347V146.478H372.607V153.984L378.979 146.478ZM390.024 146.478V156H388.728V152.292H386.226L383.4 156H381.888L384.912 152.184C384.192 152.016 383.622 151.686 383.202 151.194C382.794 150.702 382.59 150.096 382.59 149.376C382.59 148.512 382.884 147.816 383.472 147.288C384.06 146.748 384.828 146.478 385.776 146.478H390.024ZM386.063 151.266H388.728V147.504H385.992C385.356 147.504 384.846 147.678 384.462 148.026C384.09 148.362 383.904 148.812 383.904 149.376C383.904 149.952 384.102 150.414 384.498 150.762C384.894 151.098 385.416 151.266 386.063 151.266ZM405.04 146.478H406.336V156H405.04V151.662H399.01V156H397.714V146.478H399.01V150.582H405.04V146.478ZM412.593 146.298C413.757 146.298 414.687 146.64 415.383 147.324C416.079 147.996 416.427 148.89 416.427 150.006V156H415.167L415.131 154.002C414.807 154.686 414.327 155.22 413.691 155.604C413.067 155.988 412.371 156.18 411.603 156.18C410.667 156.18 409.911 155.928 409.335 155.424C408.759 154.92 408.471 154.248 408.471 153.408C408.471 152.544 408.825 151.848 409.533 151.32C410.253 150.78 411.195 150.51 412.359 150.51C413.307 150.51 414.231 150.618 415.131 150.834V150.168C415.131 149.304 414.873 148.62 414.357 148.116C413.853 147.6 413.163 147.342 412.287 147.342C411.231 147.342 410.361 147.696 409.677 148.404L409.083 147.612C409.983 146.736 411.153 146.298 412.593 146.298ZM411.963 155.208C412.779 155.208 413.511 154.896 414.159 154.272C414.807 153.636 415.131 152.796 415.131 151.752C414.255 151.548 413.385 151.446 412.521 151.446C411.717 151.446 411.063 151.626 410.559 151.986C410.067 152.334 409.821 152.796 409.821 153.372C409.821 153.936 410.013 154.386 410.397 154.722C410.781 155.046 411.303 155.208 411.963 155.208ZM283.43 172.478H292.052V182H290.756V173.558H284.726V182H283.43V172.478ZM300.091 172.298C301.435 172.298 302.527 172.754 303.367 173.666C304.219 174.566 304.645 175.748 304.645 177.212C304.645 178.7 304.219 179.9 303.367 180.812C302.527 181.724 301.435 182.18 300.091 182.18C298.279 182.18 297.013 181.436 296.293 179.948V185.96H294.997V172.478H296.257L296.293 174.53C297.013 173.042 298.279 172.298 300.091 172.298ZM299.785 181.064C300.841 181.064 301.687 180.716 302.323 180.02C302.971 179.312 303.295 178.382 303.295 177.23C303.295 176.09 302.971 175.172 302.323 174.476C301.687 173.78 300.841 173.432 299.785 173.432C298.741 173.432 297.895 173.78 297.247 174.476C296.611 175.172 296.293 176.096 296.293 177.248C296.293 178.388 296.611 179.312 297.247 180.02C297.895 180.716 298.741 181.064 299.785 181.064ZM311.233 182.18C309.769 182.18 308.587 181.73 307.687 180.83C306.799 179.918 306.355 178.724 306.355 177.248C306.355 175.76 306.799 174.566 307.687 173.666C308.587 172.754 309.769 172.298 311.233 172.298C312.685 172.298 313.855 172.754 314.743 173.666C315.631 174.566 316.075 175.76 316.075 177.248C316.075 178.724 315.631 179.918 314.743 180.83C313.855 181.73 312.685 182.18 311.233 182.18ZM311.233 181.064C312.277 181.064 313.117 180.716 313.753 180.02C314.389 179.312 314.707 178.388 314.707 177.248C314.707 176.096 314.389 175.172 313.753 174.476C313.117 173.78 312.277 173.432 311.233 173.432C310.177 173.432 309.325 173.78 308.677 174.476C308.041 175.172 307.723 176.096 307.723 177.248C307.723 178.388 308.041 179.312 308.677 180.02C309.325 180.716 310.177 181.064 311.233 181.064ZM326.317 180.92H327.343V183.8H326.047V182H318.595V183.8H317.299V180.92H317.695C318.007 180.92 318.265 180.812 318.469 180.596C318.685 180.368 318.799 180.074 318.811 179.714L319.243 172.478H326.317V180.92ZM319.621 180.92H325.021V173.558H320.485L320.071 179.768C320.059 180.212 319.909 180.596 319.621 180.92ZM330.349 186.14C329.893 186.14 329.509 186.068 329.197 185.924L329.341 184.862C329.557 184.97 329.827 185.024 330.151 185.024C330.523 185.024 330.817 184.916 331.033 184.7C331.249 184.484 331.465 184.142 331.681 183.674L332.527 181.874L328.261 172.478H329.683L333.211 180.452L336.631 172.478H338.053L332.959 183.854C332.623 184.634 332.269 185.21 331.897 185.582C331.525 185.954 331.009 186.14 330.349 186.14ZM346.789 182L342.937 177.536H341.011V182H339.715V172.478H341.011V176.456H342.937L346.591 172.478H348.229L344.017 176.978L348.445 182H346.789ZM358.387 180.92H359.413V183.8H358.117V182H349.981V172.478H351.277V180.92H357.091V172.478H358.387V180.92ZM369.39 172.478H370.38V182H369.12V174.602L362.748 182H361.758V172.478H363.018V179.984L369.39 172.478ZM381.839 172.298C383.291 172.298 384.461 172.754 385.349 173.666C386.237 174.566 386.681 175.76 386.681 177.248C386.681 178.724 386.237 179.918 385.349 180.83C384.461 181.73 383.291 182.18 381.839 182.18C380.459 182.18 379.325 181.766 378.437 180.938C377.549 180.11 377.063 179.018 376.979 177.662H374.621V182H373.325V172.478H374.621V176.582H376.997C377.129 175.286 377.633 174.248 378.509 173.468C379.385 172.688 380.495 172.298 381.839 172.298ZM381.839 181.064C382.883 181.064 383.723 180.716 384.359 180.02C384.995 179.312 385.313 178.388 385.313 177.248C385.313 176.096 384.995 175.172 384.359 174.476C383.723 173.78 382.883 173.432 381.839 173.432C380.783 173.432 379.931 173.78 379.283 174.476C378.647 175.172 378.329 176.096 378.329 177.248C378.329 178.388 378.647 179.312 379.283 180.02C379.931 180.716 380.783 181.064 381.839 181.064ZM396.558 182V170.48L393.228 172.892L392.526 171.884L396.864 168.68H397.926V182H396.558ZM408.89 180.308C408.026 181.556 406.886 182.18 405.47 182.18C404.054 182.18 402.914 181.556 402.05 180.308C401.198 179.048 400.772 177.392 400.772 175.34C400.772 173.288 401.198 171.638 402.05 170.39C402.914 169.13 404.054 168.5 405.47 168.5C406.886 168.5 408.026 169.13 408.89 170.39C409.754 171.638 410.186 173.288 410.186 175.34C410.186 177.392 409.754 179.048 408.89 180.308ZM403.076 179.48C403.688 180.524 404.486 181.046 405.47 181.046C406.454 181.046 407.246 180.524 407.846 179.48C408.458 178.436 408.764 177.056 408.764 175.34C408.764 173.624 408.458 172.244 407.846 171.2C407.246 170.156 406.454 169.634 405.47 169.634C404.486 169.634 403.688 170.156 403.076 171.2C402.476 172.244 402.176 173.624 402.176 175.34C402.176 177.056 402.476 178.436 403.076 179.48ZM418.184 172.478H425.276V182H423.98V173.558H419.426L419.03 179.858C418.982 180.554 418.736 181.118 418.292 181.55C417.86 181.97 417.308 182.18 416.636 182.18V181.046C416.948 181.046 417.206 180.926 417.41 180.686C417.626 180.446 417.746 180.122 417.77 179.714L418.184 172.478ZM436.609 177.122C436.609 177.422 436.603 177.62 436.591 177.716H428.995C429.079 178.772 429.397 179.606 429.949 180.218C430.501 180.83 431.239 181.136 432.163 181.136C433.411 181.136 434.437 180.596 435.241 179.516L436.231 180.074C435.283 181.478 433.933 182.18 432.181 182.18C430.813 182.18 429.709 181.73 428.869 180.83C428.029 179.918 427.609 178.718 427.609 177.23C427.609 175.754 428.023 174.566 428.851 173.666C429.679 172.754 430.771 172.298 432.127 172.298C433.471 172.298 434.551 172.742 435.367 173.63C436.195 174.506 436.609 175.67 436.609 177.122ZM434.323 174.278C433.771 173.654 433.039 173.342 432.127 173.342C431.215 173.342 430.477 173.654 429.913 174.278C429.361 174.89 429.055 175.73 428.995 176.798H435.259C435.199 175.73 434.887 174.89 434.323 174.278ZM446.191 172.478V173.558H442.375V182H441.079V173.558H437.245V172.478H446.191Z" fill="white"/>
<defs>
<clipPath id="clip0">
<rect width="50.569" height="49.7789" fill="white" transform="translate(82.7689 295.404)"/>
</clipPath>
<clipPath id="clip1">
<rect width="50.569" height="49.7789" fill="white" transform="translate(338.241 296.194)"/>
</clipPath>
<clipPath id="clip2">
<rect width="53" height="54" fill="white" transform="translate(83.9824 61)"/>
</clipPath>
<clipPath id="clip3">
<rect width="48.9887" height="49.7789" fill="white" transform="translate(339.031 66.3682)"/>
</clipPath>
</defs>
</svg>
