<svg width="476" height="476" viewBox="0 0 476 476" fill="none" xmlns="http://www.w3.org/2000/svg">
<path opacity="0.1" d="M237.982 0L237.982 177.362" stroke="white"/>
<path opacity="0.1" d="M237.982 298.638L237.982 476" stroke="white"/>
<path opacity="0.1" d="M476 238L298.638 238" stroke="white"/>
<path opacity="0.1" d="M177.362 238L-8.85379e-05 238" stroke="white"/>
<g clip-path="url(#clip0)">
<path d="M123.708 313.733H120.524L121.483 302.892C121.485 302.872 121.486 302.853 121.486 302.834C121.486 302.832 121.486 302.83 121.486 302.829C121.486 302.828 121.486 302.828 121.486 302.828C121.486 302.533 121.305 302.273 121.039 302.16C121.037 302.159 121.035 302.158 121.033 302.157C121.016 302.15 120.999 302.144 120.982 302.138C120.975 302.136 120.969 302.134 120.963 302.132C120.949 302.128 120.934 302.124 120.92 302.121C120.91 302.119 120.9 302.116 120.89 302.114C120.878 302.111 120.864 302.11 120.852 302.108C120.84 302.106 120.828 302.104 120.816 302.103C120.814 302.103 120.812 302.103 120.81 302.102C120.797 302.101 120.784 302.101 120.771 302.101C120.762 302.101 120.754 302.1 120.745 302.1H120.736C120.735 302.1 120.734 302.1 120.733 302.1H105.585C105.176 302.1 104.844 302.426 104.844 302.829C104.844 303.23 105.176 303.558 105.585 303.558H119.937L118.463 320.22C118.463 320.221 118.463 320.222 118.463 320.224L118.091 324.428H92.3511L92.7816 320.053H97.6826C98.0918 320.053 98.4233 319.726 98.4233 319.324C98.4233 318.921 98.0918 318.594 97.6826 318.594H92.9252L93.8343 309.359H101.634C102.044 309.359 102.375 309.032 102.375 308.629C102.375 308.227 102.044 307.9 101.634 307.9H93.9779L94.4053 303.558H105.715C106.123 303.558 106.455 303.23 106.455 302.829C106.455 302.426 106.123 302.1 105.715 302.1H93.733C93.7326 302.1 93.7323 302.1 93.7319 302.1C93.384 302.1 93.0822 302.341 93.0092 302.675C93.0087 302.677 93.0078 302.68 93.0073 302.682C93.0035 302.7 93.0011 302.719 92.9986 302.738C92.9979 302.744 92.9966 302.749 92.996 302.755C92.9959 302.756 92.9956 302.757 92.9955 302.759L92.4894 307.9H83.5096C83.1004 307.9 82.7688 308.227 82.7688 308.629C82.7688 309.032 83.1004 309.359 83.5096 309.359H92.3458L91.4368 318.594H88.7938C88.3846 318.594 88.0531 318.921 88.0531 319.324C88.0531 319.726 88.3846 320.053 88.7938 320.053H91.2933L90.7982 325.081C90.7981 325.082 90.7981 325.083 90.798 325.084L90.0327 332.86C90.0326 332.86 90.0325 332.861 90.0324 332.862L90.0321 332.865C90.0311 332.875 90.0312 332.885 90.0306 332.895C90.0299 332.909 90.0285 332.922 90.0285 332.935C90.0285 332.936 90.0286 332.936 90.0286 332.937C90.0286 332.956 90.03 332.974 90.0314 332.993C90.032 332.999 90.0318 333.005 90.0325 333.011C90.0345 333.03 90.0377 333.048 90.0412 333.067C90.0422 333.072 90.0427 333.078 90.0438 333.083C90.0466 333.097 90.0507 333.11 90.0544 333.124C90.057 333.134 90.0591 333.144 90.062 333.153C90.0629 333.156 90.0641 333.158 90.0649 333.161C90.1007 333.269 90.1616 333.367 90.241 333.446C90.2425 333.448 90.2437 333.449 90.2451 333.451C90.253 333.459 90.2616 333.466 90.2699 333.473C90.321 333.519 90.3787 333.558 90.4418 333.589C90.4549 333.595 90.4679 333.602 90.4813 333.607C90.4853 333.609 90.4897 333.61 90.4938 333.612C90.5124 333.619 90.5311 333.626 90.5503 333.632C90.5521 333.633 90.5538 333.633 90.5556 333.633C90.5775 333.64 90.5996 333.646 90.6222 333.65C90.6252 333.651 90.6283 333.651 90.6311 333.651C90.6527 333.655 90.6743 333.659 90.6963 333.661C90.6968 333.661 90.6972 333.661 90.6977 333.661C90.722 333.664 90.7461 333.665 90.77 333.665C90.7703 333.665 90.7707 333.665 90.7711 333.665H94.0687C94.4329 336.382 96.7999 338.487 99.6587 338.487C102.517 338.487 104.884 336.382 105.248 333.665H117.13C117.494 336.382 119.861 338.487 122.72 338.487C125.579 338.487 127.946 336.382 128.31 333.665H131.609C131.609 333.665 131.61 333.665 131.61 333.665C131.635 333.665 131.659 333.663 131.683 333.661C131.688 333.661 131.692 333.66 131.696 333.659C131.715 333.657 131.735 333.654 131.753 333.651C131.761 333.649 131.769 333.647 131.777 333.645C131.792 333.642 131.806 333.638 131.821 333.634C131.83 333.631 131.84 333.628 131.849 333.625C131.861 333.621 131.873 333.616 131.885 333.612C131.896 333.608 131.905 333.603 131.915 333.599C131.926 333.594 131.937 333.589 131.948 333.584C131.958 333.578 131.967 333.573 131.977 333.568C131.987 333.562 131.997 333.556 132.007 333.55C132.017 333.544 132.026 333.538 132.035 333.532C132.045 333.525 132.054 333.517 132.064 333.51C132.072 333.504 132.08 333.498 132.088 333.491C132.099 333.482 132.108 333.474 132.118 333.465C132.125 333.458 132.132 333.452 132.138 333.445C132.148 333.435 132.158 333.424 132.168 333.413C132.173 333.407 132.179 333.402 132.184 333.396C132.194 333.382 132.204 333.369 132.214 333.355C132.218 333.35 132.221 333.346 132.225 333.341C132.237 333.323 132.248 333.305 132.258 333.286C132.259 333.285 132.26 333.284 132.261 333.282C132.272 333.262 132.282 333.242 132.291 333.22C132.294 333.214 132.296 333.208 132.298 333.202C132.304 333.187 132.31 333.171 132.315 333.156C132.318 333.146 132.321 333.135 132.324 333.125C132.327 333.113 132.33 333.101 132.333 333.089C132.336 333.078 132.337 333.066 132.339 333.055C132.341 333.045 132.343 333.036 132.344 333.026C132.376 332.778 132.956 328.197 133.215 325.235C133.215 325.232 133.215 325.229 133.215 325.226C133.29 324.372 133.338 323.653 133.338 323.213C133.338 317.986 129.018 313.733 123.708 313.733ZM120.395 315.192H123.426L123.039 319.567H120.008L120.395 315.192ZM99.6589 337.029C97.3658 337.029 95.5003 335.192 95.5003 332.935C95.5003 330.678 97.3659 328.842 99.6589 328.842C101.952 328.842 103.817 330.678 103.817 332.935C103.817 335.192 101.952 337.029 99.6589 337.029ZM122.72 337.029C120.427 337.029 118.562 335.192 118.562 332.935C118.562 330.678 120.427 328.842 122.72 328.842C125.013 328.842 126.879 330.678 126.879 332.935C126.879 335.192 125.013 337.029 122.72 337.029ZM130.954 332.206H128.31C127.946 329.488 125.579 327.383 122.72 327.383C119.862 327.383 117.494 329.488 117.13 332.206H105.249C104.885 329.488 102.518 327.383 99.6589 327.383C96.8001 327.383 94.4329 329.488 94.0688 332.206H91.5854L92.2076 325.886H118.77V325.886C118.77 325.886 118.77 325.886 118.771 325.886C118.796 325.886 118.82 325.885 118.844 325.882C118.849 325.882 118.853 325.881 118.858 325.88C118.877 325.878 118.897 325.875 118.916 325.872C118.924 325.87 118.932 325.868 118.94 325.866C118.955 325.862 118.97 325.859 118.984 325.855C118.994 325.852 119.003 325.848 119.013 325.845C119.025 325.841 119.038 325.837 119.05 325.832C119.06 325.828 119.07 325.823 119.08 325.818C119.091 325.813 119.102 325.808 119.113 325.803C119.123 325.798 119.133 325.792 119.143 325.786C119.153 325.78 119.163 325.775 119.173 325.768C119.182 325.762 119.191 325.756 119.201 325.749C119.21 325.743 119.22 325.736 119.229 325.728C119.238 325.722 119.246 325.715 119.254 325.708C119.264 325.7 119.273 325.691 119.282 325.683C119.289 325.676 119.297 325.669 119.304 325.661C119.313 325.652 119.322 325.642 119.33 325.633C119.337 325.625 119.343 325.618 119.35 325.61C119.358 325.6 119.366 325.589 119.373 325.579C119.379 325.571 119.385 325.563 119.39 325.554C119.398 325.544 119.405 325.532 119.411 325.521C119.416 325.512 119.421 325.504 119.426 325.495C119.432 325.483 119.437 325.472 119.443 325.46C119.447 325.451 119.452 325.441 119.456 325.432C119.461 325.42 119.465 325.408 119.469 325.397C119.473 325.386 119.476 325.376 119.48 325.365C119.483 325.354 119.486 325.342 119.489 325.331C119.491 325.319 119.495 325.308 119.497 325.296C119.499 325.285 119.501 325.273 119.502 325.261C119.504 325.249 119.506 325.237 119.507 325.225C119.508 325.223 119.508 325.222 119.508 325.22L119.879 321.025H123.708C125.977 321.025 127.001 322.182 128.085 323.408C128.979 324.419 129.977 325.547 131.674 325.823C131.458 328.066 131.11 330.945 130.954 332.206ZM131.8 324.361C130.7 324.14 130.022 323.379 129.202 322.451C128.176 321.29 126.923 319.874 124.522 319.61L124.905 315.279C128.832 315.851 131.856 319.19 131.856 323.213C131.856 323.486 131.836 323.883 131.8 324.361Z" fill="white"/>
<path d="M99.659 330.261C98.1614 330.261 96.9429 331.461 96.9429 332.935C96.9429 334.409 98.1614 335.609 99.659 335.609C101.157 335.609 102.375 334.409 102.375 332.935C102.375 331.461 101.157 330.261 99.659 330.261ZM99.659 334.15C98.9782 334.15 98.4244 333.605 98.4244 332.935C98.4244 332.265 98.9782 331.72 99.659 331.72C100.34 331.72 100.894 332.265 100.894 332.935C100.894 333.605 100.34 334.15 99.659 334.15Z" fill="white"/>
<path d="M122.72 330.261C121.222 330.261 120.004 331.461 120.004 332.935C120.004 334.409 121.222 335.609 122.72 335.609C124.218 335.609 125.436 334.409 125.436 332.935C125.436 331.461 124.218 330.261 122.72 330.261ZM122.72 334.15C122.039 334.15 121.485 333.605 121.485 332.935C121.485 332.265 122.039 331.72 122.72 331.72C123.401 331.72 123.955 332.265 123.955 332.935C123.955 333.605 123.401 334.15 122.72 334.15Z" fill="white"/>
<path d="M89.7814 313.734H86.1599C85.7508 313.734 85.4192 314.06 85.4192 314.463C85.4192 314.865 85.7508 315.192 86.1599 315.192H89.7814C90.1906 315.192 90.5221 314.865 90.5221 314.463C90.5221 314.06 90.1906 313.734 89.7814 313.734Z" fill="white"/>
</g>
<path d="M74.1828 379.866V382.8H72.8148V381H63.0948V382.8H61.7448V379.866H62.1048C62.4768 379.866 62.7828 379.722 63.0228 379.434C63.2628 379.146 63.3948 378.774 63.4188 378.318L64.0848 367.68H73.0668V379.866H74.1828ZM64.0848 379.866H71.6988V368.814H65.3808L64.7868 378.246C64.7508 378.894 64.5168 379.434 64.0848 379.866ZM81.0248 381.18C79.5608 381.18 78.3788 380.73 77.4788 379.83C76.5908 378.918 76.1468 377.724 76.1468 376.248C76.1468 374.76 76.5908 373.566 77.4788 372.666C78.3788 371.754 79.5608 371.298 81.0248 371.298C82.4768 371.298 83.6468 371.754 84.5348 372.666C85.4228 373.566 85.8668 374.76 85.8668 376.248C85.8668 377.724 85.4228 378.918 84.5348 379.83C83.6468 380.73 82.4768 381.18 81.0248 381.18ZM81.0248 380.064C82.0688 380.064 82.9088 379.716 83.5448 379.02C84.1808 378.312 84.4988 377.388 84.4988 376.248C84.4988 375.096 84.1808 374.172 83.5448 373.476C82.9088 372.78 82.0688 372.432 81.0248 372.432C79.9688 372.432 79.1168 372.78 78.4688 373.476C77.8328 374.172 77.5148 375.096 77.5148 376.248C77.5148 377.388 77.8328 378.312 78.4688 379.02C79.1168 379.716 79.9688 380.064 81.0248 380.064ZM92.379 381.18C90.939 381.18 89.775 380.73 88.887 379.83C87.999 378.918 87.555 377.718 87.555 376.23C87.555 374.754 88.005 373.566 88.905 372.666C89.805 371.754 90.987 371.298 92.451 371.298C93.627 371.298 94.653 371.646 95.529 372.342L94.791 373.242C94.131 372.702 93.351 372.432 92.451 372.432C91.383 372.432 90.525 372.78 89.877 373.476C89.241 374.172 88.923 375.096 88.923 376.248C88.923 377.388 89.247 378.312 89.895 379.02C90.543 379.716 91.401 380.064 92.469 380.064C93.525 380.064 94.389 379.722 95.061 379.038L95.817 379.92C94.941 380.76 93.795 381.18 92.379 381.18ZM105.557 371.478V372.558H101.741V381H100.445V372.558H96.6114V371.478H105.557ZM109.972 371.298C111.136 371.298 112.066 371.64 112.762 372.324C113.458 372.996 113.806 373.89 113.806 375.006V381H112.546L112.51 379.002C112.186 379.686 111.706 380.22 111.07 380.604C110.446 380.988 109.75 381.18 108.982 381.18C108.046 381.18 107.29 380.928 106.714 380.424C106.138 379.92 105.85 379.248 105.85 378.408C105.85 377.544 106.204 376.848 106.912 376.32C107.632 375.78 108.574 375.51 109.738 375.51C110.686 375.51 111.61 375.618 112.51 375.834V375.168C112.51 374.304 112.252 373.62 111.736 373.116C111.232 372.6 110.542 372.342 109.666 372.342C108.61 372.342 107.74 372.696 107.056 373.404L106.462 372.612C107.362 371.736 108.532 371.298 109.972 371.298ZM109.342 380.208C110.158 380.208 110.89 379.896 111.538 379.272C112.186 378.636 112.51 377.796 112.51 376.752C111.634 376.548 110.764 376.446 109.9 376.446C109.096 376.446 108.442 376.626 107.938 376.986C107.446 377.334 107.2 377.796 107.2 378.372C107.2 378.936 107.392 379.386 107.776 379.722C108.16 380.046 108.682 380.208 109.342 380.208ZM122.854 376.176C123.49 376.332 123.988 376.608 124.348 377.004C124.72 377.4 124.906 377.88 124.906 378.444C124.906 379.212 124.624 379.83 124.06 380.298C123.508 380.766 122.782 381 121.882 381H116.626V371.478H121.648C122.512 371.478 123.208 371.706 123.736 372.162C124.264 372.618 124.528 373.218 124.528 373.962C124.528 374.49 124.378 374.946 124.078 375.33C123.778 375.714 123.37 375.996 122.854 376.176ZM121.45 372.504H117.922V375.726H121.36C121.912 375.726 122.356 375.576 122.692 375.276C123.04 374.976 123.214 374.58 123.214 374.088C123.214 373.608 123.052 373.224 122.728 372.936C122.404 372.648 121.978 372.504 121.45 372.504ZM121.684 379.992C122.248 379.992 122.704 379.842 123.052 379.542C123.4 379.23 123.574 378.828 123.574 378.336C123.574 377.82 123.394 377.412 123.034 377.112C122.674 376.8 122.194 376.644 121.594 376.644H117.922V379.992H121.684ZM134.335 381L130.483 376.536H128.557V381H127.261V371.478H128.557V375.456H130.483L134.137 371.478H135.775L131.563 375.978L135.991 381H134.335ZM140.61 371.298C141.774 371.298 142.704 371.64 143.4 372.324C144.096 372.996 144.444 373.89 144.444 375.006V381H143.184L143.148 379.002C142.824 379.686 142.344 380.22 141.708 380.604C141.084 380.988 140.388 381.18 139.62 381.18C138.684 381.18 137.928 380.928 137.352 380.424C136.776 379.92 136.488 379.248 136.488 378.408C136.488 377.544 136.842 376.848 137.55 376.32C138.27 375.78 139.212 375.51 140.376 375.51C141.324 375.51 142.248 375.618 143.148 375.834V375.168C143.148 374.304 142.89 373.62 142.374 373.116C141.87 372.6 141.18 372.342 140.304 372.342C139.248 372.342 138.378 372.696 137.694 373.404L137.1 372.612C138 371.736 139.17 371.298 140.61 371.298ZM139.98 380.208C140.796 380.208 141.528 379.896 142.176 379.272C142.824 378.636 143.148 377.796 143.148 376.752C142.272 376.548 141.402 376.446 140.538 376.446C139.734 376.446 139.08 376.626 138.576 376.986C138.084 377.334 137.838 377.796 137.838 378.372C137.838 378.936 138.03 379.386 138.414 379.722C138.798 380.046 139.32 380.208 139.98 380.208ZM41.3832 397.478H50.0052V407H48.7092V398.558H42.6792V407H41.3832V397.478ZM57.1976 407.18C55.7336 407.18 54.5516 406.73 53.6516 405.83C52.7636 404.918 52.3196 403.724 52.3196 402.248C52.3196 400.76 52.7636 399.566 53.6516 398.666C54.5516 397.754 55.7336 397.298 57.1976 397.298C58.6496 397.298 59.8196 397.754 60.7076 398.666C61.5956 399.566 62.0396 400.76 62.0396 402.248C62.0396 403.724 61.5956 404.918 60.7076 405.83C59.8196 406.73 58.6496 407.18 57.1976 407.18ZM57.1976 406.064C58.2416 406.064 59.0816 405.716 59.7176 405.02C60.3536 404.312 60.6716 403.388 60.6716 402.248C60.6716 401.096 60.3536 400.172 59.7176 399.476C59.0816 398.78 58.2416 398.432 57.1976 398.432C56.1416 398.432 55.2896 398.78 54.6416 399.476C54.0056 400.172 53.6876 401.096 53.6876 402.248C53.6876 403.388 54.0056 404.312 54.6416 405.02C55.2896 405.716 56.1416 406.064 57.1976 406.064ZM75.3495 402.176C75.9855 402.332 76.4835 402.608 76.8435 403.004C77.2155 403.4 77.4015 403.88 77.4015 404.444C77.4015 405.212 77.1195 405.83 76.5555 406.298C76.0035 406.766 75.2775 407 74.3775 407H69.1215V397.478H74.1435C75.0075 397.478 75.7035 397.706 76.2315 398.162C76.7595 398.618 77.0235 399.218 77.0235 399.962C77.0235 400.49 76.8735 400.946 76.5735 401.33C76.2735 401.714 75.8655 401.996 75.3495 402.176ZM73.9455 398.504H70.4175V401.726H73.8555C74.4075 401.726 74.8515 401.576 75.1875 401.276C75.5355 400.976 75.7095 400.58 75.7095 400.088C75.7095 399.608 75.5475 399.224 75.2235 398.936C74.8995 398.648 74.4735 398.504 73.9455 398.504ZM74.1795 405.992C74.7435 405.992 75.1995 405.842 75.5475 405.542C75.8955 405.23 76.0695 404.828 76.0695 404.336C76.0695 403.82 75.8895 403.412 75.5295 403.112C75.1695 402.8 74.6895 402.644 74.0895 402.644H70.4175V405.992H74.1795ZM83.9503 407.18C82.5103 407.18 81.3463 406.73 80.4583 405.83C79.5703 404.918 79.1263 403.718 79.1263 402.23C79.1263 400.754 79.5763 399.566 80.4763 398.666C81.3763 397.754 82.5583 397.298 84.0223 397.298C85.1983 397.298 86.2243 397.646 87.1003 398.342L86.3623 399.242C85.7023 398.702 84.9223 398.432 84.0223 398.432C82.9543 398.432 82.0963 398.78 81.4483 399.476C80.8123 400.172 80.4943 401.096 80.4943 402.248C80.4943 403.388 80.8183 404.312 81.4663 405.02C82.1143 405.716 82.9723 406.064 84.0403 406.064C85.0963 406.064 85.9603 405.722 86.6323 405.038L87.3883 405.92C86.5123 406.76 85.3663 407.18 83.9503 407.18ZM90.0727 395.084C89.8207 395.084 89.6107 395 89.4427 394.832C89.2747 394.664 89.1907 394.46 89.1907 394.22C89.1907 393.968 89.2747 393.758 89.4427 393.59C89.6107 393.422 89.8207 393.338 90.0727 393.338C90.3127 393.338 90.5167 393.422 90.6847 393.59C90.8527 393.758 90.9367 393.968 90.9367 394.22C90.9367 394.46 90.8527 394.664 90.6847 394.832C90.5167 395 90.3127 395.084 90.0727 395.084ZM89.4247 407V397.478H90.7207V407H89.4247ZM98.0157 396.02C97.1397 396.02 96.4377 395.762 95.9097 395.246C95.3817 394.718 95.1177 394.022 95.1177 393.158H96.1797C96.1797 393.77 96.3477 394.268 96.6837 394.652C97.0197 395.024 97.4637 395.21 98.0157 395.21C98.5677 395.21 99.0117 395.024 99.3477 394.652C99.6837 394.268 99.8517 393.77 99.8517 393.158H100.896C100.896 394.022 100.632 394.718 100.104 395.246C99.5757 395.762 98.8797 396.02 98.0157 396.02ZM101.328 397.478H102.318V407H101.058V399.602L94.6857 407H93.6957V397.478H94.9557V404.984L101.328 397.478ZM117.928 393.68H119.404L113.338 407H111.862L113.518 403.364L108.856 393.68H110.314L114.256 401.942L117.928 393.68ZM127.278 407L123.426 402.536H121.5V407H120.204V397.478H121.5V401.456H123.426L127.08 397.478H128.718L124.506 401.978L128.934 407H127.278ZM135.563 397.298C136.907 397.298 137.999 397.754 138.839 398.666C139.691 399.566 140.117 400.748 140.117 402.212C140.117 403.7 139.691 404.9 138.839 405.812C137.999 406.724 136.907 407.18 135.563 407.18C133.751 407.18 132.485 406.436 131.765 404.948V410.96H130.469V397.478H131.729L131.765 399.53C132.485 398.042 133.751 397.298 135.563 397.298ZM135.257 406.064C136.313 406.064 137.159 405.716 137.795 405.02C138.443 404.312 138.767 403.382 138.767 402.23C138.767 401.09 138.443 400.172 137.795 399.476C137.159 398.78 136.313 398.432 135.257 398.432C134.213 398.432 133.367 398.78 132.719 399.476C132.083 400.172 131.765 401.096 131.765 402.248C131.765 403.388 132.083 404.312 132.719 405.02C133.367 405.716 134.213 406.064 135.257 406.064ZM145.769 397.298C146.933 397.298 147.863 397.64 148.559 398.324C149.255 398.996 149.603 399.89 149.603 401.006V407H148.343L148.307 405.002C147.983 405.686 147.503 406.22 146.867 406.604C146.243 406.988 145.547 407.18 144.779 407.18C143.843 407.18 143.087 406.928 142.511 406.424C141.935 405.92 141.647 405.248 141.647 404.408C141.647 403.544 142.001 402.848 142.709 402.32C143.429 401.78 144.371 401.51 145.535 401.51C146.483 401.51 147.407 401.618 148.307 401.834V401.168C148.307 400.304 148.049 399.62 147.533 399.116C147.029 398.6 146.339 398.342 145.463 398.342C144.407 398.342 143.537 398.696 142.853 399.404L142.259 398.612C143.159 397.736 144.329 397.298 145.769 397.298ZM145.139 406.208C145.955 406.208 146.687 405.896 147.335 405.272C147.983 404.636 148.307 403.796 148.307 402.752C147.431 402.548 146.561 402.446 145.697 402.446C144.893 402.446 144.239 402.626 143.735 402.986C143.243 403.334 142.997 403.796 142.997 404.372C142.997 404.936 143.189 405.386 143.573 405.722C143.957 406.046 144.479 406.208 145.139 406.208ZM151.254 395.084C151.002 395.084 150.798 395.006 150.642 394.85C150.474 394.682 150.39 394.472 150.39 394.22C150.39 393.956 150.474 393.746 150.642 393.59C150.798 393.422 151.002 393.338 151.254 393.338C151.518 393.338 151.728 393.422 151.884 393.59C152.052 393.746 152.136 393.956 152.136 394.22C152.136 394.472 152.052 394.682 151.884 394.85C151.728 395.006 151.518 395.084 151.254 395.084ZM154.926 395.084C154.662 395.084 154.446 395.006 154.278 394.85C154.122 394.682 154.044 394.472 154.044 394.22C154.044 393.956 154.122 393.746 154.278 393.59C154.446 393.422 154.662 393.338 154.926 393.338C155.178 393.338 155.382 393.422 155.538 393.59C155.706 393.746 155.79 393.956 155.79 394.22C155.79 394.472 155.706 394.682 155.538 394.85C155.382 395.006 155.178 395.084 154.926 395.084ZM152.442 407V397.478H153.738V407H152.442ZM164.039 397.478H165.335V407H164.039V402.662H158.009V407H156.713V397.478H158.009V401.582H164.039V397.478ZM168.946 395.084C168.694 395.084 168.484 395 168.316 394.832C168.148 394.664 168.064 394.46 168.064 394.22C168.064 393.968 168.148 393.758 168.316 393.59C168.484 393.422 168.694 393.338 168.946 393.338C169.186 393.338 169.39 393.422 169.558 393.59C169.726 393.758 169.81 393.968 169.81 394.22C169.81 394.46 169.726 394.664 169.558 394.832C169.39 395 169.186 395.084 168.946 395.084ZM168.298 407V397.478H169.594V407H168.298Z" fill="white"/>
<g clip-path="url(#clip1)">
<path d="M375.348 334.705L373.867 330.33C373.768 330.028 373.481 329.834 373.165 329.834H370.331C369.926 329.834 369.59 330.165 369.59 330.563C369.59 330.962 369.926 331.292 370.331 331.292H372.632L373.62 334.209H354.923L355.911 331.292H358.212C358.617 331.292 358.953 330.962 358.953 330.563C358.953 330.165 358.617 329.834 358.212 329.834H355.377C355.061 329.834 354.775 330.038 354.676 330.33L353.195 334.705C353.116 334.929 353.155 335.172 353.293 335.366C353.432 335.56 353.659 335.667 353.896 335.667H374.637C374.874 335.667 375.101 335.551 375.239 335.366C375.388 335.172 375.417 334.929 375.348 334.705Z" fill="white"/>
<path d="M388.731 338.993L381.324 324.409C381.314 324.389 381.304 324.37 381.284 324.351C381.284 324.341 381.274 324.331 381.274 324.331C381.136 324.137 380.909 324.01 380.662 324.01H376.217H369.59L368.701 325.469H375.763L382.572 339.226C382.7 339.479 382.957 339.634 383.234 339.634C383.352 339.634 383.461 339.605 383.57 339.556C383.747 339.469 383.876 339.323 383.945 339.138C384.004 338.954 383.994 338.759 383.905 338.584L377.412 325.459H380.198L386.776 338.584H347.924L350.014 333.801C350.133 333.577 350.113 333.305 349.985 333.091C349.856 332.877 349.609 332.741 349.352 332.741H343.14L345.362 328.366H349.352C349.629 328.366 349.886 328.21 350.014 327.967L351.288 325.449H356.177H359.842L358.696 323.991H350.834H346.389C346.113 323.991 345.856 324.146 345.728 324.389L344.246 327.306L341.283 333.149L338.32 338.993C338.202 339.216 338.221 339.488 338.35 339.702C338.488 339.916 338.725 340.052 338.982 340.052H339.081H346.389H383.615H388.06C388.316 340.052 388.553 339.926 388.692 339.702C388.84 339.479 388.85 339.216 388.731 338.993ZM346.844 325.459H349.629L348.888 326.917H346.103L346.844 325.459ZM346.274 338.584H340.266L342.409 334.209H348.157L346.274 338.584Z" fill="white"/>
<path d="M364.266 297.167C357.53 297.167 352.049 302.563 352.049 309.193C352.049 311.186 352.553 313.16 353.511 314.91L363.605 332.848C363.743 333.091 363.99 333.237 364.276 333.237C364.553 333.237 364.81 333.091 364.948 332.848L375.032 314.9C375.99 313.16 376.494 311.186 376.494 309.193C376.484 302.563 371.002 297.167 364.266 297.167ZM373.679 314.181L364.266 330.933L354.864 314.181C354.024 312.654 353.58 310.934 353.58 309.184C353.58 303.379 358.37 298.664 364.266 298.664C370.163 298.664 374.963 303.389 374.963 309.193C374.963 310.934 374.518 312.654 373.679 314.181Z" fill="white"/>
<path d="M364.266 303.175C360.898 303.175 358.163 305.868 358.163 309.184C358.163 312.499 360.898 315.192 364.266 315.192C367.634 315.192 370.37 312.499 370.37 309.184C370.37 305.868 367.634 303.175 364.266 303.175ZM364.266 313.695C361.738 313.695 359.684 311.672 359.684 309.184C359.684 306.695 361.738 304.672 364.266 304.672C366.795 304.672 368.849 306.695 368.849 309.184C368.849 311.672 366.795 313.695 364.266 313.695Z" fill="white"/>
</g>
<path d="M266.198 375.584C267.446 375.584 268.448 375.926 269.204 376.61C269.972 377.294 270.356 378.188 270.356 379.292C270.356 380.396 269.96 381.29 269.168 381.974C268.388 382.658 267.356 383 266.072 383H260.798V369.68H268.88V370.814H262.166V375.584H266.198ZM265.928 381.866C266.828 381.866 267.554 381.632 268.106 381.164C268.658 380.684 268.934 380.06 268.934 379.292C268.934 378.524 268.658 377.906 268.106 377.438C267.554 376.97 266.828 376.736 265.928 376.736H262.166V381.866H265.928ZM273.111 371.084C272.859 371.084 272.649 371 272.481 370.832C272.313 370.664 272.229 370.46 272.229 370.22C272.229 369.968 272.313 369.758 272.481 369.59C272.649 369.422 272.859 369.338 273.111 369.338C273.351 369.338 273.555 369.422 273.723 369.59C273.891 369.758 273.975 369.968 273.975 370.22C273.975 370.46 273.891 370.664 273.723 370.832C273.555 371 273.351 371.084 273.111 371.084ZM272.463 383V373.478H273.759V383H272.463ZM277.472 373.478H284.564V383H283.268V374.558H278.714L278.318 380.858C278.27 381.554 278.024 382.118 277.58 382.55C277.148 382.97 276.596 383.18 275.924 383.18V382.046C276.236 382.046 276.494 381.926 276.698 381.686C276.914 381.446 277.034 381.122 277.058 380.714L277.472 373.478ZM292.027 377.564C292.951 377.564 293.695 377.816 294.259 378.32C294.835 378.812 295.123 379.466 295.123 380.282C295.123 381.086 294.841 381.74 294.277 382.244C293.725 382.748 292.999 383 292.099 383H287.509V373.478H288.805V377.564H292.027ZM291.865 382.01C292.453 382.01 292.921 381.854 293.269 381.542C293.617 381.23 293.791 380.81 293.791 380.282C293.791 379.766 293.605 379.352 293.233 379.04C292.873 378.716 292.393 378.554 291.793 378.554H288.805V382.01H291.865ZM310.138 373.478H311.434V383H297.124V373.478H298.42V381.92H303.622V373.478H304.918V381.92H310.138V373.478ZM322.757 378.122C322.757 378.422 322.751 378.62 322.739 378.716H315.143C315.227 379.772 315.545 380.606 316.097 381.218C316.649 381.83 317.387 382.136 318.311 382.136C319.559 382.136 320.585 381.596 321.389 380.516L322.379 381.074C321.431 382.478 320.081 383.18 318.329 383.18C316.961 383.18 315.857 382.73 315.017 381.83C314.177 380.918 313.757 379.718 313.757 378.23C313.757 376.754 314.171 375.566 314.999 374.666C315.827 373.754 316.919 373.298 318.275 373.298C319.619 373.298 320.699 373.742 321.515 374.63C322.343 375.506 322.757 376.67 322.757 378.122ZM320.471 375.278C319.919 374.654 319.187 374.342 318.275 374.342C317.363 374.342 316.625 374.654 316.061 375.278C315.509 375.89 315.203 376.73 315.143 377.798H321.407C321.347 376.73 321.035 375.89 320.471 375.278ZM337.128 373.478H338.424V383H337.128V378.662H331.098V383H329.802V373.478H331.098V377.582H337.128V373.478ZM342.035 371.084C341.783 371.084 341.573 371 341.405 370.832C341.237 370.664 341.153 370.46 341.153 370.22C341.153 369.968 341.237 369.758 341.405 369.59C341.573 369.422 341.783 369.338 342.035 369.338C342.275 369.338 342.479 369.422 342.647 369.59C342.815 369.758 342.899 369.968 342.899 370.22C342.899 370.46 342.815 370.664 342.647 370.832C342.479 371 342.275 371.084 342.035 371.084ZM341.387 383V373.478H342.683V383H341.387ZM356.278 383L352.552 378.536H351.796V383H350.5V378.536H349.726L346 383H344.344L348.646 377.996L344.578 373.478H346.216L349.726 377.456H350.5V373.478H351.796V377.456H352.552L356.062 373.478H357.718L353.65 377.978L357.934 383H356.278ZM367.608 375.332C368.88 375.332 369.906 375.686 370.686 376.394C371.466 377.09 371.856 378.008 371.856 379.148C371.856 380.36 371.43 381.338 370.578 382.082C369.726 382.814 368.592 383.18 367.176 383.18C365.424 383.18 364.14 382.682 363.324 381.686L363.864 380.678C364.572 381.59 365.628 382.046 367.032 382.046C368.064 382.046 368.886 381.782 369.498 381.254C370.122 380.726 370.434 380.03 370.434 379.166C370.434 378.326 370.128 377.654 369.516 377.15C368.916 376.646 368.118 376.394 367.122 376.394C366.354 376.394 365.67 376.544 365.07 376.844L364.71 376.142L369.552 370.814H363.828V369.68H371.388V370.544L366.852 375.368C367.188 375.344 367.44 375.332 367.608 375.332ZM381.908 381.308C381.044 382.556 379.904 383.18 378.488 383.18C377.072 383.18 375.932 382.556 375.068 381.308C374.216 380.048 373.79 378.392 373.79 376.34C373.79 374.288 374.216 372.638 375.068 371.39C375.932 370.13 377.072 369.5 378.488 369.5C379.904 369.5 381.044 370.13 381.908 371.39C382.772 372.638 383.204 374.288 383.204 376.34C383.204 378.392 382.772 380.048 381.908 381.308ZM376.094 380.48C376.706 381.524 377.504 382.046 378.488 382.046C379.472 382.046 380.264 381.524 380.864 380.48C381.476 379.436 381.782 378.056 381.782 376.34C381.782 374.624 381.476 373.244 380.864 372.2C380.264 371.156 379.472 370.634 378.488 370.634C377.504 370.634 376.706 371.156 376.094 372.2C375.494 373.244 375.194 374.624 375.194 376.34C375.194 378.056 375.494 379.436 376.094 380.48ZM393.387 381.308C392.523 382.556 391.383 383.18 389.967 383.18C388.551 383.18 387.411 382.556 386.547 381.308C385.695 380.048 385.269 378.392 385.269 376.34C385.269 374.288 385.695 372.638 386.547 371.39C387.411 370.13 388.551 369.5 389.967 369.5C391.383 369.5 392.523 370.13 393.387 371.39C394.251 372.638 394.683 374.288 394.683 376.34C394.683 378.392 394.251 380.048 393.387 381.308ZM387.573 380.48C388.185 381.524 388.983 382.046 389.967 382.046C390.951 382.046 391.743 381.524 392.343 380.48C392.955 379.436 393.261 378.056 393.261 376.34C393.261 374.624 392.955 373.244 392.343 372.2C391.743 371.156 390.951 370.634 389.967 370.634C388.983 370.634 388.185 371.156 387.573 372.2C386.973 373.244 386.673 374.624 386.673 376.34C386.673 378.056 386.973 379.436 387.573 380.48ZM404.865 381.308C404.001 382.556 402.861 383.18 401.445 383.18C400.029 383.18 398.889 382.556 398.025 381.308C397.173 380.048 396.747 378.392 396.747 376.34C396.747 374.288 397.173 372.638 398.025 371.39C398.889 370.13 400.029 369.5 401.445 369.5C402.861 369.5 404.001 370.13 404.865 371.39C405.729 372.638 406.161 374.288 406.161 376.34C406.161 378.392 405.729 380.048 404.865 381.308ZM399.051 380.48C399.663 381.524 400.461 382.046 401.445 382.046C402.429 382.046 403.221 381.524 403.821 380.48C404.433 379.436 404.739 378.056 404.739 376.34C404.739 374.624 404.433 373.244 403.821 372.2C403.221 371.156 402.429 370.634 401.445 370.634C400.461 370.634 399.663 371.156 399.051 372.2C398.451 373.244 398.151 374.624 398.151 376.34C398.151 378.056 398.451 379.436 399.051 380.48ZM420.669 373.478V374.558H416.853V383H415.557V374.558H411.723V373.478H420.669ZM425.913 383.18C424.449 383.18 423.267 382.73 422.367 381.83C421.479 380.918 421.035 379.724 421.035 378.248C421.035 376.76 421.479 375.566 422.367 374.666C423.267 373.754 424.449 373.298 425.913 373.298C427.365 373.298 428.535 373.754 429.423 374.666C430.311 375.566 430.755 376.76 430.755 378.248C430.755 379.724 430.311 380.918 429.423 381.83C428.535 382.73 427.365 383.18 425.913 383.18ZM425.913 382.064C426.957 382.064 427.797 381.716 428.433 381.02C429.069 380.312 429.387 379.388 429.387 378.248C429.387 377.096 429.069 376.172 428.433 375.476C427.797 374.78 426.957 374.432 425.913 374.432C424.857 374.432 424.005 374.78 423.357 375.476C422.721 376.172 422.403 377.096 422.403 378.248C422.403 379.388 422.721 380.312 423.357 381.02C424.005 381.716 424.857 382.064 425.913 382.064ZM439.5 373.478H440.796V383H439.5V378.104C438.852 379.256 437.748 379.832 436.188 379.832C435.06 379.832 434.148 379.496 433.452 378.824C432.756 378.14 432.408 377.246 432.408 376.142V373.478H433.704V375.89C433.704 376.742 433.968 377.426 434.496 377.942C435.024 378.458 435.726 378.716 436.602 378.716C437.478 378.716 438.18 378.458 438.708 377.942C439.236 377.426 439.5 376.742 439.5 375.89V373.478ZM447.992 383.18C446.528 383.18 445.346 382.73 444.446 381.83C443.558 380.918 443.114 379.724 443.114 378.248C443.114 376.76 443.558 375.566 444.446 374.666C445.346 373.754 446.528 373.298 447.992 373.298C449.444 373.298 450.614 373.754 451.502 374.666C452.39 375.566 452.834 376.76 452.834 378.248C452.834 379.724 452.39 380.918 451.502 381.83C450.614 382.73 449.444 383.18 447.992 383.18ZM447.992 382.064C449.036 382.064 449.876 381.716 450.512 381.02C451.148 380.312 451.466 379.388 451.466 378.248C451.466 377.096 451.148 376.172 450.512 375.476C449.876 374.78 449.036 374.432 447.992 374.432C446.936 374.432 446.084 374.78 445.436 375.476C444.8 376.172 444.482 377.096 444.482 378.248C444.482 379.388 444.8 380.312 445.436 381.02C446.084 381.716 446.936 382.064 447.992 382.064ZM462.226 383L458.374 378.536H456.448V383H455.152V373.478H456.448V377.456H458.374L462.028 373.478H463.666L459.454 377.978L463.882 383H462.226ZM274.923 399.478H283.545V409H282.249V400.558H276.219V409H274.923V399.478ZM291.584 399.298C292.928 399.298 294.02 399.754 294.86 400.666C295.712 401.566 296.138 402.748 296.138 404.212C296.138 405.7 295.712 406.9 294.86 407.812C294.02 408.724 292.928 409.18 291.584 409.18C289.772 409.18 288.506 408.436 287.786 406.948V412.96H286.49V399.478H287.75L287.786 401.53C288.506 400.042 289.772 399.298 291.584 399.298ZM291.278 408.064C292.334 408.064 293.18 407.716 293.816 407.02C294.464 406.312 294.788 405.382 294.788 404.23C294.788 403.09 294.464 402.172 293.816 401.476C293.18 400.78 292.334 400.432 291.278 400.432C290.234 400.432 289.388 400.78 288.74 401.476C288.104 402.172 287.786 403.096 287.786 404.248C287.786 405.388 288.104 406.312 288.74 407.02C289.388 407.716 290.234 408.064 291.278 408.064ZM302.726 409.18C301.262 409.18 300.08 408.73 299.18 407.83C298.292 406.918 297.848 405.724 297.848 404.248C297.848 402.76 298.292 401.566 299.18 400.666C300.08 399.754 301.262 399.298 302.726 399.298C304.178 399.298 305.348 399.754 306.236 400.666C307.124 401.566 307.568 402.76 307.568 404.248C307.568 405.724 307.124 406.918 306.236 407.83C305.348 408.73 304.178 409.18 302.726 409.18ZM302.726 408.064C303.77 408.064 304.61 407.716 305.246 407.02C305.882 406.312 306.2 405.388 306.2 404.248C306.2 403.096 305.882 402.172 305.246 401.476C304.61 400.78 303.77 400.432 302.726 400.432C301.67 400.432 300.818 400.78 300.17 401.476C299.534 402.172 299.216 403.096 299.216 404.248C299.216 405.388 299.534 406.312 300.17 407.02C300.818 407.716 301.67 408.064 302.726 408.064ZM317.81 407.92H318.836V410.8H317.54V409H310.088V410.8H308.792V407.92H309.188C309.5 407.92 309.758 407.812 309.962 407.596C310.178 407.368 310.292 407.074 310.304 406.714L310.736 399.478H317.81V407.92ZM311.114 407.92H316.514V400.558H311.978L311.564 406.768C311.552 407.212 311.402 407.596 311.114 407.92ZM324.483 399.298C325.647 399.298 326.577 399.64 327.273 400.324C327.969 400.996 328.317 401.89 328.317 403.006V409H327.057L327.021 407.002C326.697 407.686 326.217 408.22 325.581 408.604C324.957 408.988 324.261 409.18 323.493 409.18C322.557 409.18 321.801 408.928 321.225 408.424C320.649 407.92 320.361 407.248 320.361 406.408C320.361 405.544 320.715 404.848 321.423 404.32C322.143 403.78 323.085 403.51 324.249 403.51C325.197 403.51 326.121 403.618 327.021 403.834V403.168C327.021 402.304 326.763 401.62 326.247 401.116C325.743 400.6 325.053 400.342 324.177 400.342C323.121 400.342 322.251 400.696 321.567 401.404L320.973 400.612C321.873 399.736 323.043 399.298 324.483 399.298ZM323.853 408.208C324.669 408.208 325.401 407.896 326.049 407.272C326.697 406.636 327.021 405.796 327.021 404.752C326.145 404.548 325.275 404.446 324.411 404.446C323.607 404.446 322.953 404.626 322.449 404.986C321.957 405.334 321.711 405.796 321.711 406.372C321.711 406.936 321.903 407.386 322.287 407.722C322.671 408.046 323.193 408.208 323.853 408.208ZM341.758 409L338.032 404.536H337.276V409H335.98V404.536H335.206L331.48 409H329.824L334.126 403.996L330.058 399.478H331.696L335.206 403.456H335.98V399.478H337.276V403.456H338.032L341.542 399.478H343.198L339.13 403.978L343.414 409H341.758ZM345.726 397.084C345.474 397.084 345.264 397 345.096 396.832C344.928 396.664 344.844 396.46 344.844 396.22C344.844 395.968 344.928 395.758 345.096 395.59C345.264 395.422 345.474 395.338 345.726 395.338C345.966 395.338 346.17 395.422 346.338 395.59C346.506 395.758 346.59 395.968 346.59 396.22C346.59 396.46 346.506 396.664 346.338 396.832C346.17 397 345.966 397.084 345.726 397.084ZM345.078 409V399.478H346.374V409H345.078ZM355.577 404.176C356.213 404.332 356.711 404.608 357.071 405.004C357.443 405.4 357.629 405.88 357.629 406.444C357.629 407.212 357.347 407.83 356.783 408.298C356.231 408.766 355.505 409 354.605 409H349.349V399.478H354.371C355.235 399.478 355.931 399.706 356.459 400.162C356.987 400.618 357.251 401.218 357.251 401.962C357.251 402.49 357.101 402.946 356.801 403.33C356.501 403.714 356.093 403.996 355.577 404.176ZM354.173 400.504H350.645V403.726H354.083C354.635 403.726 355.079 403.576 355.415 403.276C355.763 402.976 355.937 402.58 355.937 402.088C355.937 401.608 355.775 401.224 355.451 400.936C355.127 400.648 354.701 400.504 354.173 400.504ZM354.407 407.992C354.971 407.992 355.427 407.842 355.775 407.542C356.123 407.23 356.297 406.828 356.297 406.336C356.297 405.82 356.117 405.412 355.757 405.112C355.397 404.8 354.917 404.644 354.317 404.644H350.645V407.992H354.407ZM364.747 399.478H373.369V409H372.073V400.558H366.043V409H364.747V399.478ZM380.562 409.18C379.098 409.18 377.916 408.73 377.016 407.83C376.128 406.918 375.684 405.724 375.684 404.248C375.684 402.76 376.128 401.566 377.016 400.666C377.916 399.754 379.098 399.298 380.562 399.298C382.014 399.298 383.184 399.754 384.072 400.666C384.96 401.566 385.404 402.76 385.404 404.248C385.404 405.724 384.96 406.918 384.072 407.83C383.184 408.73 382.014 409.18 380.562 409.18ZM380.562 408.064C381.606 408.064 382.446 407.716 383.082 407.02C383.718 406.312 384.036 405.388 384.036 404.248C384.036 403.096 383.718 402.172 383.082 401.476C382.446 400.78 381.606 400.432 380.562 400.432C379.506 400.432 378.654 400.78 378.006 401.476C377.37 402.172 377.052 403.096 377.052 404.248C377.052 405.388 377.37 406.312 378.006 407.02C378.654 407.716 379.506 408.064 380.562 408.064ZM400.388 395.68H401.864L395.798 409H394.322L395.978 405.364L391.316 395.68H392.774L396.716 403.942L400.388 395.68ZM409.738 409L405.886 404.536H403.96V409H402.664V399.478H403.96V403.456H405.886L409.54 399.478H411.178L406.966 403.978L411.394 409H409.738ZM418.023 399.298C419.367 399.298 420.459 399.754 421.299 400.666C422.151 401.566 422.577 402.748 422.577 404.212C422.577 405.7 422.151 406.9 421.299 407.812C420.459 408.724 419.367 409.18 418.023 409.18C416.211 409.18 414.945 408.436 414.225 406.948V412.96H412.929V399.478H414.189L414.225 401.53C414.945 400.042 416.211 399.298 418.023 399.298ZM417.717 408.064C418.773 408.064 419.619 407.716 420.255 407.02C420.903 406.312 421.227 405.382 421.227 404.23C421.227 403.09 420.903 402.172 420.255 401.476C419.619 400.78 418.773 400.432 417.717 400.432C416.673 400.432 415.827 400.78 415.179 401.476C414.543 402.172 414.225 403.096 414.225 404.248C414.225 405.388 414.543 406.312 415.179 407.02C415.827 407.716 416.673 408.064 417.717 408.064ZM428.229 399.298C429.393 399.298 430.323 399.64 431.019 400.324C431.715 400.996 432.063 401.89 432.063 403.006V409H430.803L430.767 407.002C430.443 407.686 429.963 408.22 429.327 408.604C428.703 408.988 428.007 409.18 427.239 409.18C426.303 409.18 425.547 408.928 424.971 408.424C424.395 407.92 424.107 407.248 424.107 406.408C424.107 405.544 424.461 404.848 425.169 404.32C425.889 403.78 426.831 403.51 427.995 403.51C428.943 403.51 429.867 403.618 430.767 403.834V403.168C430.767 402.304 430.509 401.62 429.993 401.116C429.489 400.6 428.799 400.342 427.923 400.342C426.867 400.342 425.997 400.696 425.313 401.404L424.719 400.612C425.619 399.736 426.789 399.298 428.229 399.298ZM427.599 408.208C428.415 408.208 429.147 407.896 429.795 407.272C430.443 406.636 430.767 405.796 430.767 404.752C429.891 404.548 429.021 404.446 428.157 404.446C427.353 404.446 426.699 404.626 426.195 404.986C425.703 405.334 425.457 405.796 425.457 406.372C425.457 406.936 425.649 407.386 426.033 407.722C426.417 408.046 426.939 408.208 427.599 408.208ZM433.714 397.084C433.462 397.084 433.258 397.006 433.102 396.85C432.934 396.682 432.85 396.472 432.85 396.22C432.85 395.956 432.934 395.746 433.102 395.59C433.258 395.422 433.462 395.338 433.714 395.338C433.978 395.338 434.188 395.422 434.344 395.59C434.512 395.746 434.596 395.956 434.596 396.22C434.596 396.472 434.512 396.682 434.344 396.85C434.188 397.006 433.978 397.084 433.714 397.084ZM437.386 397.084C437.122 397.084 436.906 397.006 436.738 396.85C436.582 396.682 436.504 396.472 436.504 396.22C436.504 395.956 436.582 395.746 436.738 395.59C436.906 395.422 437.122 395.338 437.386 395.338C437.638 395.338 437.842 395.422 437.998 395.59C438.166 395.746 438.25 395.956 438.25 396.22C438.25 396.472 438.166 396.682 437.998 396.85C437.842 397.006 437.638 397.084 437.386 397.084ZM434.902 409V399.478H436.198V409H434.902ZM446.499 399.478H447.795V409H446.499V404.662H440.469V409H439.173V399.478H440.469V403.582H446.499V399.478ZM451.406 397.084C451.154 397.084 450.944 397 450.776 396.832C450.608 396.664 450.524 396.46 450.524 396.22C450.524 395.968 450.608 395.758 450.776 395.59C450.944 395.422 451.154 395.338 451.406 395.338C451.646 395.338 451.85 395.422 452.018 395.59C452.186 395.758 452.27 395.968 452.27 396.22C452.27 396.46 452.186 396.664 452.018 396.832C451.85 397 451.646 397.084 451.406 397.084ZM450.758 409V399.478H452.054V409H450.758Z" fill="white"/>
<path d="M37.5853 155.18C35.6773 155.18 34.2313 154.664 33.2473 153.632L33.8053 152.66C34.7413 153.584 35.9713 154.046 37.4953 154.046C38.5513 154.046 39.3913 153.83 40.0153 153.398C40.6393 152.966 40.9513 152.39 40.9513 151.67C40.9513 150.974 40.6633 150.422 40.0873 150.014C39.5113 149.594 38.6473 149.216 37.4953 148.88L36.5953 148.61C35.5153 148.31 34.6693 147.902 34.0573 147.386C33.4453 146.858 33.1393 146.114 33.1393 145.154C33.1393 144.05 33.5533 143.168 34.3813 142.508C35.2213 141.836 36.3313 141.5 37.7113 141.5C39.3913 141.5 40.7713 142.01 41.8513 143.03L41.2033 143.984C40.2433 143.084 39.0673 142.634 37.6753 142.634C36.7393 142.634 35.9893 142.85 35.4253 143.282C34.8613 143.702 34.5793 144.26 34.5793 144.956C34.5793 145.628 34.8133 146.138 35.2813 146.486C35.7493 146.834 36.4153 147.134 37.2793 147.386L38.2153 147.656C38.7793 147.824 39.2713 148.004 39.6913 148.196C40.1113 148.376 40.5433 148.616 40.9873 148.916C41.4433 149.216 41.7913 149.588 42.0313 150.032C42.2713 150.464 42.3913 150.962 42.3913 151.526C42.3913 152.618 41.9473 153.5 41.0593 154.172C40.1833 154.844 39.0253 155.18 37.5853 155.18ZM48.1195 154.064C48.7915 154.064 49.4275 153.95 50.0275 153.722V154.784C49.4155 155.048 48.6475 155.18 47.7235 155.18C46.9555 155.18 46.3315 154.94 45.8515 154.46C45.3835 153.968 45.1495 153.332 45.1495 152.552V146.558H43.4935V145.478H45.1495V142.688H46.4455V145.478H49.8835V146.558H46.4455V152.3C46.4455 152.816 46.6015 153.242 46.9135 153.578C47.2255 153.902 47.6275 154.064 48.1195 154.064ZM60.0124 150.122C60.0124 150.422 60.0064 150.62 59.9944 150.716H52.3984C52.4824 151.772 52.8004 152.606 53.3524 153.218C53.9044 153.83 54.6424 154.136 55.5664 154.136C56.8144 154.136 57.8404 153.596 58.6444 152.516L59.6344 153.074C58.6864 154.478 57.3364 155.18 55.5844 155.18C54.2164 155.18 53.1124 154.73 52.2724 153.83C51.4324 152.918 51.0124 151.718 51.0124 150.23C51.0124 148.754 51.4264 147.566 52.2544 146.666C53.0824 145.754 54.1744 145.298 55.5304 145.298C56.8744 145.298 57.9544 145.742 58.7704 146.63C59.5984 147.506 60.0124 148.67 60.0124 150.122ZM57.7264 147.278C57.1744 146.654 56.4424 146.342 55.5304 146.342C54.6184 146.342 53.8804 146.654 53.3164 147.278C52.7644 147.89 52.4584 148.73 52.3984 149.798H58.6624C58.6024 148.73 58.2904 147.89 57.7264 147.278ZM69.3684 155L65.5164 150.536H63.5904V155H62.2944V140.96H63.5904V149.456H65.5164L69.1704 145.478H70.8084L66.5964 149.978L71.0244 155H69.3684ZM76.3685 155.18C74.9045 155.18 73.7225 154.73 72.8225 153.83C71.9345 152.918 71.4905 151.724 71.4905 150.248C71.4905 148.76 71.9345 147.566 72.8225 146.666C73.7225 145.754 74.9045 145.298 76.3685 145.298C77.8205 145.298 78.9905 145.754 79.8785 146.666C80.7665 147.566 81.2105 148.76 81.2105 150.248C81.2105 151.724 80.7665 152.918 79.8785 153.83C78.9905 154.73 77.8205 155.18 76.3685 155.18ZM76.3685 154.064C77.4125 154.064 78.2525 153.716 78.8885 153.02C79.5245 152.312 79.8425 151.388 79.8425 150.248C79.8425 149.096 79.5245 148.172 78.8885 147.476C78.2525 146.78 77.4125 146.432 76.3685 146.432C75.3125 146.432 74.4605 146.78 73.8125 147.476C73.1765 148.172 72.8585 149.096 72.8585 150.248C72.8585 151.388 73.1765 152.312 73.8125 153.02C74.4605 153.716 75.3125 154.064 76.3685 154.064ZM88.0944 150.32V149.348H93.3684V150.32H88.0944ZM100.248 155V154.118L104.28 149.78C104.292 149.768 104.4 149.654 104.604 149.438C104.82 149.21 104.946 149.072 104.982 149.024C105.03 148.976 105.15 148.844 105.342 148.628C105.534 148.412 105.66 148.262 105.72 148.178C105.792 148.082 105.906 147.932 106.062 147.728C106.23 147.512 106.344 147.344 106.404 147.224C106.464 147.092 106.548 146.924 106.656 146.72C106.764 146.516 106.842 146.336 106.89 146.18C106.938 146.012 106.98 145.832 107.016 145.64C107.052 145.448 107.07 145.262 107.07 145.082C107.07 144.326 106.83 143.732 106.35 143.3C105.882 142.856 105.252 142.634 104.46 142.634C103.656 142.634 103.008 142.88 102.516 143.372C102.024 143.852 101.778 144.488 101.778 145.28L100.374 145.172C100.374 144.068 100.746 143.18 101.49 142.508C102.234 141.836 103.218 141.5 104.442 141.5C105.654 141.5 106.626 141.818 107.358 142.454C108.102 143.078 108.474 143.918 108.474 144.974C108.474 145.49 108.39 145.994 108.222 146.486C108.054 146.966 107.778 147.47 107.394 147.998C107.01 148.526 106.68 148.946 106.404 149.258C106.14 149.57 105.732 150.014 105.18 150.59L102.084 153.884L108.654 153.866V155H100.248ZM114.098 155.18C112.406 155.18 111.122 154.766 110.246 153.938L110.66 152.93C111.452 153.674 112.556 154.046 113.972 154.046C115.04 154.046 115.898 153.77 116.546 153.218C117.206 152.654 117.536 151.91 117.536 150.986C117.536 150.134 117.26 149.444 116.708 148.916C116.156 148.376 115.43 148.106 114.53 148.106C113.666 148.106 112.838 148.286 112.046 148.646L111.11 148.502L112.028 141.68H118.346V142.814H113.234L112.568 147.278C113.276 147.074 114.014 146.972 114.782 146.972C116.018 146.972 117.02 147.338 117.788 148.07C118.568 148.79 118.958 149.738 118.958 150.914C118.958 152.186 118.508 153.218 117.608 154.01C116.708 154.79 115.538 155.18 114.098 155.18ZM123.482 147.458C122.582 147.458 121.856 147.188 121.304 146.648C120.752 146.096 120.476 145.37 120.476 144.47C120.476 143.582 120.752 142.868 121.304 142.328C121.856 141.776 122.582 141.5 123.482 141.5C124.37 141.5 125.084 141.776 125.624 142.328C126.176 142.868 126.452 143.582 126.452 144.47C126.452 145.37 126.176 146.096 125.624 146.648C125.084 147.188 124.37 147.458 123.482 147.458ZM123.266 155.18L122.51 154.712L130.25 141.5L131.006 141.968L123.266 155.18ZM123.482 146.558C124.034 146.558 124.478 146.366 124.814 145.982C125.162 145.598 125.336 145.094 125.336 144.47C125.336 143.846 125.162 143.342 124.814 142.958C124.478 142.574 124.034 142.382 123.482 142.382C122.918 142.382 122.462 142.574 122.114 142.958C121.778 143.33 121.61 143.834 121.61 144.47C121.61 145.106 121.778 145.616 122.114 146C122.462 146.372 122.918 146.558 123.482 146.558ZM130.034 155.18C129.146 155.18 128.426 154.91 127.874 154.37C127.322 153.818 127.046 153.098 127.046 152.21C127.046 151.31 127.322 150.59 127.874 150.05C128.426 149.498 129.146 149.222 130.034 149.222C130.934 149.222 131.654 149.498 132.194 150.05C132.746 150.59 133.022 151.31 133.022 152.21C133.022 153.098 132.746 153.818 132.194 154.37C131.654 154.91 130.934 155.18 130.034 155.18ZM128.684 153.722C129.032 154.106 129.482 154.298 130.034 154.298C130.586 154.298 131.03 154.106 131.366 153.722C131.714 153.338 131.888 152.834 131.888 152.21C131.888 151.586 131.72 151.082 131.384 150.698C131.048 150.314 130.598 150.122 130.034 150.122C129.47 150.122 129.014 150.314 128.666 150.698C128.33 151.082 128.162 151.586 128.162 152.21C128.162 152.834 128.336 153.338 128.684 153.722ZM146.147 150.176C146.783 150.332 147.281 150.608 147.641 151.004C148.013 151.4 148.199 151.88 148.199 152.444C148.199 153.212 147.917 153.83 147.353 154.298C146.801 154.766 146.075 155 145.175 155H139.919V145.478H144.941C145.805 145.478 146.501 145.706 147.029 146.162C147.557 146.618 147.821 147.218 147.821 147.962C147.821 148.49 147.671 148.946 147.371 149.33C147.071 149.714 146.663 149.996 146.147 150.176ZM144.743 146.504H141.215V149.726H144.653C145.205 149.726 145.649 149.576 145.985 149.276C146.333 148.976 146.507 148.58 146.507 148.088C146.507 147.608 146.345 147.224 146.021 146.936C145.697 146.648 145.271 146.504 144.743 146.504ZM144.977 153.992C145.541 153.992 145.997 153.842 146.345 153.542C146.693 153.23 146.867 152.828 146.867 152.336C146.867 151.82 146.687 151.412 146.327 151.112C145.967 150.8 145.487 150.644 144.887 150.644H141.215V153.992H144.977ZM154.748 155.18C153.308 155.18 152.144 154.73 151.256 153.83C150.368 152.918 149.924 151.718 149.924 150.23C149.924 148.754 150.374 147.566 151.274 146.666C152.174 145.754 153.356 145.298 154.82 145.298C155.996 145.298 157.022 145.646 157.898 146.342L157.16 147.242C156.5 146.702 155.72 146.432 154.82 146.432C153.752 146.432 152.894 146.78 152.246 147.476C151.61 148.172 151.292 149.096 151.292 150.248C151.292 151.388 151.616 152.312 152.264 153.02C152.912 153.716 153.77 154.064 154.838 154.064C155.894 154.064 156.758 153.722 157.43 153.038L158.186 153.92C157.31 154.76 156.164 155.18 154.748 155.18ZM160.871 143.084C160.619 143.084 160.409 143 160.241 142.832C160.073 142.664 159.989 142.46 159.989 142.22C159.989 141.968 160.073 141.758 160.241 141.59C160.409 141.422 160.619 141.338 160.871 141.338C161.111 141.338 161.315 141.422 161.483 141.59C161.651 141.758 161.735 141.968 161.735 142.22C161.735 142.46 161.651 142.664 161.483 142.832C161.315 143 161.111 143.084 160.871 143.084ZM160.223 155V145.478H161.519V155H160.223ZM172.594 155H171.01L167.914 151.004L164.836 155H163.252L167.122 150.122L163.468 145.478H165.034L167.914 149.24L170.794 145.478H172.36L168.706 150.122L172.594 155ZM51.0497 176.176C51.6857 176.332 52.1837 176.608 52.5437 177.004C52.9157 177.4 53.1017 177.88 53.1017 178.444C53.1017 179.212 52.8197 179.83 52.2557 180.298C51.7037 180.766 50.9777 181 50.0777 181H44.8217V171.478H49.8437C50.7077 171.478 51.4037 171.706 51.9317 172.162C52.4597 172.618 52.7237 173.218 52.7237 173.962C52.7237 174.49 52.5737 174.946 52.2737 175.33C51.9737 175.714 51.5657 175.996 51.0497 176.176ZM49.6457 172.504H46.1177V175.726H49.5557C50.1077 175.726 50.5517 175.576 50.8877 175.276C51.2357 174.976 51.4097 174.58 51.4097 174.088C51.4097 173.608 51.2477 173.224 50.9237 172.936C50.5997 172.648 50.1737 172.504 49.6457 172.504ZM49.8797 179.992C50.4437 179.992 50.8997 179.842 51.2477 179.542C51.5957 179.23 51.7697 178.828 51.7697 178.336C51.7697 177.82 51.5897 177.412 51.2297 177.112C50.8697 176.8 50.3897 176.644 49.7897 176.644H46.1177V179.992H49.8797ZM56.1225 169.084C55.8705 169.084 55.6605 169 55.4925 168.832C55.3245 168.664 55.2405 168.46 55.2405 168.22C55.2405 167.968 55.3245 167.758 55.4925 167.59C55.6605 167.422 55.8705 167.338 56.1225 167.338C56.3625 167.338 56.5665 167.422 56.7345 167.59C56.9025 167.758 56.9865 167.968 56.9865 168.22C56.9865 168.46 56.9025 168.664 56.7345 168.832C56.5665 169 56.3625 169.084 56.1225 169.084ZM55.4745 181V171.478H56.7705V181H55.4745ZM66.8195 181L62.9675 176.536H61.0415V181H59.7455V171.478H61.0415V175.456H62.9675L66.6215 171.478H68.2595L64.0475 175.978L68.4755 181H66.8195ZM73.8197 181.18C72.3557 181.18 71.1737 180.73 70.2737 179.83C69.3857 178.918 68.9417 177.724 68.9417 176.248C68.9417 174.76 69.3857 173.566 70.2737 172.666C71.1737 171.754 72.3557 171.298 73.8197 171.298C75.2717 171.298 76.4417 171.754 77.3297 172.666C78.2177 173.566 78.6617 174.76 78.6617 176.248C78.6617 177.724 78.2177 178.918 77.3297 179.83C76.4417 180.73 75.2717 181.18 73.8197 181.18ZM73.8197 180.064C74.8637 180.064 75.7037 179.716 76.3397 179.02C76.9757 178.312 77.2937 177.388 77.2937 176.248C77.2937 175.096 76.9757 174.172 76.3397 173.476C75.7037 172.78 74.8637 172.432 73.8197 172.432C72.7637 172.432 71.9117 172.78 71.2637 173.476C70.6277 174.172 70.3097 175.096 70.3097 176.248C70.3097 177.388 70.6277 178.312 71.2637 179.02C71.9117 179.716 72.7637 180.064 73.8197 180.064ZM88.3059 171.478H89.6019V181H88.3059V176.662H82.2759V181H80.9799V171.478H82.2759V175.582H88.3059V171.478ZM105.212 167.68H106.688L100.622 181H99.146L100.802 177.364L96.14 167.68H97.598L101.54 175.942L105.212 167.68ZM114.562 181L110.71 176.536H108.784V181H107.488V171.478H108.784V175.456H110.71L114.364 171.478H116.002L111.79 175.978L116.218 181H114.562ZM122.847 171.298C124.191 171.298 125.283 171.754 126.123 172.666C126.975 173.566 127.401 174.748 127.401 176.212C127.401 177.7 126.975 178.9 126.123 179.812C125.283 180.724 124.191 181.18 122.847 181.18C121.035 181.18 119.769 180.436 119.049 178.948V184.96H117.753V171.478H119.013L119.049 173.53C119.769 172.042 121.035 171.298 122.847 171.298ZM122.541 180.064C123.597 180.064 124.443 179.716 125.079 179.02C125.727 178.312 126.051 177.382 126.051 176.23C126.051 175.09 125.727 174.172 125.079 173.476C124.443 172.78 123.597 172.432 122.541 172.432C121.497 172.432 120.651 172.78 120.003 173.476C119.367 174.172 119.049 175.096 119.049 176.248C119.049 177.388 119.367 178.312 120.003 179.02C120.651 179.716 121.497 180.064 122.541 180.064ZM133.054 171.298C134.218 171.298 135.148 171.64 135.844 172.324C136.54 172.996 136.888 173.89 136.888 175.006V181H135.628L135.592 179.002C135.268 179.686 134.788 180.22 134.152 180.604C133.528 180.988 132.832 181.18 132.064 181.18C131.128 181.18 130.372 180.928 129.796 180.424C129.22 179.92 128.932 179.248 128.932 178.408C128.932 177.544 129.286 176.848 129.994 176.32C130.714 175.78 131.656 175.51 132.82 175.51C133.768 175.51 134.692 175.618 135.592 175.834V175.168C135.592 174.304 135.334 173.62 134.818 173.116C134.314 172.6 133.624 172.342 132.748 172.342C131.692 172.342 130.822 172.696 130.138 173.404L129.544 172.612C130.444 171.736 131.614 171.298 133.054 171.298ZM132.424 180.208C133.24 180.208 133.972 179.896 134.62 179.272C135.268 178.636 135.592 177.796 135.592 176.752C134.716 176.548 133.846 176.446 132.982 176.446C132.178 176.446 131.524 176.626 131.02 176.986C130.528 177.334 130.282 177.796 130.282 178.372C130.282 178.936 130.474 179.386 130.858 179.722C131.242 180.046 131.764 180.208 132.424 180.208ZM138.538 169.084C138.286 169.084 138.082 169.006 137.926 168.85C137.758 168.682 137.674 168.472 137.674 168.22C137.674 167.956 137.758 167.746 137.926 167.59C138.082 167.422 138.286 167.338 138.538 167.338C138.802 167.338 139.012 167.422 139.168 167.59C139.336 167.746 139.42 167.956 139.42 168.22C139.42 168.472 139.336 168.682 139.168 168.85C139.012 169.006 138.802 169.084 138.538 169.084ZM142.21 169.084C141.946 169.084 141.73 169.006 141.562 168.85C141.406 168.682 141.328 168.472 141.328 168.22C141.328 167.956 141.406 167.746 141.562 167.59C141.73 167.422 141.946 167.338 142.21 167.338C142.462 167.338 142.666 167.422 142.822 167.59C142.99 167.746 143.074 167.956 143.074 168.22C143.074 168.472 142.99 168.682 142.822 168.85C142.666 169.006 142.462 169.084 142.21 169.084ZM139.726 181V171.478H141.022V181H139.726ZM151.323 171.478H152.619V181H151.323V176.662H145.293V181H143.997V171.478H145.293V175.582H151.323V171.478ZM163.196 171.478H164.186V181H162.926V173.602L156.554 181H155.564V171.478H156.824V178.984L163.196 171.478Z" fill="white"/>
<g clip-path="url(#clip2)">
<path d="M106.512 91.7215V91.8715H106.662H126.451C126.907 91.8715 127.271 92.2354 127.271 92.6913C127.271 104.59 117.6 114.28 105.692 114.28C93.7845 114.28 84.1041 104.59 84.1041 92.6913C84.1041 80.7833 93.7844 71.103 105.692 71.103C106.148 71.103 106.512 71.4669 106.512 71.9229V91.7215ZM104.873 72.9123V72.7548L104.715 72.7625C94.1634 73.2758 85.7438 82.021 85.7438 92.6913C85.7438 103.687 94.6963 112.64 105.692 112.64C116.363 112.64 125.098 104.21 125.612 93.6587L125.619 93.5014H125.462H105.692C105.236 93.5014 104.873 93.1375 104.873 92.6816V72.9123Z" fill="white" stroke="white" stroke-width="0.3"/>
<path d="M111.626 87.5959L127.889 71.3328" stroke="white" stroke-width="1.7"/>
<path d="M131.989 76.063L120.13 87.9089" stroke="white" stroke-width="1.7"/>
<path d="M134.476 82.3694L128.901 87.9445" stroke="white" stroke-width="1.7"/>
<path d="M123.169 67.4548L111.063 79.5603" stroke="white" stroke-width="1.7"/>
<path d="M111.046 70.9754L117.162 64.8687" stroke="white" stroke-width="1.7"/>
<path d="M110.982 87.9395V64C125.151 64.5506 134.829 75.1558 135.189 87.9395H110.982Z" stroke="white" stroke-width="1.7"/>
</g>
<g clip-path="url(#clip3)">
<path d="M360.984 80.594L360.51 74.8148C360.479 74.4369 360.168 74.1462 359.795 74.1462H359.077V73.4169C359.077 72.2107 358.112 71.2294 356.925 71.2294C355.737 71.2294 354.772 72.2107 354.772 73.4169V74.1462H354.054C353.686 74.1462 353.377 74.43 353.34 74.8028L352.766 80.6362C352.746 80.8413 352.812 81.0453 352.948 81.1981C353.084 81.3508 353.277 81.4379 353.48 81.4379H360.273C360.274 81.4379 360.274 81.4379 360.275 81.4379C360.671 81.4379 360.993 81.1114 360.993 80.7087C360.993 80.6698 360.99 80.6314 360.984 80.594ZM356.207 73.4169C356.207 73.0148 356.529 72.6877 356.925 72.6877C357.32 72.6877 357.642 73.0148 357.642 73.4169V74.1462H356.207V73.4169ZM354.273 79.9797L354.704 75.6046H359.135L359.493 79.9797H354.273Z" fill="white"/>
<path d="M380.026 72.8579C380.024 72.8401 380.021 72.8228 380.018 72.8055C380.017 72.7994 380.017 72.7931 380.016 72.7871C380.012 72.7665 380.006 72.7463 380.001 72.7262C380 72.7236 379.999 72.7208 379.999 72.7182C379.992 72.6978 379.985 72.6778 379.977 72.6582C379.977 72.6559 379.976 72.6535 379.975 72.6512C379.967 72.6324 379.959 72.6141 379.949 72.5963C379.948 72.5931 379.946 72.5898 379.945 72.5867C379.936 72.5701 379.926 72.554 379.916 72.5381C379.914 72.5339 379.911 72.5296 379.909 72.5254C379.899 72.5102 379.888 72.4957 379.877 72.4813C379.873 72.477 379.87 72.4723 379.867 72.468C379.852 72.4496 379.836 72.4319 379.82 72.415L374.079 66.5819C374.063 66.565 374.045 66.549 374.027 66.5338C374.022 66.5299 374.017 66.5266 374.013 66.5228C373.999 66.512 373.985 66.5012 373.971 66.4913C373.966 66.4882 373.961 66.4857 373.957 66.4828C373.942 66.473 373.926 66.4632 373.91 66.4546C373.907 66.4527 373.903 66.4512 373.9 66.4493C373.882 66.4403 373.865 66.4316 373.847 66.424C373.844 66.4229 373.842 66.4221 373.839 66.4212C373.82 66.4134 373.801 66.4061 373.781 66.4C373.778 66.3991 373.775 66.3985 373.772 66.3977C373.753 66.392 373.733 66.3866 373.713 66.3826C373.707 66.3813 373.701 66.3808 373.695 66.3797C373.678 66.3767 373.661 66.3737 373.643 66.372C373.62 66.3694 373.596 66.3682 373.572 66.3682H347.739C347.343 66.3682 347.021 66.6946 347.021 67.0973V111.186C347.021 111.589 347.343 111.915 347.739 111.915H364.005C364.401 111.915 364.722 111.589 364.722 111.186C364.722 110.783 364.401 110.457 364.005 110.457H348.457V67.8265H372.854V72.9306C372.854 73.3333 373.175 73.6598 373.572 73.6598H378.595V110.457H374.53C374.133 110.457 373.812 110.783 373.812 111.186C373.812 111.589 374.133 111.915 374.53 111.915H379.312C379.708 111.915 380.03 111.589 380.03 111.186V72.9306C380.03 72.9062 380.029 72.8819 380.026 72.8579ZM374.289 72.2014V68.8578L377.58 72.2014H374.289Z" fill="white"/>
<path d="M373.572 87.1249H353.48C353.084 87.1249 352.762 87.4514 352.762 87.8541C352.762 88.2568 353.084 88.5832 353.48 88.5832H373.572C373.968 88.5832 374.289 88.2568 374.289 87.8541C374.289 87.4514 373.968 87.1249 373.572 87.1249Z" fill="white"/>
<path d="M373.572 91.0148H353.48C353.084 91.0148 352.762 91.3413 352.762 91.744C352.762 92.1467 353.084 92.4731 353.48 92.4731H373.572C373.968 92.4731 374.289 92.1467 374.289 91.744C374.289 91.3413 373.968 91.0148 373.572 91.0148Z" fill="white"/>
<path d="M373.572 94.9036H353.48C353.084 94.9036 352.762 95.23 352.762 95.6327C352.762 96.0355 353.084 96.3619 353.48 96.3619H373.572C373.968 96.3619 374.289 96.0355 374.289 95.6327C374.289 95.23 373.968 94.9036 373.572 94.9036Z" fill="white"/>
<path d="M362.091 98.7925H353.48C353.084 98.7925 352.762 99.119 352.762 99.5217C352.762 99.9244 353.084 100.251 353.48 100.251H362.091C362.487 100.251 362.808 99.9244 362.808 99.5217C362.808 99.119 362.487 98.7925 362.091 98.7925Z" fill="white"/>
<path d="M374.29 105.841C374.29 103.027 372.037 100.737 369.267 100.737C366.497 100.737 364.244 103.027 364.244 105.841C364.244 107.463 364.993 108.91 366.158 109.846V115.418C366.158 115.426 366.159 115.433 366.159 115.441C366.159 115.456 366.16 115.471 366.161 115.485C366.162 115.496 366.164 115.506 366.165 115.516C366.167 115.53 366.169 115.543 366.171 115.556C366.173 115.567 366.176 115.578 366.178 115.589C366.181 115.601 366.184 115.613 366.188 115.625C366.191 115.637 366.195 115.648 366.199 115.659C366.203 115.67 366.206 115.681 366.211 115.692C366.216 115.704 366.221 115.715 366.226 115.727C366.231 115.737 366.235 115.747 366.24 115.757C366.247 115.769 366.253 115.78 366.26 115.792C366.265 115.801 366.271 115.81 366.276 115.819C366.284 115.831 366.293 115.843 366.301 115.854C366.306 115.861 366.31 115.867 366.315 115.873C366.316 115.875 366.317 115.876 366.318 115.877C366.334 115.897 366.351 115.917 366.369 115.935C366.374 115.94 366.38 115.944 366.385 115.949C366.398 115.962 366.412 115.974 366.426 115.986C366.434 115.993 366.443 115.999 366.452 116.005C366.463 116.014 366.475 116.023 366.487 116.031C366.496 116.037 366.506 116.042 366.515 116.048C366.528 116.055 366.541 116.062 366.554 116.069C366.563 116.074 366.572 116.078 366.581 116.083C366.596 116.089 366.611 116.095 366.626 116.101C366.634 116.104 366.643 116.107 366.651 116.11C366.668 116.116 366.685 116.121 366.703 116.125C366.71 116.127 366.717 116.129 366.724 116.13C366.743 116.135 366.763 116.138 366.783 116.14C366.788 116.141 366.794 116.142 366.799 116.143C366.823 116.145 366.846 116.147 366.87 116.147C366.872 116.147 366.874 116.147 366.876 116.147C366.877 116.147 366.877 116.147 366.878 116.147C366.913 116.147 366.947 116.143 366.981 116.138C366.988 116.137 366.995 116.136 367.002 116.135C367.037 116.129 367.07 116.12 367.102 116.109C367.108 116.107 367.114 116.105 367.12 116.103C367.154 116.09 367.187 116.076 367.219 116.058C367.22 116.057 367.221 116.057 367.223 116.056C367.256 116.037 367.288 116.015 367.317 115.992C367.319 115.99 367.322 115.989 367.324 115.987L369.268 114.407L371.211 115.987C371.213 115.989 371.215 115.99 371.217 115.991C371.247 116.015 371.279 116.037 371.313 116.056C371.314 116.057 371.315 116.057 371.316 116.058C371.347 116.076 371.381 116.09 371.415 116.103C371.421 116.105 371.427 116.107 371.433 116.109C371.465 116.12 371.498 116.129 371.532 116.135C371.54 116.136 371.547 116.137 371.554 116.138C371.588 116.143 371.622 116.147 371.657 116.147C371.658 116.147 371.658 116.147 371.659 116.147C371.661 116.147 371.663 116.147 371.664 116.147C371.688 116.147 371.712 116.145 371.736 116.143C371.741 116.142 371.747 116.141 371.752 116.14C371.772 116.138 371.792 116.135 371.811 116.13C371.818 116.129 371.825 116.127 371.832 116.125C371.849 116.121 371.867 116.116 371.884 116.11C371.892 116.107 371.9 116.104 371.908 116.101C371.924 116.095 371.939 116.089 371.954 116.082C371.963 116.078 371.971 116.074 371.98 116.069C371.994 116.062 372.007 116.055 372.02 116.048C372.029 116.042 372.038 116.037 372.048 116.031C372.06 116.023 372.072 116.014 372.083 116.005C372.092 115.999 372.101 115.993 372.109 115.986C372.123 115.974 372.137 115.962 372.15 115.949C372.155 115.944 372.16 115.94 372.166 115.935C372.184 115.916 372.201 115.897 372.217 115.877C372.218 115.876 372.219 115.875 372.22 115.873C372.225 115.867 372.229 115.861 372.233 115.854C372.242 115.843 372.251 115.831 372.259 115.819C372.264 115.81 372.269 115.801 372.275 115.792C372.282 115.78 372.288 115.769 372.295 115.757C372.3 115.747 372.304 115.737 372.309 115.727C372.314 115.715 372.319 115.704 372.324 115.692C372.329 115.681 372.332 115.67 372.336 115.659C372.34 115.648 372.344 115.637 372.347 115.625C372.351 115.613 372.354 115.601 372.357 115.589C372.359 115.578 372.362 115.567 372.364 115.556C372.366 115.543 372.368 115.529 372.37 115.516C372.371 115.506 372.373 115.496 372.374 115.485C372.375 115.47 372.376 115.456 372.376 115.441C372.376 115.433 372.377 115.426 372.377 115.418L372.377 109.846C373.541 108.91 374.29 107.463 374.29 105.841ZM369.726 112.912C369.726 112.912 369.726 112.912 369.726 112.912L369.716 112.904C369.71 112.9 369.705 112.896 369.7 112.892C369.687 112.882 369.674 112.873 369.661 112.864C369.653 112.859 369.645 112.854 369.637 112.849C369.625 112.842 369.613 112.835 369.601 112.828C369.591 112.823 369.581 112.818 369.571 112.813C369.56 112.808 369.549 112.803 369.538 112.798C369.526 112.794 369.514 112.789 369.503 112.785C369.493 112.782 369.483 112.778 369.473 112.775C369.461 112.771 369.448 112.768 369.435 112.765C369.425 112.763 369.416 112.76 369.406 112.758C369.393 112.756 369.381 112.754 369.368 112.752C369.358 112.751 369.347 112.749 369.337 112.748C369.325 112.747 369.314 112.746 369.302 112.746C369.29 112.745 369.278 112.745 369.266 112.745C369.256 112.745 369.246 112.745 369.236 112.746C369.223 112.746 369.21 112.747 369.196 112.748C369.187 112.749 369.179 112.751 369.17 112.752C369.156 112.754 369.142 112.756 369.128 112.759C369.119 112.76 369.111 112.762 369.103 112.764C369.089 112.768 369.075 112.771 369.061 112.775C369.052 112.778 369.043 112.781 369.034 112.784C369.022 112.789 369.009 112.793 368.996 112.799C368.986 112.803 368.976 112.808 368.966 112.813C368.955 112.818 368.944 112.823 368.934 112.828C368.922 112.835 368.91 112.842 368.898 112.849C368.89 112.854 368.882 112.859 368.874 112.864C368.86 112.873 368.848 112.883 368.835 112.893C368.83 112.897 368.824 112.9 368.819 112.904L368.809 112.912C368.809 112.912 368.809 112.913 368.808 112.913L367.593 113.901V110.653C368.117 110.842 368.68 110.946 369.267 110.946C369.854 110.946 370.417 110.842 370.941 110.653L370.942 113.901L369.726 112.912ZM369.267 109.487C367.289 109.487 365.679 107.852 365.679 105.841C365.679 103.831 367.289 102.196 369.267 102.196C371.246 102.196 372.855 103.831 372.855 105.841C372.855 107.852 371.246 109.487 369.267 109.487Z" fill="white"/>
<path d="M369.267 103.654C368.08 103.654 367.115 104.635 367.115 105.841C367.115 107.048 368.08 108.029 369.267 108.029C370.454 108.029 371.42 107.048 371.42 105.841C371.42 104.635 370.454 103.654 369.267 103.654ZM369.267 106.571C368.872 106.571 368.55 106.243 368.55 105.841C368.55 105.439 368.872 105.112 369.267 105.112C369.663 105.112 369.985 105.439 369.985 105.841C369.985 106.243 369.663 106.571 369.267 106.571Z" fill="white"/>
</g>
<path d="M320.937 142.68V143.814H314.997V156H313.629V142.68H320.937ZM323.77 146.298C324.934 146.298 325.864 146.64 326.56 147.324C327.256 147.996 327.604 148.89 327.604 150.006V156H326.344L326.308 154.002C325.984 154.686 325.504 155.22 324.868 155.604C324.244 155.988 323.548 156.18 322.78 156.18C321.844 156.18 321.088 155.928 320.512 155.424C319.936 154.92 319.648 154.248 319.648 153.408C319.648 152.544 320.002 151.848 320.71 151.32C321.43 150.78 322.372 150.51 323.536 150.51C324.484 150.51 325.408 150.618 326.308 150.834V150.168C326.308 149.304 326.05 148.62 325.534 148.116C325.03 147.6 324.34 147.342 323.464 147.342C322.408 147.342 321.538 147.696 320.854 148.404L320.26 147.612C321.16 146.736 322.33 146.298 323.77 146.298ZM323.14 155.208C323.956 155.208 324.688 154.896 325.336 154.272C325.984 153.636 326.308 152.796 326.308 151.752C325.432 151.548 324.562 151.446 323.698 151.446C322.894 151.446 322.24 151.626 321.736 151.986C321.244 152.334 320.998 152.796 320.998 153.372C320.998 153.936 321.19 154.386 321.574 154.722C321.958 155.046 322.48 155.208 323.14 155.208ZM335.519 146.298C336.863 146.298 337.955 146.754 338.795 147.666C339.647 148.566 340.073 149.748 340.073 151.212C340.073 152.7 339.647 153.9 338.795 154.812C337.955 155.724 336.863 156.18 335.519 156.18C333.707 156.18 332.441 155.436 331.721 153.948V159.96H330.425V146.478H331.685L331.721 148.53C332.441 147.042 333.707 146.298 335.519 146.298ZM335.213 155.064C336.269 155.064 337.115 154.716 337.751 154.02C338.399 153.312 338.723 152.382 338.723 151.23C338.723 150.09 338.399 149.172 337.751 148.476C337.115 147.78 336.269 147.432 335.213 147.432C334.169 147.432 333.323 147.78 332.675 148.476C332.039 149.172 331.721 150.096 331.721 151.248C331.721 152.388 332.039 153.312 332.675 154.02C333.323 154.716 334.169 155.064 335.213 155.064ZM345.726 146.298C346.89 146.298 347.82 146.64 348.516 147.324C349.212 147.996 349.56 148.89 349.56 150.006V156H348.3L348.264 154.002C347.94 154.686 347.46 155.22 346.824 155.604C346.2 155.988 345.504 156.18 344.736 156.18C343.8 156.18 343.044 155.928 342.468 155.424C341.892 154.92 341.604 154.248 341.604 153.408C341.604 152.544 341.958 151.848 342.666 151.32C343.386 150.78 344.328 150.51 345.492 150.51C346.44 150.51 347.364 150.618 348.264 150.834V150.168C348.264 149.304 348.006 148.62 347.49 148.116C346.986 147.6 346.296 147.342 345.42 147.342C344.364 147.342 343.494 147.696 342.81 148.404L342.216 147.612C343.116 146.736 344.286 146.298 345.726 146.298ZM345.096 155.208C345.912 155.208 346.644 154.896 347.292 154.272C347.94 153.636 348.264 152.796 348.264 151.752C347.388 151.548 346.518 151.446 345.654 151.446C344.85 151.446 344.196 151.626 343.692 151.986C343.2 152.334 342.954 152.796 342.954 153.372C342.954 153.936 343.146 154.386 343.53 154.722C343.914 155.046 344.436 155.208 345.096 155.208ZM359.706 146.478H361.002V156H359.706V151.662H353.676V156H352.38V146.478H353.676V150.582H359.706V146.478ZM371.669 146.478V147.558H367.853V156H366.557V147.558H362.723V146.478H371.669ZM373.63 144.084C373.378 144.084 373.168 144 373 143.832C372.832 143.664 372.748 143.46 372.748 143.22C372.748 142.968 372.832 142.758 373 142.59C373.168 142.422 373.378 142.338 373.63 142.338C373.87 142.338 374.074 142.422 374.242 142.59C374.41 142.758 374.494 142.968 374.494 143.22C374.494 143.46 374.41 143.664 374.242 143.832C374.074 144 373.87 144.084 373.63 144.084ZM372.982 156V146.478H374.278V156H372.982ZM384.363 146.478V156H383.067V152.292H380.565L377.739 156H376.227L379.251 152.184C378.531 152.016 377.961 151.686 377.541 151.194C377.133 150.702 376.929 150.096 376.929 149.376C376.929 148.512 377.223 147.816 377.811 147.288C378.399 146.748 379.167 146.478 380.115 146.478H384.363ZM380.403 151.266H383.067V147.504H380.331C379.695 147.504 379.185 147.678 378.801 148.026C378.429 148.362 378.243 148.812 378.243 149.376C378.243 149.952 378.441 150.414 378.837 150.762C379.233 151.098 379.755 151.266 380.403 151.266ZM399.38 146.478H400.676V156H399.38V151.662H393.35V156H392.054V146.478H393.35V150.582H399.38V146.478ZM406.933 146.298C408.097 146.298 409.027 146.64 409.723 147.324C410.419 147.996 410.767 148.89 410.767 150.006V156H409.507L409.471 154.002C409.147 154.686 408.667 155.22 408.031 155.604C407.407 155.988 406.711 156.18 405.943 156.18C405.007 156.18 404.251 155.928 403.675 155.424C403.099 154.92 402.811 154.248 402.811 153.408C402.811 152.544 403.165 151.848 403.873 151.32C404.593 150.78 405.535 150.51 406.699 150.51C407.647 150.51 408.571 150.618 409.471 150.834V150.168C409.471 149.304 409.213 148.62 408.697 148.116C408.193 147.6 407.503 147.342 406.627 147.342C405.571 147.342 404.701 147.696 404.017 148.404L403.423 147.612C404.323 146.736 405.493 146.298 406.933 146.298ZM406.303 155.208C407.119 155.208 407.851 154.896 408.499 154.272C409.147 153.636 409.471 152.796 409.471 151.752C408.595 151.548 407.725 151.446 406.861 151.446C406.057 151.446 405.403 151.626 404.899 151.986C404.407 152.334 404.161 152.796 404.161 153.372C404.161 153.936 404.353 154.386 404.737 154.722C405.121 155.046 405.643 155.208 406.303 155.208ZM277.814 172.478H286.436V182H285.14V173.558H279.11V182H277.814V172.478ZM294.474 172.298C295.818 172.298 296.91 172.754 297.75 173.666C298.602 174.566 299.028 175.748 299.028 177.212C299.028 178.7 298.602 179.9 297.75 180.812C296.91 181.724 295.818 182.18 294.474 182.18C292.662 182.18 291.396 181.436 290.676 179.948V185.96H289.38V172.478H290.64L290.676 174.53C291.396 173.042 292.662 172.298 294.474 172.298ZM294.168 181.064C295.224 181.064 296.07 180.716 296.706 180.02C297.354 179.312 297.678 178.382 297.678 177.23C297.678 176.09 297.354 175.172 296.706 174.476C296.07 173.78 295.224 173.432 294.168 173.432C293.124 173.432 292.278 173.78 291.63 174.476C290.994 175.172 290.676 176.096 290.676 177.248C290.676 178.388 290.994 179.312 291.63 180.02C292.278 180.716 293.124 181.064 294.168 181.064ZM305.617 182.18C304.153 182.18 302.971 181.73 302.071 180.83C301.183 179.918 300.739 178.724 300.739 177.248C300.739 175.76 301.183 174.566 302.071 173.666C302.971 172.754 304.153 172.298 305.617 172.298C307.069 172.298 308.239 172.754 309.127 173.666C310.015 174.566 310.459 175.76 310.459 177.248C310.459 178.724 310.015 179.918 309.127 180.83C308.239 181.73 307.069 182.18 305.617 182.18ZM305.617 181.064C306.661 181.064 307.501 180.716 308.137 180.02C308.773 179.312 309.091 178.388 309.091 177.248C309.091 176.096 308.773 175.172 308.137 174.476C307.501 173.78 306.661 173.432 305.617 173.432C304.561 173.432 303.709 173.78 303.061 174.476C302.425 175.172 302.107 176.096 302.107 177.248C302.107 178.388 302.425 179.312 303.061 180.02C303.709 180.716 304.561 181.064 305.617 181.064ZM320.701 180.92H321.727V183.8H320.431V182H312.979V183.8H311.683V180.92H312.079C312.391 180.92 312.649 180.812 312.853 180.596C313.069 180.368 313.183 180.074 313.195 179.714L313.627 172.478H320.701V180.92ZM314.005 180.92H319.405V173.558H314.869L314.455 179.768C314.443 180.212 314.293 180.596 314.005 180.92ZM324.733 186.14C324.277 186.14 323.893 186.068 323.581 185.924L323.725 184.862C323.941 184.97 324.211 185.024 324.535 185.024C324.907 185.024 325.201 184.916 325.417 184.7C325.633 184.484 325.849 184.142 326.065 183.674L326.911 181.874L322.645 172.478H324.067L327.595 180.452L331.015 172.478H332.437L327.343 183.854C327.007 184.634 326.653 185.21 326.281 185.582C325.909 185.954 325.393 186.14 324.733 186.14ZM341.173 182L337.321 177.536H335.395V182H334.099V172.478H335.395V176.456H337.321L340.975 172.478H342.613L338.401 176.978L342.829 182H341.173ZM352.771 180.92H353.797V183.8H352.501V182H344.365V172.478H345.661V180.92H351.475V172.478H352.771V180.92ZM356.808 170.084C356.556 170.084 356.346 170 356.178 169.832C356.01 169.664 355.926 169.46 355.926 169.22C355.926 168.968 356.01 168.758 356.178 168.59C356.346 168.422 356.556 168.338 356.808 168.338C357.048 168.338 357.252 168.422 357.42 168.59C357.588 168.758 357.672 168.968 357.672 169.22C357.672 169.46 357.588 169.664 357.42 169.832C357.252 170 357.048 170.084 356.808 170.084ZM356.16 182V172.478H357.456V182H356.16ZM368.945 172.298C370.397 172.298 371.567 172.754 372.455 173.666C373.343 174.566 373.787 175.76 373.787 177.248C373.787 178.724 373.343 179.918 372.455 180.83C371.567 181.73 370.397 182.18 368.945 182.18C367.565 182.18 366.431 181.766 365.543 180.938C364.655 180.11 364.169 179.018 364.085 177.662H361.727V182H360.431V172.478H361.727V176.582H364.103C364.235 175.286 364.739 174.248 365.615 173.468C366.491 172.688 367.601 172.298 368.945 172.298ZM368.945 181.064C369.989 181.064 370.829 180.716 371.465 180.02C372.101 179.312 372.419 178.388 372.419 177.248C372.419 176.096 372.101 175.172 371.465 174.476C370.829 173.78 369.989 173.432 368.945 173.432C367.889 173.432 367.037 173.78 366.389 174.476C365.753 175.172 365.435 176.096 365.435 177.248C365.435 178.388 365.753 179.312 366.389 180.02C367.037 180.716 367.889 181.064 368.945 181.064ZM383.664 182V170.48L380.334 172.892L379.632 171.884L383.97 168.68H385.032V182H383.664ZM395.996 180.308C395.132 181.556 393.992 182.18 392.576 182.18C391.16 182.18 390.02 181.556 389.156 180.308C388.304 179.048 387.878 177.392 387.878 175.34C387.878 173.288 388.304 171.638 389.156 170.39C390.02 169.13 391.16 168.5 392.576 168.5C393.992 168.5 395.132 169.13 395.996 170.39C396.86 171.638 397.292 173.288 397.292 175.34C397.292 177.392 396.86 179.048 395.996 180.308ZM390.182 179.48C390.794 180.524 391.592 181.046 392.576 181.046C393.56 181.046 394.352 180.524 394.952 179.48C395.564 178.436 395.87 177.056 395.87 175.34C395.87 173.624 395.564 172.244 394.952 171.2C394.352 170.156 393.56 169.634 392.576 169.634C391.592 169.634 390.794 170.156 390.182 171.2C389.582 172.244 389.282 173.624 389.282 175.34C389.282 177.056 389.582 178.436 390.182 179.48ZM409.646 172.298C410.99 172.298 412.082 172.754 412.922 173.666C413.774 174.566 414.2 175.748 414.2 177.212C414.2 178.7 413.774 179.9 412.922 180.812C412.082 181.724 410.99 182.18 409.646 182.18C407.834 182.18 406.568 181.436 405.848 179.948V185.96H404.552V172.478H405.812L405.848 174.53C406.568 173.042 407.834 172.298 409.646 172.298ZM409.34 181.064C410.396 181.064 411.242 180.716 411.878 180.02C412.526 179.312 412.85 178.382 412.85 177.23C412.85 176.09 412.526 175.172 411.878 174.476C411.242 173.78 410.396 173.432 409.34 173.432C408.296 173.432 407.45 173.78 406.802 174.476C406.166 175.172 405.848 176.096 405.848 177.248C405.848 178.388 406.166 179.312 406.802 180.02C407.45 180.716 408.296 181.064 409.34 181.064ZM420.788 182.18C419.324 182.18 418.142 181.73 417.242 180.83C416.354 179.918 415.91 178.724 415.91 177.248C415.91 175.76 416.354 174.566 417.242 173.666C418.142 172.754 419.324 172.298 420.788 172.298C422.24 172.298 423.41 172.754 424.298 173.666C425.186 174.566 425.63 175.76 425.63 177.248C425.63 178.724 425.186 179.918 424.298 180.83C423.41 181.73 422.24 182.18 420.788 182.18ZM420.788 181.064C421.832 181.064 422.672 180.716 423.308 180.02C423.944 179.312 424.262 178.388 424.262 177.248C424.262 176.096 423.944 175.172 423.308 174.476C422.672 173.78 421.832 173.432 420.788 173.432C419.732 173.432 418.88 173.78 418.232 174.476C417.596 175.172 417.278 176.096 417.278 177.248C417.278 178.388 417.596 179.312 418.232 180.02C418.88 180.716 419.732 181.064 420.788 181.064ZM435.023 182L431.171 177.536H429.245V182H427.949V172.478H429.245V176.456H431.171L434.825 172.478H436.463L432.251 176.978L436.679 182H435.023ZM438.88 170.084C438.628 170.084 438.418 170 438.25 169.832C438.082 169.664 437.998 169.46 437.998 169.22C437.998 168.968 438.082 168.758 438.25 168.59C438.418 168.422 438.628 168.338 438.88 168.338C439.12 168.338 439.324 168.422 439.492 168.59C439.66 168.758 439.744 168.968 439.744 169.22C439.744 169.46 439.66 169.664 439.492 169.832C439.324 170 439.12 170.084 438.88 170.084ZM438.232 182V172.478H439.528V182H438.232ZM448.731 177.176C449.367 177.332 449.865 177.608 450.225 178.004C450.597 178.4 450.783 178.88 450.783 179.444C450.783 180.212 450.501 180.83 449.937 181.298C449.385 181.766 448.659 182 447.759 182H442.503V172.478H447.525C448.389 172.478 449.085 172.706 449.613 173.162C450.141 173.618 450.405 174.218 450.405 174.962C450.405 175.49 450.255 175.946 449.955 176.33C449.655 176.714 449.247 176.996 448.731 177.176ZM447.327 173.504H443.799V176.726H447.237C447.789 176.726 448.233 176.576 448.569 176.276C448.917 175.976 449.091 175.58 449.091 175.088C449.091 174.608 448.929 174.224 448.605 173.936C448.281 173.648 447.855 173.504 447.327 173.504ZM447.561 180.992C448.125 180.992 448.581 180.842 448.929 180.542C449.277 180.23 449.451 179.828 449.451 179.336C449.451 178.82 449.271 178.412 448.911 178.112C448.551 177.8 448.071 177.644 447.471 177.644H443.799V180.992H447.561Z" fill="white"/>
<defs>
<clipPath id="clip0">
<rect width="50.569" height="49.7789" fill="white" transform="translate(82.7688 295.404)"/>
</clipPath>
<clipPath id="clip1">
<rect width="50.569" height="49.7789" fill="white" transform="translate(338.241 296.194)"/>
</clipPath>
<clipPath id="clip2">
<rect width="53" height="54" fill="white" transform="translate(83.9824 61)"/>
</clipPath>
<clipPath id="clip3">
<rect width="48.9887" height="49.7789" fill="white" transform="translate(339.031 66.3682)"/>
</clipPath>
</defs>
</svg>
