<svg width="21" height="21" viewBox="0 0 21 21" fill="none" xmlns="http://www.w3.org/2000/svg">
<path fill-rule="evenodd" clip-rule="evenodd" d="M5.88558 3.59123C4.69058 3.59123 3.71891 4.56289 3.71891 5.75789C3.71891 11.9146 8.72808 16.9246 14.8856 16.9246C16.0797 16.9246 17.0522 15.9529 17.0522 14.7579C17.0522 14.6654 17.0464 14.5746 17.0347 14.4846L13.1847 13.6012C13.1081 13.7479 13.0239 13.9071 12.9472 14.0554C12.5672 14.7804 12.2922 15.3071 11.5906 15.0246C8.83558 14.0579 6.58641 11.8079 5.60725 9.01956C5.30975 8.36539 5.87641 8.06873 6.59475 7.69373C6.74058 7.61706 6.89808 7.53456 7.04225 7.45956L6.15891 3.60873C6.06641 3.59706 5.97641 3.59123 5.88558 3.59123ZM14.8856 18.5912C7.80891 18.5912 2.05225 12.8346 2.05225 5.75789C2.05225 3.64373 3.77141 1.92456 5.88558 1.92456C6.10225 1.92456 6.31641 1.94289 6.52391 1.97873C6.72641 2.01123 6.92975 2.06289 7.12808 2.13123C7.39891 2.22539 7.60308 2.45289 7.66725 2.73289L8.80808 7.70289C8.87141 7.97623 8.79225 8.26289 8.59725 8.46623C8.48391 8.58456 8.48141 8.58706 7.44808 9.12789C8.28475 10.9396 9.73891 12.3887 11.5139 13.1971C12.0556 12.1629 12.0589 12.1596 12.1772 12.0462C12.3806 11.8512 12.6689 11.7754 12.9406 11.8354L17.9114 12.9762C18.1906 13.0404 18.4181 13.2437 18.5114 13.5146C18.5797 13.7112 18.6314 13.9146 18.6656 14.1237C18.7006 14.3296 18.7189 14.5429 18.7189 14.7579C18.7189 16.8721 16.9989 18.5912 14.8856 18.5912Z" fill="rgba(69, 72, 75, 0.4)"/>
<mask id="mask0" mask-type="alpha" maskUnits="userSpaceOnUse" x="2" y="1" width="17" height="18">
<path fill-rule="evenodd" clip-rule="evenodd" d="M5.88558 3.59123C4.69058 3.59123 3.71891 4.56289 3.71891 5.75789C3.71891 11.9146 8.72808 16.9246 14.8856 16.9246C16.0797 16.9246 17.0522 15.9529 17.0522 14.7579C17.0522 14.6654 17.0464 14.5746 17.0347 14.4846L13.1847 13.6012C13.1081 13.7479 13.0239 13.9071 12.9472 14.0554C12.5672 14.7804 12.2922 15.3071 11.5906 15.0246C8.83558 14.0579 6.58641 11.8079 5.60725 9.01956C5.30975 8.36539 5.87641 8.06873 6.59475 7.69373C6.74058 7.61706 6.89808 7.53456 7.04225 7.45956L6.15891 3.60873C6.06641 3.59706 5.97641 3.59123 5.88558 3.59123ZM14.8856 18.5912C7.80891 18.5912 2.05225 12.8346 2.05225 5.75789C2.05225 3.64373 3.77141 1.92456 5.88558 1.92456C6.10225 1.92456 6.31641 1.94289 6.52391 1.97873C6.72641 2.01123 6.92975 2.06289 7.12808 2.13123C7.39891 2.22539 7.60308 2.45289 7.66725 2.73289L8.80808 7.70289C8.87141 7.97623 8.79225 8.26289 8.59725 8.46623C8.48391 8.58456 8.48141 8.58706 7.44808 9.12789C8.28475 10.9396 9.73891 12.3887 11.5139 13.1971C12.0556 12.1629 12.0589 12.1596 12.1772 12.0462C12.3806 11.8512 12.6689 11.7754 12.9406 11.8354L17.9114 12.9762C18.1906 13.0404 18.4181 13.2437 18.5114 13.5146C18.5797 13.7112 18.6314 13.9146 18.6656 14.1237C18.7006 14.3296 18.7189 14.5429 18.7189 14.7579C18.7189 16.8721 16.9989 18.5912 14.8856 18.5912Z" fill="rgba(69, 72, 75, 0.4)"/>
</mask>
<g mask="url(#mask0)">
<path d="M0.385498 0.257812H20.3855V20.2578H0.385498V0.257812Z" fill="rgba(69, 72, 75, 0.8)"/>
</g>
</svg>
