<svg width="1684" height="908" viewBox="0 0 1684 908" fill="none" xmlns="http://www.w3.org/2000/svg">
<path d="M112 179L125.856 203H98.1436L112 179Z" stroke="#999999" stroke-width="4"/>
<path d="M102 189L115.856 213H88.1436L102 189Z" stroke="white" stroke-width="4"/>
<path d="M1522 680L1568.08 726.037C1569.19 727.145 1570.96 727.212 1572.15 726.192L1624.07 681.675C1625.19 680.711 1626.85 680.711 1627.97 681.675L1682 728" stroke="white" stroke-width="4" stroke-linecap="round" stroke-linejoin="round"/>
<circle cx="1622" cy="40" r="18" stroke="#999999" stroke-width="4"/>
<circle cx="1602" cy="20" r="18" stroke="white" stroke-width="4"/>
<circle r="11.3333" transform="matrix(-1 0 0 1 970.333 894.667)" stroke="#999999" stroke-width="4"/>
<circle r="11.3333" transform="matrix(-1 0 0 1 983.667 881.333)" stroke="white" stroke-width="4"/>
<path fill-rule="evenodd" clip-rule="evenodd" d="M43.4142 809.414C44.1953 808.633 44.1953 807.367 43.4142 806.586C42.6332 805.805 41.3668 805.805 40.5858 806.586L22 825.172L3.41427 806.586C2.63322 805.805 1.36689 805.805 0.585846 806.586C-0.195203 807.367 -0.195203 808.633 0.585846 809.414L19.1716 828L0.585787 846.586C-0.195261 847.367 -0.195261 848.633 0.585787 849.414C1.36684 850.195 2.63317 850.195 3.41421 849.414L22 830.828L40.5858 849.414C41.3669 850.195 42.6332 850.195 43.4143 849.414C44.1953 848.633 44.1953 847.367 43.4143 846.586L24.8285 828L43.4142 809.414Z" fill="#999999"/>
</svg>
