<svg width="20" height="21" viewBox="0 0 20 21" fill="none" xmlns="http://www.w3.org/2000/svg">
<path fill-rule="evenodd" clip-rule="evenodd" d="M15.8334 15.1696H4.16669C3.70752 15.1696 3.33335 14.7963 3.33335 14.3363V6.21126L9.50002 10.8363C9.64835 10.9479 9.82419 11.0029 10 11.0029C10.1759 11.0029 10.3517 10.9479 10.5 10.8363L16.6667 6.21126V14.3363C16.6667 14.7963 16.2925 15.1696 15.8334 15.1696ZM15.2775 5.1696L10 9.12793L4.72252 5.1696H15.2775ZM15.8334 3.50293H4.16669C2.78835 3.50293 1.66669 4.6246 1.66669 6.00293V14.3363C1.66669 15.7146 2.78835 16.8363 4.16669 16.8363H15.8334C17.2117 16.8363 18.3334 15.7146 18.3334 14.3363V6.00293C18.3334 4.6246 17.2117 3.50293 15.8334 3.50293Z" fill="rgba(69, 72, 75, 0.4)"/>
<mask id="mask0" mask-type="alpha" maskUnits="userSpaceOnUse" x="1" y="3" width="18" height="14">
<path fill-rule="evenodd" clip-rule="evenodd" d="M15.8334 15.1696H4.16669C3.70752 15.1696 3.33335 14.7963 3.33335 14.3363V6.21126L9.50002 10.8363C9.64835 10.9479 9.82419 11.0029 10 11.0029C10.1759 11.0029 10.3517 10.9479 10.5 10.8363L16.6667 6.21126V14.3363C16.6667 14.7963 16.2925 15.1696 15.8334 15.1696ZM15.2775 5.1696L10 9.12793L4.72252 5.1696H15.2775ZM15.8334 3.50293H4.16669C2.78835 3.50293 1.66669 4.6246 1.66669 6.00293V14.3363C1.66669 15.7146 2.78835 16.8363 4.16669 16.8363H15.8334C17.2117 16.8363 18.3334 15.7146 18.3334 14.3363V6.00293C18.3334 4.6246 17.2117 3.50293 15.8334 3.50293Z" fill="rgba(69, 72, 75, 0.4)"/>
</mask>
<g mask="url(#mask0)">
<path d="M0 0H20V20H0V0Z" fill="rgba(69, 72, 75, 0.8)"/>
</g>
</svg>
