<svg width="1522" height="712" viewBox="0 0 1522 712" fill="none" xmlns="http://www.w3.org/2000/svg">
<circle cx="40" cy="40" r="18" stroke="#41B590" stroke-opacity="0.5" stroke-width="4"/>
<circle cx="20" cy="20" r="18" stroke="#41B590" stroke-width="4"/>
<circle r="11.3333" transform="matrix(-1 0 0 1 1133.33 96.6667)" stroke="#41B590" stroke-opacity="0.5" stroke-width="4"/>
<circle r="11.3333" transform="matrix(-1 0 0 1 1146.67 83.3333)" stroke="#41B590" stroke-width="4"/>
<path d="M1360 380L1406.08 426.037C1407.19 427.145 1408.96 427.212 1410.15 426.192L1462.07 381.675C1463.19 380.711 1464.85 380.711 1465.97 381.675L1520 428" stroke="#41B590" stroke-width="4" stroke-linecap="round" stroke-linejoin="round"/>
<path d="M206 579L182 592.856V565.144L206 579Z" stroke="#41B590" stroke-opacity="0.5" stroke-width="4"/>
<path d="M196 569L172 582.856V555.144L196 569Z" stroke="#41B590" stroke-width="4"/>
<path fill-rule="evenodd" clip-rule="evenodd" d="M1281.41 668.586C1280.63 667.805 1279.37 667.805 1278.59 668.586C1277.8 669.367 1277.8 670.633 1278.59 671.414L1297.17 690L1278.59 708.586C1277.8 709.367 1277.8 710.633 1278.59 711.414C1279.37 712.195 1280.63 712.195 1281.41 711.414L1300 692.828L1318.59 711.414C1319.37 712.195 1320.63 712.195 1321.41 711.414C1322.2 710.633 1322.2 709.367 1321.41 708.586L1302.83 690L1321.41 671.414C1322.2 670.633 1322.2 669.367 1321.41 668.586C1320.63 667.805 1319.37 667.805 1318.59 668.586L1300 687.172L1281.41 668.586Z" fill="#41B590" fill-opacity="0.5"/>
</svg>
