<svg width="1920" height="1080" viewBox="0 0 1920 1080" fill="none" xmlns="http://www.w3.org/2000/svg">
<path fill-rule="evenodd" clip-rule="evenodd" d="M441.414 437.414C442.195 436.633 442.195 435.367 441.414 434.586C440.633 433.805 439.367 433.805 438.586 434.586L420 453.172L401.414 434.586C400.633 433.805 399.367 433.805 398.586 434.586C397.805 435.367 397.805 436.633 398.586 437.414L417.172 456L398.586 474.586C397.805 475.367 397.805 476.633 398.586 477.414C399.367 478.195 400.633 478.195 401.414 477.414L420 458.828L438.586 477.414C439.367 478.195 440.633 478.195 441.414 477.414C442.195 476.633 442.195 475.367 441.414 474.586L422.828 456L441.414 437.414Z" fill="#999999"/>
<path d="M644 864L668 850.144V877.856L644 864Z" stroke="#999999" stroke-width="4"/>
<path d="M654 874L678 860.144V887.856L654 874Z" stroke="white" stroke-width="4"/>
</svg>
