<svg width="501" height="494" viewBox="0 0 501 494" fill="none" xmlns="http://www.w3.org/2000/svg">
<circle r="11.3333" transform="matrix(-1 0 0 1 433.333 363.667)" stroke="#999999" stroke-width="4"/>
<circle r="11.3333" transform="matrix(-1 0 0 1 446.667 350.333)" stroke="white" stroke-width="4"/>
<circle cx="56" cy="20" r="8" stroke="#999999" stroke-width="4"/>
<circle cx="46" cy="10" r="8" stroke="white" stroke-width="4"/>
<path d="M46 427L22 440.856L22 413.144L46 427Z" stroke="#999999" stroke-width="4"/>
<path d="M36 417L12 430.856L12 403.144L36 417Z" stroke="white" stroke-width="4"/>
<path d="M419 10L441.057 32.037C442.166 33.1448 443.941 33.2123 445.13 32.1921L469.058 11.6745C470.182 10.711 471.84 10.711 472.964 11.6745L499 34" stroke="white" stroke-width="4" stroke-linecap="round" stroke-linejoin="round"/>
<path fill-rule="evenodd" clip-rule="evenodd" d="M279.414 460.586C278.633 459.805 277.367 459.805 276.586 460.586C275.805 461.367 275.805 462.633 276.586 463.414L289.717 476.545L276.586 489.677C275.805 490.458 275.805 491.724 276.586 492.505C277.367 493.286 278.633 493.286 279.414 492.505L292.545 479.374L305.677 492.505C306.458 493.286 307.724 493.286 308.505 492.505C309.286 491.724 309.286 490.458 308.505 489.677L295.374 476.545L308.505 463.414C309.286 462.633 309.286 461.367 308.505 460.586C307.724 459.805 306.458 459.805 305.677 460.586L292.545 473.717L279.414 460.586Z" fill="#999999"/>
</svg>
