<svg width="46" height="46" viewBox="0 0 46 46" fill="none" xmlns="http://www.w3.org/2000/svg">
<g opacity="0.6">
<path d="M43.8217 44.5771H40.9471C40.5499 44.5771 40.2283 44.2554 40.2283 43.8585V2.17805C40.2283 1.78112 40.5499 1.45947 40.9471 1.45947H43.8217C44.2183 1.45947 44.54 1.78112 44.54 2.17805V43.8585C44.54 44.2554 44.2183 44.5771 43.8217 44.5771ZM41.6657 43.1399H43.1028V2.89662H41.6657V43.1399Z" fill="#00A54C"/>
<path d="M40.9471 44.5772C40.8671 44.5769 40.7876 44.5638 40.7118 44.5377L22.0276 38.07C21.7381 37.97 21.5441 37.6973 21.5441 37.3909V8.64559C21.5441 8.33948 21.7381 8.06705 22.0276 7.96677L40.7118 1.49907C40.9316 1.423 41.1745 1.45775 41.3638 1.59278C41.553 1.72754 41.6657 1.94575 41.6657 2.17816V43.8586C41.6657 44.2555 41.3438 44.5772 40.9471 44.5772ZM22.9812 36.8792L40.2283 42.8524V3.18417L22.9812 9.15755V36.8792Z" fill="#00A54C"/>
<path d="M38.0723 40.4876C37.9936 40.4876 37.9154 40.4744 37.8409 40.4489L24.9055 36.0511C24.6144 35.9516 24.4183 35.6784 24.4183 35.3705V10.6668C24.4189 10.3593 24.6144 10.0861 24.9055 9.98716L37.8409 5.58886C38.0602 5.51463 38.3018 5.55016 38.4905 5.68467C38.6785 5.81943 38.7909 6.03658 38.7911 6.26821V39.769C38.7911 40.166 38.4695 40.4876 38.0723 40.4876ZM25.8557 34.8567L37.354 38.7654V7.27211L25.8557 11.1806V34.8567Z" fill="#00A54C"/>
<path d="M33.0423 26.6116C32.9507 26.6119 32.8602 26.5945 32.7754 26.5605C32.5986 26.49 32.4567 26.3518 32.3814 26.1765C32.3064 26.0015 32.3038 25.8033 32.3746 25.6264L33.8117 22.0333C33.9209 21.76 34.1855 21.5811 34.4795 21.5811H35.9166C36.3133 21.5811 36.6352 21.903 36.6352 22.2999C36.6352 22.6966 36.3133 23.0185 35.9166 23.0185H34.9659L33.7096 26.1597C33.6009 26.4326 33.3363 26.6116 33.0423 26.6116Z" fill="#00A54C"/>
<path d="M10.0461 18.7066C9.64918 18.7066 9.32727 18.3849 9.32727 17.9877V2.17805C9.32727 1.78112 9.64918 1.45947 10.0461 1.45947C10.4428 1.45947 10.7647 1.78112 10.7647 2.17805V17.9877C10.7647 18.3849 10.4428 18.7066 10.0461 18.7066Z" fill="#00A54C"/>
<path d="M10.0461 5.77116C9.85528 5.77116 9.67287 5.69535 9.53785 5.56058L7.38213 3.40486C7.10996 3.12296 7.11391 2.67445 7.39081 2.39728C7.66798 2.12038 8.11623 2.11643 8.39839 2.38859L10.0461 4.03658L11.6938 2.38859C11.9757 2.11643 12.424 2.12038 12.7011 2.39728C12.9786 2.67445 12.9825 3.12296 12.7101 3.40486L10.5541 5.56058C10.4196 5.69535 10.2367 5.77116 10.0461 5.77116Z" fill="#00A54C"/>
<path d="M12.2018 17.9878C12.0113 17.9878 11.8286 17.9122 11.6938 17.7772L10.0461 16.1295L8.39839 17.7772C8.11623 18.0496 7.66798 18.0457 7.39081 17.7688C7.11391 17.4913 7.10996 17.0433 7.38213 16.7612L9.53785 14.6055C9.81843 14.3249 10.2735 14.3249 10.5541 14.6055L12.7101 16.7612C12.9154 16.9667 12.977 17.2758 12.8657 17.5442C12.7546 17.8127 12.4927 17.9878 12.2018 17.9878Z" fill="#00A54C"/>
<path d="M17.4566 14.7545C17.3389 14.7545 17.2234 14.7256 17.1194 14.6703L2.27757 6.76572C2.05094 6.6449 1.90591 6.41222 1.89696 6.15559C1.88827 5.89922 2.01672 5.65706 2.23466 5.52124C2.4526 5.38516 2.72635 5.37569 2.95297 5.4965L17.794 13.4013C18.0859 13.5564 18.2344 13.8899 18.1541 14.2102C18.0741 14.5305 17.7859 14.7551 17.4555 14.7545H17.4566Z" fill="#00A54C"/>
<path d="M2.14125 9.07715C1.77644 9.08083 1.46637 8.81051 1.42083 8.44886C1.37504 8.08667 1.60798 7.74765 1.96227 7.66053L4.31856 7.05487L3.69421 4.8165C3.61814 4.56697 3.68342 4.29586 3.86451 4.10845C4.0456 3.92052 4.31408 3.84603 4.56598 3.91262C4.81787 3.97974 5.01397 4.17794 5.07819 4.43063L5.90021 7.37705C5.95233 7.56288 5.92679 7.76187 5.83046 7.92901C5.73386 8.09641 5.57435 8.21775 5.38694 8.26592L2.32024 9.05635C2.26154 9.07083 2.20153 9.07767 2.14125 9.07715Z" fill="#00A54C"/>
<path d="M15.706 16.2635C15.3838 16.2627 15.1014 16.0481 15.0148 15.7381L14.1933 12.7914C14.1415 12.6056 14.1667 12.4066 14.2631 12.2392C14.3594 12.072 14.5194 11.9507 14.7063 11.9025L17.7722 11.1121C18.021 11.0481 18.285 11.1213 18.465 11.3045C18.6448 11.4882 18.7132 11.7535 18.6445 12.001C18.5758 12.2486 18.38 12.4405 18.1313 12.5048L15.7763 13.1107L16.4001 15.349C16.4606 15.5657 16.4162 15.7981 16.2803 15.9771C16.144 16.1561 15.9324 16.2613 15.7073 16.2611L15.706 16.2635Z" fill="#00A54C"/>
<path d="M2.61608 14.7545C2.28601 14.755 1.99806 14.5305 1.91778 14.2102C1.8375 13.8898 1.98621 13.5563 2.27759 13.4013L17.1189 5.49648C17.3455 5.37566 17.6193 5.38514 17.837 5.52148C18.0546 5.65756 18.1834 5.89946 18.1744 6.15609C18.1655 6.41272 18.0202 6.64488 17.7935 6.76569L2.95247 14.6703C2.84877 14.7255 2.73321 14.7545 2.61608 14.7545Z" fill="#00A54C"/>
<path d="M4.38673 16.2636C4.32119 16.2636 4.25618 16.2546 4.193 16.2367C3.81108 16.1299 3.58788 15.7343 3.69421 15.3523L4.31856 13.1137L1.96227 12.5057C1.71353 12.4412 1.51822 12.2496 1.44926 12.0022C1.38056 11.7547 1.449 11.4892 1.62904 11.306C1.80908 11.1228 2.07282 11.0496 2.32155 11.1136L5.38878 11.904C5.57567 11.9521 5.73544 12.0735 5.83177 12.2409C5.92864 12.408 5.95364 12.607 5.90153 12.7929L5.07951 15.7395C4.99238 16.0496 4.70917 16.2639 4.38673 16.2636Z" fill="#00A54C"/>
<path d="M17.9512 9.07694C17.8925 9.07694 17.8343 9.0701 17.7777 9.05615L14.5855 8.26572C14.3957 8.2186 14.233 8.09621 14.1354 7.92696C14.0377 7.75719 14.0135 7.55504 14.0683 7.36737L14.9234 4.42121C14.9916 4.17037 15.1898 3.97638 15.4417 3.91321C15.6933 3.85004 15.96 3.92768 16.1382 4.11614C16.3169 4.30461 16.3801 4.57466 16.3029 4.82287L15.6562 7.05046L18.1228 7.6598C18.4771 7.7456 18.7111 8.08278 18.6671 8.44496C18.6234 8.80688 18.3155 9.07852 17.9512 9.07694Z" fill="#00A54C"/>
<path d="M15.0764 40.2656C14.7858 40.2656 14.5239 40.0905 14.4128 39.8218C14.3015 39.5533 14.3628 39.2446 14.5684 39.0387L28.4329 25.1745L18.8801 15.6216C18.6076 15.3397 18.6116 14.8915 18.889 14.614C19.1659 14.3371 19.6142 14.3332 19.8963 14.6056L29.9572 24.6662C30.2375 24.9468 30.2375 25.4016 29.9572 25.6825L15.5846 40.055C15.4496 40.1898 15.2672 40.2656 15.0764 40.2656Z" fill="#00A54C"/>
<path d="M20.8255 40.2654H15.0764C14.6794 40.2654 14.3578 39.9437 14.3578 39.5465V33.7977C14.3578 33.401 14.6794 33.0791 15.0764 33.0791C15.4733 33.0791 15.7949 33.401 15.7949 33.7977V38.8282H20.8255C21.2221 38.8282 21.5441 39.1499 21.5441 39.5465C21.5441 39.9437 21.2221 40.2654 20.8255 40.2654Z" fill="#00A54C"/>
</g>
</svg>
