<svg width="46" height="46" viewBox="0 0 46 46" fill="none" xmlns="http://www.w3.org/2000/svg">
<g opacity="0.6" clip-path="url(#clip0)">
<path d="M45.997 4.92685C46.0197 4.48099 45.8412 4.04837 45.5108 3.7481L42.2515 0.488816C41.9528 0.155594 41.5188 -0.0235767 41.072 0.00190337C40.6925 0.0377375 40.3391 0.210606 40.0778 0.488096L36.5328 4.03379C35.8113 3.56344 35.0429 3.16945 34.2398 2.85828C32.6205 2.24946 31.2504 2.24406 30.2871 2.80804C29.413 2.33743 28.3353 2.48355 27.6181 3.16999C26.901 3.85642 26.7076 4.92667 27.1395 5.82054L3.29281 29.6675C2.2818 29.1842 1.06965 29.5 0.423015 30.4152C-0.22362 31.3304 -0.116388 32.5784 0.676826 33.3699L12.6283 45.3221H12.6291C13.4202 46.1171 14.6695 46.2254 15.5855 45.5782C16.5014 44.931 16.8167 43.7173 16.3316 42.7061L40.1781 18.8597C41.0721 19.2916 42.1425 19.0982 42.829 18.3809C43.5154 17.6636 43.6615 16.5856 43.1907 15.7114C43.7542 14.7475 43.7476 13.3771 43.1407 11.7591C42.8295 10.9561 42.4355 10.1875 41.9652 9.46609L45.5109 5.92102C45.7884 5.65974 45.9611 5.30635 45.997 4.92685ZM14.8019 44.2357C14.4984 44.5264 14.0196 44.5264 13.7162 44.2357H13.7154L1.76329 32.2827C1.46437 31.9825 1.46491 31.4971 1.76455 31.1976C2.06418 30.8982 2.54975 30.8979 2.84965 31.1971L14.8019 43.1493C15.1012 43.4496 15.1012 43.9354 14.8019 44.2357ZM15.3451 41.5196L4.4793 30.6538L28.1257 7.00748L38.9915 17.8733L15.3451 41.5196ZM41.7076 17.3301C41.407 17.6293 40.9212 17.6289 40.6211 17.3293V17.3301L28.6696 5.37784C28.3696 5.07784 28.3696 4.59138 28.6696 4.29138C28.9696 3.99138 29.4561 3.99138 29.7561 4.29138L41.7076 16.2429C42.0069 16.5434 42.0069 17.0294 41.7076 17.3301ZM42.0431 14.4056L31.5931 3.95555C32.3128 3.89585 33.0363 4.01299 33.7004 4.29669C35.4902 5.04282 37.1066 6.15061 38.4482 7.55067C39.8483 8.89229 40.9561 10.5087 41.7023 12.2985C41.9858 12.9626 42.1028 13.686 42.0431 14.4056ZM41.0635 8.19487C40.1157 6.97804 39.0208 5.88321 37.804 4.9354L41.1642 1.57456L44.4242 4.83456L41.0635 8.19487Z" fill="#00A54C"/>
<path d="M40.867 4.12537C40.8212 4.14788 40.7754 4.17111 40.7364 4.19443C40.6948 4.2236 40.6563 4.257 40.6216 4.29419C40.55 4.36459 40.4927 4.44815 40.4528 4.54025C40.4131 4.63245 40.3921 4.73167 40.3913 4.83206C40.3914 4.93497 40.4124 5.0368 40.4528 5.13143C40.4896 5.22524 40.5474 5.30943 40.6216 5.37758C40.7661 5.52209 40.9628 5.6024 41.1672 5.60042C41.3696 5.60357 41.5642 5.5229 41.7051 5.37758C41.7791 5.30925 41.8368 5.22515 41.8739 5.13152C41.9134 5.03653 41.9343 4.93497 41.9354 4.83215C41.9342 4.73176 41.9133 4.63263 41.8739 4.54025C41.8368 4.44662 41.7791 4.36252 41.7051 4.29419C41.5251 4.11105 41.2655 4.0302 41.0134 4.07882C40.9676 4.09458 40.9135 4.10961 40.867 4.12537Z" fill="#00A54C"/>
</g>
<defs>
<clipPath id="clip0">
<rect width="46" height="46" fill="#00A54C"/>
</clipPath>
</defs>
</svg>
