<svg width="46" height="46" viewBox="0 0 46 46" fill="none" xmlns="http://www.w3.org/2000/svg">
<g opacity="0.6">
<path d="M44.5625 15.4214C44.5674 13.6273 44.2164 11.8501 43.5299 10.1926C42.8433 8.53502 41.8348 7.03012 40.5627 5.76497L40.2351 5.43735C38.97 4.16529 37.4651 3.15678 35.8075 2.47022C34.15 1.78365 32.3727 1.43266 30.5787 1.43755C29.7984 1.43856 29.0443 1.71839 28.4522 2.22657C27.8602 2.73474 27.4692 3.43778 27.35 4.20884H27.3499L25.9723 13.6563H23.7188C23.2687 13.6561 22.8298 13.7968 22.4637 14.0587C22.0976 14.3206 21.8227 14.6905 21.6776 15.1166C21.5325 15.5427 21.5244 16.0035 21.6546 16.4344C21.7847 16.8653 22.0465 17.2447 22.4032 17.5192L20.5161 19.4063H17.9688C17.5187 19.4061 17.0798 19.5468 16.7137 19.8087C16.3476 20.0706 16.0727 20.4405 15.9276 20.8666C15.7825 21.2927 15.7744 21.7535 15.9046 22.1844C16.0347 22.6153 16.2965 22.9947 16.6532 23.2692L14.7661 25.1563H12.2188C11.7687 25.1561 11.3298 25.2968 10.9637 25.5587C10.5976 25.8206 10.3227 26.1905 10.1776 26.6166C10.0325 27.0427 10.0244 27.5035 10.1546 27.9344C10.2847 28.3653 10.5465 28.7447 10.9032 29.0192L9.01607 30.9063H6.46877C6.01767 30.9061 5.57787 31.0474 5.21135 31.3104C4.84483 31.5734 4.57006 31.9447 4.42576 32.3721C4.28146 32.7995 4.27491 33.2614 4.40703 33.6927C4.53915 34.124 4.80328 34.503 5.1622 34.7763C5.13196 34.8191 5.10647 34.865 5.0862 34.9133L4.36247 36.6563H4.31252C3.88219 36.656 3.46162 36.7845 3.105 37.0254C2.74838 37.2663 2.47205 37.6084 2.31161 38.0077C2.15118 38.407 2.11399 38.8452 2.20483 39.2659C2.29568 39.6865 2.5104 40.0703 2.82133 40.3678L1.49245 43.5681C1.4379 43.6995 1.42356 43.8441 1.45125 43.9837C1.47894 44.1232 1.54742 44.2514 1.648 44.352C1.74859 44.4526 1.87677 44.5211 2.01631 44.5488C2.15585 44.5765 2.30047 44.5622 2.43186 44.5076L10.9545 40.9688H13.6563C14.1064 40.9691 14.5453 40.8284 14.9114 40.5664C15.2775 40.3045 15.5523 39.9346 15.6975 39.5085C15.8426 39.0824 15.8506 38.6216 15.7205 38.1907C15.5904 37.7598 15.3286 37.3805 14.9719 37.1059L16.859 35.2188H19.4063C19.8564 35.2191 20.2953 35.0784 20.6614 34.8164C21.0275 34.5545 21.3023 34.1846 21.4475 33.7585C21.5926 33.3324 21.6006 32.8716 21.4705 32.4407C21.3404 32.0098 21.0786 31.6304 20.7219 31.3559L22.609 29.4688H25.1563C25.6064 29.469 26.0453 29.3284 26.4114 29.0664C26.7775 28.8045 27.0523 28.4346 27.1975 28.0085C27.3426 27.5824 27.3506 27.1216 27.2205 26.6907C27.0904 26.2598 26.8286 25.8804 26.4719 25.6059L28.359 23.7188H30.9063C31.3353 23.7191 31.7546 23.5913 32.1105 23.3519C32.4664 23.1125 32.7428 22.7722 32.9042 22.3748C33.0656 21.9773 33.1047 21.5407 33.0165 21.1209C32.9283 20.7011 32.7167 20.3172 32.409 20.0183L41.7912 18.6501C42.5623 18.5308 43.2653 18.1399 43.7735 17.5479C44.2817 16.9558 44.5615 16.2016 44.5625 15.4214ZM23.7188 15.0938H26.2961L27.7336 16.5313H23.7188C23.5282 16.5313 23.3453 16.4556 23.2105 16.3208C23.0757 16.186 23 16.0032 23 15.8126C23 15.6219 23.0757 15.4391 23.2105 15.3043C23.3453 15.1695 23.5282 15.0938 23.7188 15.0938ZM23.9866 17.9688H29.4688C29.6109 17.9688 29.7499 17.9266 29.8681 17.8476C29.9863 17.7687 30.0784 17.6564 30.1328 17.5251C30.1872 17.3937 30.2014 17.2492 30.1737 17.1098C30.146 16.9704 30.0775 16.8423 29.977 16.7418L27.357 14.1218L28.0726 9.21494C28.7505 11.1524 29.8581 12.9114 31.3123 14.3601L31.6399 14.6878C33.0886 16.142 34.8476 17.2495 36.7851 17.9275L31.5213 18.6951C31.4161 18.7104 31.3155 18.7488 31.227 18.8077C31.1384 18.8666 31.0641 18.9444 31.0093 19.0355L30.6385 19.4063H22.5491L23.9866 17.9688ZM3.48717 42.5129L4.13174 40.9606C4.1914 40.9656 4.25159 40.9688 4.31252 40.9688H7.2059L3.48717 42.5129ZM13.6563 39.5313H4.31252C4.1219 39.5313 3.93908 39.4556 3.80429 39.3208C3.6695 39.186 3.59377 39.0032 3.59377 38.8126C3.59377 38.6219 3.6695 38.4391 3.80429 38.3043C3.93908 38.1695 4.1219 38.0938 4.31252 38.0938H13.6563C13.8469 38.0938 14.0297 38.1695 14.1645 38.3043C14.2993 38.4391 14.375 38.6219 14.375 38.8126C14.375 39.0032 14.2993 39.186 14.1645 39.3208C14.0297 39.4556 13.8469 39.5313 13.6563 39.5313ZM13.3884 36.6563H5.91896L6.3591 35.5963L6.7366 35.2188H14.8259L13.3884 36.6563ZM19.4063 33.7813H6.46877C6.27815 33.7813 6.09533 33.7056 5.96054 33.5708C5.82575 33.436 5.75002 33.2532 5.75002 33.0626C5.75002 32.8719 5.82575 32.6891 5.96054 32.5543C6.09533 32.4195 6.27815 32.3438 6.46877 32.3438H19.4063C19.5969 32.3438 19.7797 32.4195 19.9145 32.5543C20.0493 32.6891 20.125 32.8719 20.125 33.0626C20.125 33.2532 20.0493 33.436 19.9145 33.5708C19.7797 33.7056 19.5969 33.7813 19.4063 33.7813ZM19.1384 30.9063H11.0491L12.4866 29.4688H20.5759L19.1384 30.9063ZM25.1563 28.0313H12.2188C12.0281 28.0313 11.8453 27.9556 11.7105 27.8208C11.5757 27.686 11.5 27.5032 11.5 27.3126C11.5 27.1219 11.5757 26.9391 11.7105 26.8043C11.8453 26.6695 12.0281 26.5938 12.2188 26.5938H25.1563C25.3469 26.5938 25.5297 26.6695 25.6645 26.8043C25.7993 26.9391 25.875 27.1219 25.875 27.3126C25.875 27.5032 25.7993 27.686 25.6645 27.8208C25.5297 27.9556 25.3469 28.0313 25.1563 28.0313ZM24.8884 25.1563H16.7991L18.2366 23.7188H26.3259L24.8884 25.1563ZM30.9063 22.2813H17.9688C17.7782 22.2813 17.5953 22.2056 17.4605 22.0708C17.3257 21.936 17.25 21.7532 17.25 21.5626C17.25 21.3719 17.3257 21.1891 17.4605 21.0543C17.5953 20.9195 17.7782 20.8438 17.9688 20.8438H30.9063C31.0969 20.8438 31.2797 20.9195 31.4145 21.0543C31.5493 21.1891 31.625 21.3719 31.625 21.5626C31.625 21.7532 31.5493 21.936 31.4145 22.0708C31.2797 22.2056 31.0969 22.2813 30.9063 22.2813ZM41.2964 17.2501C39.6912 17.2544 38.101 16.9404 36.6179 16.3261C35.1349 15.7118 33.7884 14.8094 32.6565 13.6712L32.3289 13.3436C31.1907 12.2116 30.2883 10.8652 29.674 9.38213C29.0597 7.89909 28.7456 6.30892 28.75 4.70369C28.7506 4.21887 28.9434 3.75408 29.2862 3.41126C29.6291 3.06845 30.0938 2.87561 30.5787 2.87505C32.1839 2.87066 33.7741 3.18471 35.2571 3.79902C36.7402 4.41333 38.0866 5.31569 39.2186 6.45389L39.5462 6.7815C40.6844 7.91345 41.5868 9.25992 42.2011 10.743C42.8154 12.226 43.1294 13.8162 43.125 15.4214C43.1245 15.9062 42.9316 16.371 42.5888 16.7138C42.246 17.0567 41.7812 17.2495 41.2964 17.2501Z" fill="#00A54C"/>
<path d="M38.7757 8.13361C38.8179 8.00697 38.824 7.87107 38.7933 7.74114C38.7627 7.61122 38.6964 7.4924 38.602 7.39801C38.5077 7.30362 38.3888 7.23737 38.2589 7.20671C38.129 7.17604 37.9931 7.18216 37.8664 7.22438L36.0437 7.83196L32.0237 5.152C31.8855 5.05982 31.7195 5.01838 31.5542 5.03474C31.3888 5.05111 31.2343 5.12426 31.1168 5.24176C30.9993 5.35925 30.9261 5.51383 30.9097 5.67919C30.8934 5.84454 30.9348 6.01046 31.027 6.14871L33.707 10.1687L33.0994 11.9914C33.0572 12.1181 33.051 12.254 33.0817 12.3839C33.1124 12.5138 33.1786 12.6327 33.273 12.727C33.3674 12.8214 33.4862 12.8877 33.6161 12.9183C33.7461 12.949 33.882 12.9429 34.0086 12.9007L35.8314 12.2931L39.8513 14.9731C39.9896 15.0652 40.1555 15.1067 40.3209 15.0903C40.4862 15.0739 40.6408 15.0008 40.7583 14.8833C40.8758 14.7658 40.9489 14.6112 40.9653 14.4459C40.9817 14.2805 40.9402 14.1146 40.8481 13.9763L38.1681 9.95637L38.7757 8.13361ZM36.3362 10.902C36.2451 10.8413 36.1414 10.8022 36.0329 10.7876C35.9244 10.7731 35.814 10.7835 35.7102 10.8181L34.9177 11.0823L35.1819 10.2899C35.2165 10.186 35.2269 10.0756 35.2124 9.96715C35.1979 9.85866 35.1588 9.75492 35.0981 9.66385L34.2165 8.34155L35.5388 9.22305C35.6299 9.28372 35.7337 9.32281 35.8422 9.33734C35.9506 9.35188 36.061 9.34148 36.1649 9.30693L36.9573 9.04275L36.6931 9.8352C36.6585 9.93905 36.6481 10.0494 36.6626 10.1579C36.6772 10.2664 36.7163 10.3701 36.777 10.4612L37.6585 11.7835L36.3362 10.902Z" fill="#00A54C"/>
</g>
</svg>
